<svg width="17" height="17" viewBox="0 0 17 17" fill="none" xmlns="http://www.w3.org/2000/svg">
<path d="M16.502 13.3366C2.69995 13.3366 3.31537 13.3392 3.3145 13.332C3.16323 12.1206 3.16931 12.1981 3.17917 12.1967C9.80219 12.1622 -6.03444 12.1988 15.4003 12.1988C16.2933 12.1988 16.9668 11.5222 16.9668 10.625V3.87646C16.9668 3.22236 16.4347 2.68929 15.7806 2.68812L11.6575 2.68102V1.62695C11.6575 1.04108 11.1809 0.564453 10.595 0.564453H9.59982C9.01412 0.564453 8.53765 1.04095 8.53765 1.62662V2.67564L4.11466 2.66794L3.78313 0.842031C3.69458 0.354145 3.27038 0 2.77449 0H0.498047C0.222992 0 0 0.222992 0 0.498047C0 0.773102 0.222992 0.996094 0.498047 0.996094C2.90843 0.996094 2.79633 0.982846 2.80307 1.01997C3.34346 3.99603 2.99954 1.91605 4.44929 11.1939L3.17465 11.2006C2.5761 11.2029 2.11016 11.7283 2.18487 12.3261L2.32605 13.4556C2.38857 13.9556 2.81573 14.3327 3.31965 14.3327H4.20352C3.5793 15.5447 4.4634 17 5.83269 17C7.20136 17 8.08639 15.5453 7.46187 14.3327H12.2055C11.5812 15.5447 12.4654 17 13.8346 17C15.2033 17 16.0883 15.5453 15.4638 14.3327H16.502C16.777 14.3327 17 14.1097 17 13.8346C17 13.5596 16.777 13.3366 16.502 13.3366ZM9.53378 1.62662C9.53378 1.5902 9.56343 1.56055 9.59985 1.56055H10.595C10.6316 1.56055 10.6614 1.59033 10.6614 1.62695V5.3125C10.6614 5.58755 10.8844 5.81055 11.1595 5.81055H11.8991L10.3469 7.36376C10.2091 7.50158 9.98607 7.50158 9.84831 7.36376L8.29603 5.81055H9.0357C9.31075 5.81055 9.53375 5.58755 9.53375 5.3125V1.62662H9.53378ZM8.53769 3.67173V4.81445H7.70631C7.03807 4.81445 6.70185 5.62441 7.1746 6.09755L9.14381 8.06789C9.67088 8.59526 10.5243 8.59533 11.0514 8.06789L13.0206 6.09755C13.493 5.62484 13.1577 4.81445 12.4889 4.81445H11.6575V3.67711L15.7789 3.68422C15.8847 3.68438 15.9707 3.77065 15.9707 3.87646V10.625C15.9707 10.9705 15.7415 11.2027 15.4003 11.2027H5.45886L4.28091 3.66433L8.53769 3.67173ZM6.66828 15.1683C6.66828 15.629 6.29342 16.0039 5.83266 16.0039C5.3719 16.0039 4.99707 15.629 4.99707 15.1683C4.99707 14.7075 5.37193 14.3327 5.83269 14.3327C6.29345 14.3327 6.66828 14.7076 6.66828 15.1683ZM14.6702 15.1683C14.6702 15.629 14.2954 16.0039 13.8346 16.0039C13.3739 16.0039 12.999 15.629 12.999 15.1683C12.999 14.7075 13.3739 14.3327 13.8346 14.3327C14.2954 14.3327 14.6702 14.7076 14.6702 15.1683Z" fill="#9DCCFF"/>
</svg>
