<svg width="17" height="14" viewBox="0 0 17 14" fill="none" xmlns="http://www.w3.org/2000/svg">
<path d="M8.85629 8.98949L11.0299 11.0837L8.85022 13.1778L9.71236 14.0003L12.7481 11.0837L9.71236 8.16699L8.85629 8.98949Z" fill="#9DCCFF"/>
<path d="M13.1075 8.98949L15.2811 11.0837L13.1014 13.1778L13.9636 14.0003L16.9993 11.0837L13.9636 8.16699L13.1075 8.98949Z" fill="#9DCCFF"/>
<path d="M7.28571 10.5H1.21429V1.6975L8.15393 6.31167C8.25556 6.37941 8.37631 6.41571 8.5 6.41571C8.62369 6.41571 8.74444 6.37941 8.84607 6.31167L15.7857 1.6975V7H17V1.16667C17 0.857247 16.8721 0.560501 16.6443 0.341709C16.4166 0.122916 16.1078 0 15.7857 0H1.21429C0.892237 0 0.583379 0.122916 0.355656 0.341709C0.127933 0.560501 0 0.857247 0 1.16667V10.5C0 10.8094 0.127933 11.1062 0.355656 11.325C0.583379 11.5438 0.892237 11.6667 1.21429 11.6667H7.28571V10.5ZM14.45 1.16667L8.5 5.12167L2.55 1.16667H14.45Z" fill="#9DCCFF"/>
</svg>
