<svg width="17" height="17" viewBox="0 0 17 17" fill="none" xmlns="http://www.w3.org/2000/svg">
<path d="M2.43975 2.17531L4.83146 6.37332L0.0157811 6.39179L0 10.6765L4.81463 10.6562L2.38995 14.8715L6.05954 17L8.48316 12.7829L10.8749 16.9809L14.5602 14.8247L12.1685 10.6267L16.9842 10.6082L17 6.32345L12.1854 6.34377L14.6101 2.12853L10.9405 0L8.51684 4.21709L6.12513 0.0190841L2.43975 2.17531ZM4.37114 2.69037L5.5996 1.97163L8.5062 7.07339L11.4508 1.94941L12.673 2.65727L9.72846 7.78126L15.5796 7.75904L15.5734 9.18565L9.72226 9.20787L12.6289 14.3096L11.4004 15.0284L8.4938 9.92661L5.54922 15.0506L4.32696 14.3427L7.27154 9.21874L1.42036 9.24096L1.42656 7.81436L7.27774 7.79214L4.37114 2.69037Z" fill="#9DCCFF"/>
</svg>
