<svg width="16" height="16" viewBox="0 0 16 16" fill="none" xmlns="http://www.w3.org/2000/svg">
<path d="M3.13517 0.998245L3.15077 0.998245L3.16636 1.01384C3.79009 1.90786 4.4762 2.94221 5.22468 4.11691C5.23508 4.20007 5.20389 4.30923 5.13112 4.44437C5.03756 4.63149 4.77767 5.09409 4.35145 5.83218L4.03959 6.37794L4.39823 6.89252C4.88683 7.58902 5.61971 8.42586 6.59689 9.40305C7.57408 10.3802 8.40572 11.1079 9.09183 11.5861L9.60641 11.9604L10.1678 11.6485C10.9058 11.2223 11.3685 10.9624 11.5556 10.8688C11.6283 10.8272 11.6907 10.7986 11.7427 10.7831C11.7947 10.7675 11.8363 10.7597 11.8674 10.7597L11.883 10.7597C12.7043 11.2794 13.7438 11.9707 15.0017 12.8336C15.0121 12.9063 14.9861 12.9843 14.9237 13.0675C14.6119 13.5041 14.2636 13.9173 13.879 14.3071C13.4943 14.697 13.2137 14.9283 13.0369 15.0011C12.1013 14.9491 10.9968 14.5255 9.72336 13.7302C8.4499 12.9349 7.08548 11.8096 5.63011 10.3542C4.91281 9.62655 4.27089 8.91965 3.70433 8.23355C3.13777 7.54744 2.65698 6.89252 2.26195 6.26879C1.86692 5.64506 1.56285 5.05251 1.34974 4.49115C1.13663 3.92979 1.01968 3.42041 0.998889 2.963C1.06126 2.78628 1.28737 2.5056 1.6772 2.12096C2.06703 1.73633 2.48026 1.38808 2.91687 1.07621C2.98964 1.03463 3.06241 1.00864 3.13517 0.998245ZM3.13517 0.0314587C3.0728 0.0314587 3.01563 0.0366562 2.96365 0.0470523L2.80771 0.0782384L2.65178 0.125019L2.49585 0.195188L2.33992 0.280952C2.27754 0.322534 2.18918 0.387506 2.07483 0.475868C1.96048 0.564231 1.77076 0.720164 1.50567 0.943668C1.24059 1.16717 1.00409 1.38548 0.796176 1.59859C0.588265 1.8117 0.401145 2.043 0.234817 2.29249C0.0684877 2.54198 -0.00947887 2.76029 0.000916684 2.94741C0.0217078 3.59193 0.182839 4.28324 0.48431 5.02132C0.785781 5.75941 1.18861 6.48969 1.69279 7.21218C2.19698 7.93468 2.70896 8.60259 3.22874 9.21593C3.74851 9.82926 4.31507 10.4426 4.92841 11.0559C5.54175 11.6693 6.15508 12.2384 6.76842 12.7634C7.38176 13.2884 8.04967 13.803 8.77216 14.3071C9.49465 14.8113 10.2275 15.2142 10.9708 15.5156C11.7141 15.8171 12.4132 15.9782 13.0681 15.999L13.0837 15.999C13.2604 15.999 13.4735 15.9159 13.723 15.7495C13.9725 15.5832 14.2038 15.3935 14.4169 15.1804C14.6301 14.9673 14.8484 14.7334 15.0719 14.4787C15.2954 14.224 15.4539 14.0343 15.5475 13.9095L15.7346 13.66C15.9425 13.3274 16.0283 13.0129 15.9919 12.7166C15.9555 12.4204 15.8281 12.1994 15.6098 12.0539C15.5786 12.0227 15.4799 11.9526 15.3136 11.8434C15.1472 11.7342 14.9549 11.6069 14.7366 11.4614C14.5183 11.3158 14.2818 11.1573 14.0271 10.9858C13.7724 10.8142 13.5307 10.6557 13.302 10.5102C13.0733 10.3646 12.8732 10.2347 12.7017 10.1203C12.5302 10.006 12.4184 9.93322 12.3664 9.90203C12.3041 9.86045 12.2287 9.82667 12.1403 9.80068C12.052 9.77469 11.961 9.76169 11.8674 9.76169C11.8051 9.76169 11.7427 9.76689 11.6803 9.77729C11.6179 9.78768 11.553 9.80328 11.4854 9.82407C11.4178 9.84486 11.3503 9.86825 11.2827 9.89424C11.2151 9.92023 11.1501 9.94881 11.0878 9.98C10.8903 10.084 10.4173 10.349 9.66878 10.7753C9.03465 10.3283 8.24459 9.63175 7.29859 8.68575C6.75802 8.14519 6.31881 7.67739 5.98096 7.28236C5.6431 6.88732 5.39101 6.57026 5.22468 6.33116C5.6509 5.57229 5.91599 5.09929 6.01994 4.91217C6.29022 4.39239 6.31621 3.96098 6.09791 3.61792C5.99395 3.45159 5.63011 2.90323 5.00637 1.97283C4.38264 1.04243 4.02919 0.52005 3.94603 0.405699C3.7693 0.156205 3.49902 0.0314587 3.13517 0.0314587Z" fill="#9DCCFF"/>
</svg>
