<svg width="11" height="11" viewBox="0 0 11 11" fill="none" xmlns="http://www.w3.org/2000/svg">
<path d="M10.213 3.14265V10.2141H3.14155V3.14265H10.213ZM10.213 2.35693H3.14155C2.93316 2.35693 2.73332 2.43971 2.58597 2.58706C2.43862 2.73441 2.35583 2.93426 2.35583 3.14265V10.2141C2.35583 10.4225 2.43862 10.6223 2.58597 10.7697C2.73332 10.917 2.93316 10.9998 3.14155 10.9998H10.213C10.4214 10.9998 10.6212 10.917 10.7686 10.7697C10.9159 10.6223 10.9987 10.4225 10.9987 10.2141V3.14265C10.9987 2.93426 10.9159 2.73441 10.7686 2.58706C10.6212 2.43971 10.4214 2.35693 10.213 2.35693Z" fill="white"/>
<path d="M0.785348 6.28571H-0.000366211V0.785714C-0.000366211 0.57733 0.0824141 0.37748 0.229764 0.23013C0.377114 0.0827803 0.576964 0 0.785348 0H6.28535V0.785714H0.785348V6.28571Z" fill="white"/>
</svg>
