<svg width="11" height="11" viewBox="0 0 11 11" fill="none" xmlns="http://www.w3.org/2000/svg">
    <path d="M10.2149 3.14216V10.2136H3.1435V3.14216H10.2149ZM10.2149 2.35645H3.1435C2.93512 2.35645 2.73527 2.43923 2.58792 2.58658C2.44057 2.73393 2.35779 2.93378 2.35779 3.14216V10.2136C2.35779 10.422 2.44057 10.6218 2.58792 10.7692C2.73527 10.9165 2.93512 10.9993 3.1435 10.9993H10.2149C10.4233 10.9993 10.6232 10.9165 10.7705 10.7692C10.9179 10.6218 11.0006 10.422 11.0006 10.2136V3.14216C11.0006 2.93378 10.9179 2.73393 10.7705 2.58658C10.6232 2.43923 10.4233 2.35645 10.2149 2.35645Z" fill="white"/>
    <path d="M6.32493 4.25658L6.32493 8.17061L5.32189 7.23807C5.28884 7.20746 5.24961 7.18317 5.20643 7.1666C5.16325 7.15003 5.11697 7.14151 5.07024 7.14151C5.0235 7.14151 4.97723 7.15003 4.93405 7.1666C4.89087 7.18317 4.85164 7.20746 4.81859 7.23807C4.78554 7.26869 4.75933 7.30503 4.74145 7.34504C4.72356 7.38504 4.71436 7.42791 4.71436 7.47121C4.71436 7.51451 4.72356 7.55738 4.74145 7.59738C4.75933 7.63738 4.78554 7.67373 4.81859 7.70434L6.67936 9.42822L8.54014 7.70434C8.57298 7.67366 8.59897 7.63727 8.61661 7.59727C8.63425 7.55726 8.64319 7.51442 8.64292 7.47121C8.64263 7.40666 8.62182 7.34362 8.58307 7.28997C8.54433 7.23633 8.48938 7.19445 8.42508 7.16957C8.36079 7.1447 8.29001 7.13793 8.22159 7.15011C8.15317 7.16229 8.09014 7.19289 8.04039 7.23807L7.0338 8.17061L7.0338 4.25658C7.0338 4.1695 6.99645 4.08598 6.92999 4.0244C6.86352 3.96282 6.77336 3.92822 6.67936 3.92822C6.58536 3.92822 6.49521 3.96282 6.42874 4.0244C6.36227 4.08598 6.32493 4.1695 6.32493 4.25658Z" fill="white"/>
    <path d="M0.787301 6.28571H0.00158691V0.785714C0.00158691 0.57733 0.0843672 0.37748 0.231717 0.23013C0.379067 0.0827803 0.578917 0 0.787301 0H6.2873V0.785714H0.787301V6.28571Z" fill="white"/>
</svg>
