<svg width="10" height="11" viewBox="0 0 10 11" fill="none" xmlns="http://www.w3.org/2000/svg">
    <path d="M3.14124 3.92822H3.92695V8.64251H3.14124V3.92822Z" fill="white"/>
    <path d="M5.49976 3.92822H6.28547V8.64251H5.49976V3.92822Z" fill="white"/>
    <path d="M-0.000488281 1.57141V2.35713H0.785226V10.2143C0.785226 10.4227 0.868006 10.6225 1.01536 10.7699C1.16271 10.9172 1.36256 11 1.57094 11H7.85665C8.06504 11 8.26489 10.9172 8.41224 10.7699C8.55959 10.6225 8.64237 10.4227 8.64237 10.2143V2.35713H9.42808V1.57141H-0.000488281ZM1.57094 10.2143V2.35713H7.85665V10.2143H1.57094Z" fill="white"/>
    <path d="M3.14124 0H6.28409V0.785714H3.14124V0Z" fill="white"/>
</svg>
