<svg width="13" height="12" viewBox="0 0 13 12" fill="none" xmlns="http://www.w3.org/2000/svg">
<path d="M8.72754 0H4.27412C4.14289 0 4.01703 0.0532926 3.92423 0.148154C3.83143 0.243015 3.7793 0.371675 3.7793 0.505829V5.05829C3.7793 5.19244 3.83143 5.3211 3.92423 5.41596C4.01703 5.51082 4.14289 5.56412 4.27412 5.56412H8.72754C8.85878 5.56412 8.98464 5.51082 9.07743 5.41596C9.17023 5.3211 9.22236 5.19244 9.22236 5.05829V0.505829C9.22236 0.371675 9.17023 0.243015 9.07743 0.148154C8.98464 0.0532926 8.85878 0 8.72754 0Z" fill="white"/>
<path d="M4.94824 6.93942V11.4919H0.494824V6.93942H4.94824ZM4.94824 6.43359H0.494824C0.363589 6.43359 0.237728 6.48689 0.144931 6.58175C0.0521332 6.67661 0 6.80527 0 6.93942V11.4919C0 11.626 0.0521332 11.7547 0.144931 11.8496C0.237728 11.9444 0.363589 11.9977 0.494824 11.9977H4.94824C5.07948 11.9977 5.20534 11.9444 5.29814 11.8496C5.39093 11.7547 5.44307 11.626 5.44307 11.4919V6.93942C5.44307 6.80527 5.39093 6.67661 5.29814 6.58175C5.20534 6.48689 5.07948 6.43359 4.94824 6.43359Z" fill="white"/>
<path d="M12.5054 6.93942V11.4919H8.05195V6.93942H12.5054ZM12.5054 6.43359H8.05195C7.92072 6.43359 7.79486 6.48689 7.70206 6.58175C7.60926 6.67661 7.55713 6.80527 7.55713 6.93942V11.4919C7.55713 11.626 7.60926 11.7547 7.70206 11.8496C7.79486 11.9444 7.92072 11.9977 8.05195 11.9977H12.5054C12.6366 11.9977 12.7625 11.9444 12.8553 11.8496C12.9481 11.7547 13.0002 11.626 13.0002 11.4919V6.93942C13.0002 6.80527 12.9481 6.67661 12.8553 6.58175C12.7625 6.48689 12.6366 6.43359 12.5054 6.43359Z" fill="white"/>
</svg>
