<svg width="11" height="11" viewBox="0 0 11 11" fill="none" xmlns="http://www.w3.org/2000/svg">
<path d="M1.031 0L1.09287 0.00549902C1.16154 0.0180451 1.22476 0.0512057 1.27413 0.100568C1.32349 0.149931 1.35665 0.213156 1.3692 0.281828L1.37469 0.343693V1.86419C2.19725 0.931232 3.31179 0.304678 4.53635 0.0868226C5.76091 -0.131033 7.02315 0.0726786 8.11701 0.6647C9.21087 1.25672 10.0717 2.20208 10.559 3.34643C11.0463 4.49079 11.1313 5.76654 10.8 6.96541C10.4688 8.16428 9.74091 9.21545 8.73522 9.9473C7.72953 10.6791 6.50545 11.0484 5.26281 10.9949C4.02018 10.9414 2.8324 10.4681 1.89339 9.65249C0.954378 8.83685 0.319611 7.72697 0.0927182 6.50405C0.019259 6.0543 -0.0106661 5.59852 0.003358 5.14303C0.0112383 5.05504 0.0526974 4.97346 0.11913 4.91523C0.185564 4.857 0.271868 4.82658 0.360132 4.8303C0.448396 4.83401 0.531841 4.87157 0.593146 4.93518C0.654452 4.99879 0.68891 5.08356 0.68937 5.1719C0.677571 5.57559 0.703807 5.97949 0.767732 6.37826C0.970387 7.47143 1.54535 8.4607 2.39489 9.17789C3.24443 9.89509 4.31612 10.296 5.4278 10.3124C6.53948 10.3288 7.62253 9.95973 8.49288 9.26792C9.36322 8.57611 9.96714 7.60426 10.202 6.51754C10.4368 5.43083 10.2881 4.29632 9.78105 3.30687C9.27403 2.31741 8.44 1.53407 7.42074 1.08999C6.40149 0.645911 5.25989 0.5685 4.19002 0.870915C3.12014 1.17333 2.188 1.83691 1.55204 2.74886L3.78055 2.74955L3.84241 2.75505C3.92166 2.76939 3.99334 2.81111 4.04497 2.87292C4.09659 2.93473 4.12487 3.01271 4.12487 3.09324C4.12487 3.17377 4.09659 3.25175 4.04497 3.31356C3.99334 3.37537 3.92166 3.41709 3.84241 3.43143L3.78055 3.43693H1.031L0.969136 3.43143C0.900463 3.41889 0.837239 3.38573 0.787876 3.33636C0.738513 3.287 0.705353 3.22378 0.692807 3.15511L0.687308 3.09324V0.343693L0.692807 0.281828C0.705353 0.213156 0.738513 0.149931 0.787876 0.100568C0.837239 0.0512057 0.900463 0.0180451 0.969136 0.00549902L1.031 0ZM5.15532 2.74955L5.21719 2.75505C5.28586 2.76759 5.34908 2.80075 5.39845 2.85012C5.44781 2.89948 5.48097 2.9627 5.49351 3.03138L5.49901 3.09324V5.84554H6.87379L6.93565 5.85104C7.0149 5.86538 7.08658 5.9071 7.13821 5.96891C7.18983 6.03072 7.21811 6.1087 7.21811 6.18923C7.21811 6.26976 7.18983 6.34774 7.13821 6.40955C7.08658 6.47136 7.0149 6.51308 6.93565 6.52742L6.87379 6.53292H5.15532L5.09346 6.52742C5.02478 6.51488 4.96156 6.48172 4.9122 6.43235C4.86283 6.38299 4.82967 6.31977 4.81713 6.25109L4.81163 6.18923V3.09324L4.81713 3.03138C4.82967 2.9627 4.86283 2.89948 4.9122 2.85012C4.96156 2.80075 5.02478 2.76759 5.09346 2.75505L5.15532 2.74955Z" fill="white"/>
</svg>
