<svg width="16" height="15" viewBox="0 0 16 15" fill="none" xmlns="http://www.w3.org/2000/svg">
<path d="M15.1251 2H13.5001V3H15.0001V14H1.00013V3H2.50013V2H0.875129C0.758247 2.00195 0.642895 2.02691 0.535662 2.07345C0.428428 2.11999 0.331414 2.1872 0.250159 2.27125C0.168905 2.35529 0.105002 2.45451 0.0621014 2.56325C0.0192006 2.67199 -0.00185798 2.78812 0.000128526 2.905V14.095C-0.00185798 14.2119 0.0192006 14.328 0.0621014 14.4367C0.105002 14.5455 0.168905 14.6447 0.250159 14.7288C0.331414 14.8128 0.428428 14.88 0.535662 14.9265C0.642895 14.9731 0.758247 14.998 0.875129 15H15.1251C15.242 14.998 15.3574 14.9731 15.4646 14.9265C15.5718 14.88 15.6688 14.8128 15.7501 14.7288C15.8314 14.6447 15.8953 14.5455 15.9382 14.4367C15.9811 14.328 16.0021 14.2119 16.0001 14.095V2.905C16.0021 2.78812 15.9811 2.67199 15.9382 2.56325C15.8953 2.45451 15.8314 2.35529 15.7501 2.27125C15.6688 2.1872 15.5718 2.11999 15.4646 2.07345C15.3574 2.02691 15.242 2.00195 15.1251 2Z" fill="#9DCCFF"/>
<path d="M3 6H4V7H3V6Z" fill="#9DCCFF"/>
<path d="M6 6H7V7H6V6Z" fill="#9DCCFF"/>
<path d="M9 6H10V7H9V6Z" fill="#9DCCFF"/>
<path d="M12 6H13V7H12V6Z" fill="#9DCCFF"/>
<path d="M3 8.5H4V9.5H3V8.5Z" fill="#9DCCFF"/>
<path d="M6 8.5H7V9.5H6V8.5Z" fill="#9DCCFF"/>
<path d="M9 8.5H10V9.5H9V8.5Z" fill="#9DCCFF"/>
<path d="M12 8.5H13V9.5H12V8.5Z" fill="#9DCCFF"/>
<path d="M3 11H4V12H3V11Z" fill="#9DCCFF"/>
<path d="M6 11H7V12H6V11Z" fill="#9DCCFF"/>
<path d="M9 11H10V12H9V11Z" fill="#9DCCFF"/>
<path d="M12 11H13V12H12V11Z" fill="#9DCCFF"/>
<path d="M4 4C4.13261 4 4.25979 3.94732 4.35355 3.85355C4.44732 3.75979 4.5 3.63261 4.5 3.5V0.5C4.5 0.367392 4.44732 0.240215 4.35355 0.146447C4.25979 0.0526784 4.13261 0 4 0C3.86739 0 3.74021 0.0526784 3.64645 0.146447C3.55268 0.240215 3.5 0.367392 3.5 0.5V3.5C3.5 3.63261 3.55268 3.75979 3.64645 3.85355C3.74021 3.94732 3.86739 4 4 4Z" fill="#9DCCFF"/>
<path d="M12 4C12.1326 4 12.2598 3.94732 12.3536 3.85355C12.4473 3.75979 12.5 3.63261 12.5 3.5V0.5C12.5 0.367392 12.4473 0.240215 12.3536 0.146447C12.2598 0.0526784 12.1326 0 12 0C11.8674 0 11.7402 0.0526784 11.6464 0.146447C11.5527 0.240215 11.5 0.367392 11.5 0.5V3.5C11.5 3.63261 11.5527 3.75979 11.6464 3.85355C11.7402 3.94732 11.8674 4 12 4Z" fill="#9DCCFF"/>
<path d="M5.5 2H10.5V3H5.5V2Z" fill="#9DCCFF"/>
</svg>
