<svg width="214" height="55" viewBox="0 0 214 55" fill="none" xmlns="http://www.w3.org/2000/svg">
<g filter="url(#filter0_d)">
<path d="M79.327 41.0647C77.904 41.0647 76.592 40.806 75.4093 40.2886C74.2266 39.7711 73.2103 39.0504 72.3602 38.1634C71.5101 37.2764 70.8449 36.2231 70.3829 35.0219C69.9024 33.8207 69.6807 32.5641 69.6807 31.2336C69.6807 29.9031 69.9209 28.6465 70.3829 27.4638C70.8634 26.2811 71.5286 25.2278 72.3787 24.3407C73.2472 23.4537 74.2636 22.733 75.4463 22.2156C76.629 21.6982 77.941 21.4395 79.3639 21.4395C80.7869 21.4395 82.0989 21.6982 83.2631 22.2341C84.4458 22.77 85.4437 23.4722 86.2568 24.3592C87.0884 25.2462 87.7167 26.2811 88.1602 27.4453C88.6037 28.628 88.8255 29.8292 88.8255 31.1042C88.8255 31.363 88.8254 31.6217 88.807 31.8249C88.7885 32.0467 88.77 32.213 88.7515 32.3424H73.0255C73.0994 33.2848 73.3211 34.1534 73.6722 34.9295C74.0418 35.7056 74.5038 36.3709 75.0952 36.9253C75.668 37.4797 76.3333 37.9232 77.0725 38.2373C77.8117 38.5515 78.5878 38.7178 79.4194 38.7178C79.9922 38.7178 80.5651 38.6439 81.1195 38.4776C81.6739 38.3113 82.1913 38.108 82.6902 37.8493C83.1707 37.5906 83.5957 37.2579 83.9838 36.8699C84.3534 36.4818 84.6491 36.0383 84.8339 35.5578L87.5873 36.3155C87.2732 37.0177 86.8481 37.6645 86.2938 38.2373C85.7394 38.8102 85.1111 39.3276 84.4088 39.7527C83.6881 40.1777 82.8935 40.5103 82.025 40.7506C81.1749 40.9538 80.2694 41.0647 79.327 41.0647ZM85.8318 29.94C85.7578 29.053 85.5361 28.2214 85.1665 27.4453C84.7969 26.6876 84.3164 26.0409 83.7436 25.5049C83.1707 24.969 82.5055 24.5625 81.7663 24.2483C81.0086 23.9527 80.214 23.7864 79.3639 23.7864C78.5139 23.7864 77.7193 23.9342 76.9616 24.2483C76.2039 24.544 75.5571 24.969 74.9843 25.5234C74.4114 26.0778 73.9494 26.7246 73.5983 27.4638C73.2472 28.2214 73.0439 29.0345 72.97 29.94H85.8318Z" fill="#FFB661"/>
<path d="M97.2895 41.0644C96.384 41.0644 95.5524 40.9166 94.7763 40.6024C94.0001 40.3067 93.3349 39.8817 92.762 39.3458C92.1891 38.8099 91.7456 38.1816 91.413 37.4794C91.0804 36.7587 90.9141 35.9825 90.9141 35.1325C90.9141 34.2639 91.0989 33.4693 91.4869 32.7486C91.875 32.0279 92.4294 31.4181 93.1316 30.9191C93.8523 30.4017 94.7024 30.0137 95.6818 29.718C96.6612 29.4223 97.733 29.2745 98.8972 29.2745C99.8212 29.2745 100.745 29.3669 101.688 29.5332C102.63 29.6995 103.462 29.9397 104.201 30.2169V28.6831C104.201 27.1308 103.757 25.9112 102.889 25.0242C102.02 24.1372 100.782 23.6937 99.1744 23.6937C97.2525 23.6937 95.2567 24.4328 93.1501 25.9112L92.0968 23.8415C94.5361 22.1968 96.9938 21.3652 99.4701 21.3652C101.965 21.3652 103.905 22.0305 105.31 23.361C106.696 24.6915 107.398 26.5765 107.398 28.9973V36.7402C107.398 37.4979 107.73 37.8859 108.414 37.9044V40.6579C108.082 40.7133 107.804 40.7503 107.583 40.7687C107.361 40.7872 107.139 40.8057 106.899 40.8057C106.271 40.8057 105.772 40.6209 105.384 40.2513C105.014 39.8817 104.792 39.4197 104.718 38.8838L104.644 37.5348C103.794 38.6805 102.722 39.5306 101.429 40.1404C100.135 40.7687 98.7494 41.0644 97.2895 41.0644ZM98.1211 38.6621C99.2668 38.6621 100.32 38.4588 101.3 38.0338C102.279 37.6087 103.018 37.0544 103.536 36.3521C103.998 35.8901 104.219 35.4282 104.219 34.9292V32.1388C102.667 31.529 101.059 31.2333 99.3777 31.2333C97.77 31.2333 96.4764 31.5659 95.4785 32.2497C94.4806 32.9334 93.9632 33.8204 93.9632 34.9107C93.9632 35.4466 94.0741 35.9456 94.2773 36.4076C94.4806 36.8696 94.7763 37.2761 95.1459 37.6087C95.5155 37.9414 95.959 38.2186 96.4764 38.4034C96.9938 38.5697 97.5297 38.6621 98.1211 38.6621Z" fill="white"/>
<path d="M119.187 41.0656C117.654 41.0656 116.157 40.8254 114.678 40.3634C113.2 39.8829 111.925 39.1992 110.872 38.3122L112.258 36.1685C113.366 37.0186 114.494 37.6469 115.602 38.0719C116.711 38.497 117.894 38.7002 119.132 38.7002C120.518 38.7002 121.608 38.423 122.421 37.8871C123.234 37.3327 123.641 36.5751 123.641 35.5772C123.641 35.1152 123.53 34.7271 123.308 34.3945C123.087 34.0619 122.772 33.7847 122.329 33.5444C121.885 33.3042 121.331 33.0825 120.666 32.8977C119.982 32.7129 119.206 32.4911 118.3 32.2878C117.155 31.9922 116.175 31.715 115.362 31.4563C114.531 31.1975 113.865 30.8834 113.329 30.5138C112.793 30.1442 112.405 29.7192 112.165 29.2018C111.925 28.6843 111.796 28.056 111.796 27.3168C111.796 26.3744 111.98 25.5243 112.35 24.7851C112.72 24.046 113.237 23.4361 113.902 22.9372C114.549 22.4382 115.325 22.0687 116.212 21.8099C117.099 21.5512 118.042 21.4219 119.058 21.4219C120.481 21.4219 121.811 21.6436 123.05 22.1056C124.288 22.5676 125.323 23.1774 126.173 23.9166L124.713 25.8385C123.918 25.1363 123.013 24.6004 122.033 24.2492C121.035 23.8981 120.019 23.7133 118.984 23.7133C117.82 23.7133 116.84 23.9536 116.027 24.4525C115.214 24.9515 114.808 25.7461 114.808 26.8364C114.808 27.2799 114.882 27.631 115.048 27.9267C115.214 28.2223 115.473 28.4626 115.824 28.6843C116.194 28.9061 116.656 29.0909 117.229 29.2572C117.801 29.4235 118.485 29.6083 119.28 29.7931C120.536 30.0888 121.627 30.3844 122.569 30.6801C123.493 30.9758 124.269 31.3454 124.898 31.7519C125.507 32.1585 125.969 32.6574 126.284 33.2118C126.579 33.7662 126.745 34.4499 126.745 35.2446C126.745 37.0186 126.062 38.423 124.713 39.4579C123.327 40.5482 121.497 41.0656 119.187 41.0656Z" fill="white"/>
<path d="M131.366 45.8697C131.68 45.9251 131.994 45.9621 132.308 45.9806C132.622 45.999 132.862 46.0175 133.029 46.0175C133.324 46.0175 133.583 45.9436 133.805 45.8142C134.027 45.6849 134.267 45.4262 134.489 45.0381C134.71 44.65 134.988 44.1141 135.265 43.4119C135.56 42.7282 135.911 41.8227 136.355 40.7139L128.316 21.7539H131.661L138.129 37.8496L144.024 21.7539H147.073L137.852 45.7034C137.519 46.5534 136.946 47.2926 136.17 47.9394C135.376 48.5862 134.304 48.9003 132.918 48.9003C132.696 48.9003 132.474 48.8819 132.253 48.8634C132.031 48.8449 131.735 48.7894 131.402 48.7155V45.8697H131.366Z" fill="white"/>
<path d="M156.941 41.0656C155.407 41.0656 153.911 40.8254 152.432 40.3634C150.954 39.8829 149.679 39.1992 148.625 38.3122L150.011 36.1685C151.12 37.0186 152.247 37.6469 153.356 38.0719C154.465 38.497 155.648 38.7002 156.886 38.7002C158.272 38.7002 159.362 38.423 160.175 37.8871C160.988 37.3327 161.395 36.5751 161.395 35.5772C161.395 35.1152 161.284 34.7271 161.062 34.3945C160.84 34.0619 160.526 33.7847 160.083 33.5444C159.639 33.3042 159.085 33.0825 158.42 32.8977C157.736 32.7129 156.96 32.4911 156.054 32.2878C154.909 31.9922 153.929 31.715 153.116 31.4563C152.284 31.1975 151.619 30.8834 151.083 30.5138C150.547 30.1442 150.159 29.7192 149.919 29.2018C149.679 28.6843 149.549 28.056 149.549 27.3168C149.549 26.3744 149.734 25.5243 150.104 24.7851C150.473 24.046 150.991 23.4361 151.656 22.9372C152.303 22.4382 153.079 22.0687 153.966 21.8099C154.853 21.5512 155.796 21.4219 156.812 21.4219C158.235 21.4219 159.565 21.6436 160.803 22.1056C162.042 22.5676 163.076 23.1774 163.927 23.9166L162.467 25.8385C161.672 25.1363 160.767 24.6004 159.787 24.2492C158.789 23.8981 157.773 23.7133 156.738 23.7133C155.574 23.7133 154.594 23.9536 153.781 24.4525C152.968 24.9515 152.562 25.7461 152.562 26.8364C152.562 27.2799 152.636 27.631 152.802 27.9267C152.968 28.2223 153.227 28.4626 153.578 28.6843C153.948 28.9061 154.41 29.0909 154.982 29.2572C155.555 29.4235 156.239 29.6083 157.034 29.7931C158.29 30.0888 159.381 30.3844 160.323 30.6801C161.247 30.9758 162.023 31.3454 162.651 31.7519C163.261 32.1585 163.723 32.6574 164.037 33.2118C164.333 33.7662 164.499 34.4499 164.499 35.2446C164.499 37.0186 163.816 38.423 162.467 39.4579C161.081 40.5482 159.251 41.0656 156.941 41.0656Z" fill="#FFB661"/>
<path d="M176.64 41.0647C175.217 41.0647 173.905 40.806 172.722 40.2886C171.54 39.7711 170.523 39.0504 169.673 38.1634C168.823 37.2764 168.158 36.2231 167.696 35.0219C167.215 33.8207 166.994 32.5641 166.994 31.2336C166.994 29.9031 167.234 28.6465 167.696 27.4638C168.176 26.2811 168.842 25.2278 169.692 24.3407C170.56 23.4537 171.577 22.733 172.759 22.2156C173.942 21.6982 175.254 21.4395 176.677 21.4395C178.1 21.4395 179.412 21.6982 180.576 22.2341C181.759 22.77 182.757 23.4722 183.57 24.3592C184.401 25.2462 185.03 26.2811 185.473 27.4453C185.917 28.628 186.138 29.8292 186.138 31.1042C186.138 31.363 186.138 31.6217 186.12 31.8249C186.101 32.0467 186.083 32.213 186.065 32.3424H170.338C170.412 33.2848 170.634 34.1534 170.985 34.9295C171.355 35.7056 171.817 36.3709 172.408 36.9253C172.981 37.4797 173.646 37.9232 174.385 38.2373C175.125 38.5515 175.901 38.7178 176.732 38.7178C177.305 38.7178 177.878 38.6439 178.432 38.4776C178.987 38.3113 179.504 38.108 180.003 37.8493C180.484 37.5906 180.909 37.2579 181.297 36.8699C181.666 36.4818 181.962 36.0383 182.147 35.5578L184.9 36.3155C184.586 37.0177 184.161 37.6645 183.607 38.2373C183.052 38.8102 182.424 39.3276 181.722 39.7527C181.001 40.1777 180.207 40.5103 179.338 40.7506C178.488 40.9538 177.582 41.0647 176.64 41.0647ZM183.145 29.94C183.071 29.053 182.849 28.2214 182.479 27.4453C182.11 26.6876 181.629 26.0409 181.057 25.5049C180.484 24.969 179.818 24.5625 179.079 24.2483C178.322 23.9527 177.527 23.7864 176.677 23.7864C175.827 23.7864 175.032 23.9342 174.275 24.2483C173.517 24.544 172.87 24.969 172.297 25.5234C171.724 26.0778 171.262 26.7246 170.911 27.4638C170.56 28.2214 170.357 29.0345 170.283 29.94H183.145Z" fill="white"/>
<path d="M189.78 14.1777H192.977V35.7988C192.977 36.501 193.162 37.0554 193.531 37.4435C193.901 37.85 194.437 38.0348 195.12 38.0348C195.379 38.0348 195.693 37.9978 196.063 37.9054C196.432 37.813 196.765 37.7206 197.079 37.5913L197.597 40.1784C197.061 40.4002 196.432 40.585 195.712 40.7143C194.991 40.8622 194.344 40.9361 193.79 40.9361C192.552 40.9361 191.572 40.585 190.87 39.8828C190.149 39.1805 189.798 38.2011 189.798 36.9445V14.1777H189.78Z" fill="white"/>
<path d="M200.184 14.1777H203.381V35.7988C203.381 36.501 203.565 37.0554 203.935 37.4435C204.305 37.85 204.84 38.0348 205.524 38.0348C205.783 38.0348 206.097 37.9978 206.467 37.9054C206.836 37.813 207.169 37.7206 207.483 37.5913L208 40.1784C207.465 40.4002 206.836 40.585 206.116 40.7143C205.395 40.8622 204.748 40.9361 204.194 40.9361C202.956 40.9361 201.976 40.585 201.274 39.8828C200.553 39.1805 200.202 38.2011 200.202 36.9445V14.1777H200.184Z" fill="white"/>
<path d="M33.4573 31.2852H19.729V45.0135H33.4573V31.2852Z" fill="#00B3F0"/>
<mask id="mask0" mask-type="alpha" maskUnits="userSpaceOnUse" x="6" y="17" width="28" height="28">
<circle cx="19.7417" cy="31.1382" r="13.7417" fill="#C4C4C4"/>
</mask>
<g mask="url(#mask0)">
<path d="M19.7283 17.5566H6V31.285H19.7283V17.5566Z" fill="#52D3FF"/>
<path d="M33.4573 17.5566H19.729V31.285H33.4573V17.5566Z" fill="#24C7FF"/>
<path d="M19.7283 31.2852H6V45.0135H19.7283V31.2852Z" fill="#8AE1FF"/>
</g>
<mask id="mask1" mask-type="alpha" maskUnits="userSpaceOnUse" x="19" y="6" width="29" height="28">
<circle cx="33.417" cy="19.7417" r="13.7417" fill="#C4C4C4"/>
</mask>
<g mask="url(#mask1)">
<path d="M33.4573 6H19.729V19.7283H33.4573V6Z" fill="#75C5FF"/>
<path d="M47.1863 6H33.458V19.7283H47.1863V6Z" fill="#4DB3FF"/>
<path d="M33.4578 19.7285H19.7295V33.4568H33.4578V19.7285Z" fill="#87CDFF"/>
<path d="M47.1863 19.7285H33.458V33.4568H47.1863V19.7285Z" fill="#199CFF"/>
</g>
<path d="M47.1849 31.2852H33.4565V45.0135H47.1849V31.2852Z" fill="#63A0FF"/>
<mask id="mask2" mask-type="alpha" maskUnits="userSpaceOnUse" x="33" y="17" width="28" height="29">
<circle cx="47.2256" cy="31.271" r="13.7417" fill="#C4C4C4"/>
</mask>
<g mask="url(#mask2)">
<path d="M47.1854 17.5566H33.457V31.285H47.1854V17.5566Z" fill="#3D88FF"/>
<path d="M60.9276 17.5566H47.1992V31.285H60.9276V17.5566Z" fill="#1972FF"/>
<path d="M60.9276 31.2852H47.1992V45.0135H60.9276V31.2852Z" fill="#0062FF"/>
</g>
<path d="M42.104 15.4121C42.104 20.1848 38.2295 24.0593 33.4568 24.0593C28.6841 24.0593 24.8096 20.1848 24.8096 15.4121" stroke="white" stroke-width="2" stroke-miterlimit="10" stroke-linejoin="round"/>
</g>
<defs>
<filter id="filter0_d" x="0" y="0" width="214" height="54.9003" filterUnits="userSpaceOnUse" color-interpolation-filters="sRGB">
<feFlood flood-opacity="0" result="BackgroundImageFix"/>
<feColorMatrix in="SourceAlpha" type="matrix" values="0 0 0 0 0 0 0 0 0 0 0 0 0 0 0 0 0 0 127 0"/>
<feOffset/>
<feGaussianBlur stdDeviation="3"/>
<feColorMatrix type="matrix" values="0 0 0 0 0.117951 0 0 0 0 0.375069 0 0 0 0 0.658333 0 0 0 0.5 0"/>
<feBlend mode="normal" in2="BackgroundImageFix" result="effect1_dropShadow"/>
<feBlend mode="normal" in="SourceGraphic" in2="effect1_dropShadow" result="shape"/>
</filter>
</defs>
</svg>
