<svg width="56" height="45" viewBox="0 0 56 45" fill="none" xmlns="http://www.w3.org/2000/svg">
<g filter="url(#filter0_d)">
<path d="M7 32.332H48.2083C48.2083 33.3215 47.4062 34.1237 46.4167 34.1237H8.79167C7.80216 34.1237 7 33.3215 7 32.332Z" fill="#9DCCFF"/>
<path d="M8.79102 35.918H46.416C46.416 36.9075 45.6139 37.7096 44.6244 37.7096H10.5827C9.59317 37.7096 8.79102 36.9075 8.79102 35.918Z" fill="#9DCCFF"/>
<path fill-rule="evenodd" clip-rule="evenodd" d="M8.79167 7.25C7.80216 7.25 7 8.05216 7 9.04167V28.75C7 29.7395 7.80216 30.5417 8.79167 30.5417H46.4167C47.4062 30.5417 48.2083 29.7395 48.2083 28.75V9.04167C48.2083 8.05216 47.4062 7.25 46.4167 7.25H8.79167ZM27.6042 25.1667C31.0675 25.1667 33.875 22.3591 33.875 18.8958C33.875 15.4325 31.0675 12.625 27.6042 12.625C24.1409 12.625 21.3333 15.4325 21.3333 18.8958C21.3333 22.3591 24.1409 25.1667 27.6042 25.1667ZM10.5833 9.04167H14.1667V12.625H10.5833V9.04167ZM14.1667 25.1667H10.5833V28.75H14.1667V25.1667ZM41.0417 9.04167H44.625V12.625H41.0417V9.04167ZM44.625 25.1667H41.0417V28.75H44.625V25.1667Z" fill="#9DCCFF"/>
</g>
<defs>
<filter id="filter0_d" x="0.02705" y="0.27705" width="55.1542" height="44.4055" filterUnits="userSpaceOnUse" color-interpolation-filters="sRGB">
<feFlood flood-opacity="0" result="BackgroundImageFix"/>
<feColorMatrix in="SourceAlpha" type="matrix" values="0 0 0 0 0 0 0 0 0 0 0 0 0 0 0 0 0 0 127 0"/>
<feOffset/>
<feGaussianBlur stdDeviation="3.48647"/>
<feColorMatrix type="matrix" values="0 0 0 0 0.117951 0 0 0 0 0.375069 0 0 0 0 0.658333 0 0 0 0.3 0"/>
<feBlend mode="normal" in2="BackgroundImageFix" result="effect1_dropShadow"/>
<feBlend mode="normal" in="SourceGraphic" in2="effect1_dropShadow" result="shape"/>
</filter>
</defs>
</svg>
