<svg width="43" height="44" viewBox="0 0 43 44" fill="none" xmlns="http://www.w3.org/2000/svg">
<path fill-rule="evenodd" clip-rule="evenodd" d="M21.5 43.875C33.3741 43.875 43 34.2491 43 22.375C43 10.5009 33.3741 0.875 21.5 0.875C9.62588 0.875 0 10.5009 0 22.375C0 34.2491 9.62588 43.875 21.5 43.875ZM9.715 17.2638C8.60554 17.2638 7.73304 17.657 7.09752 18.4433C6.462 19.2296 6.14424 20.3149 6.14424 21.699C6.14424 23.1478 6.44854 24.2438 7.05713 24.987C7.67111 25.7302 8.55706 26.1019 9.715 26.1019C10.2159 26.1019 10.7006 26.0534 11.1692 25.9564C11.6377 25.8541 12.1251 25.7248 12.6314 25.5687V27.2248C11.705 27.5749 10.6548 27.7499 9.48072 27.7499C7.75189 27.7499 6.4243 27.2275 5.49795 26.1826C4.5716 25.1324 4.10842 23.6325 4.10842 21.6828C4.10842 20.4549 4.33193 19.3804 4.77895 18.4595C5.23136 17.5385 5.88303 16.833 6.73398 16.3429C7.58493 15.8527 8.58399 15.6077 9.73116 15.6077C10.9376 15.6077 12.0524 15.8608 13.0757 16.3671L12.381 17.9747C11.9824 17.7862 11.5596 17.622 11.1126 17.4819C10.671 17.3365 10.2051 17.2638 9.715 17.2638ZM17.107 21.2708H18.448C19.3474 21.2708 19.9991 21.1039 20.403 20.7699C20.807 20.436 21.0089 19.9405 21.0089 19.2835C21.0089 18.6156 20.7908 18.1363 20.3546 17.8455C19.9183 17.5546 19.2613 17.4092 18.3834 17.4092H17.107V21.2708ZM17.107 22.8704V27.5883H15.1762V15.7773H18.5126C20.0368 15.7773 21.1651 16.0628 21.8976 16.6337C22.6301 17.2046 22.9963 18.0663 22.9963 19.2188C22.9963 20.6892 22.2315 21.7367 20.702 22.3614L24.0384 27.5883H21.841L19.0135 22.8704H17.107ZM27.4395 17.7243L30.8649 27.5883H32.5695L36.116 17.7405H36.1806C36.1591 17.9397 36.1322 18.5106 36.0998 19.4531C36.0729 20.3956 36.0595 21.1604 36.0595 21.7475V27.5883H37.9175V15.7773H35.187L31.8101 25.1728H31.7616L28.4817 15.7773H25.7592V27.5883H27.5123V21.8444C27.5123 20.5626 27.4665 19.1892 27.3749 17.7243H27.4395Z" fill="#9DCCFF"/>
</svg>
