<svg width="46" height="55" viewBox="0 0 46 55" fill="none" xmlns="http://www.w3.org/2000/svg">
<g filter="url(#filter0_d)">
<path d="M37.9933 24.5608H25.6756C24.5555 24.5608 23.4813 24.1159 22.6893 23.3239C21.8973 22.5319 21.4524 21.4577 21.4524 20.3376V8.0199C21.4524 7.92656 21.4153 7.83705 21.3493 7.77105C21.2833 7.70505 21.1938 7.66797 21.1004 7.66797H13.006C11.5125 7.66797 10.0803 8.26123 9.02427 9.31724C7.96826 10.3732 7.375 11.8055 7.375 13.2989V41.4537C7.375 42.9471 7.96826 44.3794 9.02427 45.4354C10.0803 46.4914 11.5125 47.0846 13.006 47.0846H32.7143C34.2077 47.0846 35.64 46.4914 36.696 45.4354C37.752 44.3794 38.3452 42.9471 38.3452 41.4537V24.9128C38.3452 24.8194 38.3082 24.7299 38.2422 24.6639C38.1762 24.5979 38.0866 24.5608 37.9933 24.5608ZM29.8988 38.6382H15.8214C15.4481 38.6382 15.09 38.4899 14.826 38.2259C14.562 37.9619 14.4137 37.6038 14.4137 37.2305C14.4137 36.8571 14.562 36.499 14.826 36.235C15.09 35.971 15.4481 35.8227 15.8214 35.8227H29.8988C30.2722 35.8227 30.6302 35.971 30.8942 36.235C31.1582 36.499 31.3065 36.8571 31.3065 37.2305C31.3065 37.6038 31.1582 37.9619 30.8942 38.2259C30.6302 38.4899 30.2722 38.6382 29.8988 38.6382ZM29.8988 31.5995H15.8214C15.4481 31.5995 15.09 31.4512 14.826 31.1872C14.562 30.9232 14.4137 30.5651 14.4137 30.1918C14.4137 29.8184 14.562 29.4604 14.826 29.1964C15.09 28.9324 15.4481 28.784 15.8214 28.784H29.8988C30.2722 28.784 30.6302 28.9324 30.8942 29.1964C31.1582 29.4604 31.3065 29.8184 31.3065 30.1918C31.3065 30.5651 31.1582 30.9232 30.8942 31.1872C30.6302 31.4512 30.2722 31.5995 29.8988 31.5995Z" fill="#9DCCFF"/>
<path d="M37.2205 21.4463L24.5676 8.79336C24.543 8.7689 24.5117 8.75226 24.4777 8.74553C24.4436 8.7388 24.4084 8.74228 24.3763 8.75554C24.3442 8.7688 24.3168 8.79124 24.2975 8.82004C24.2781 8.84884 24.2677 8.88272 24.2676 8.91742V20.3386C24.2676 20.7119 24.4159 21.07 24.6799 21.334C24.9439 21.598 25.302 21.7463 25.6753 21.7463H37.0965C37.1312 21.7462 37.165 21.7358 37.1938 21.7164C37.2226 21.6971 37.2451 21.6696 37.2583 21.6376C37.2716 21.6055 37.2751 21.5703 37.2684 21.5362C37.2616 21.5022 37.245 21.4709 37.2205 21.4463Z" fill="#9DCCFF"/>
</g>
<defs>
<filter id="filter0_d" x="0.40205" y="0.695019" width="44.9161" height="53.3626" filterUnits="userSpaceOnUse" color-interpolation-filters="sRGB">
<feFlood flood-opacity="0" result="BackgroundImageFix"/>
<feColorMatrix in="SourceAlpha" type="matrix" values="0 0 0 0 0 0 0 0 0 0 0 0 0 0 0 0 0 0 127 0"/>
<feOffset/>
<feGaussianBlur stdDeviation="3.48647"/>
<feColorMatrix type="matrix" values="0 0 0 0 0.117951 0 0 0 0 0.375069 0 0 0 0 0.658333 0 0 0 0.3 0"/>
<feBlend mode="normal" in2="BackgroundImageFix" result="effect1_dropShadow"/>
<feBlend mode="normal" in="SourceGraphic" in2="effect1_dropShadow" result="shape"/>
</filter>
</defs>
</svg>
