<svg width="39" height="39" viewBox="0 0 39 39" fill="none" xmlns="http://www.w3.org/2000/svg">
<path d="M33.7298 18.3737H31.0423V11.207C31.0423 9.2362 29.4298 7.6237 27.459 7.6237H20.2923V4.9362C20.2923 2.42786 18.3215 0.457031 15.8132 0.457031C13.3048 0.457031 11.334 2.42786 11.334 4.9362V7.6237H4.16732C2.19648 7.6237 0.583984 9.2362 0.583984 11.207V18.0154H3.27148C5.95898 18.0154 8.10898 20.1654 8.10898 22.8529C8.10898 25.5404 5.95898 27.6904 3.27148 27.6904H0.583984V34.4987C0.583984 36.4695 2.19648 38.082 4.16732 38.082H10.9757V35.3945C10.9757 32.707 13.1257 30.557 15.8132 30.557C18.5007 30.557 20.6507 32.707 20.6507 35.3945V38.082H27.459C29.4298 38.082 31.0423 36.4695 31.0423 34.4987V27.332H33.7298C36.2382 27.332 38.209 25.3612 38.209 22.8529C38.209 20.3445 36.2382 18.3737 33.7298 18.3737Z" fill="#9DCCFF"/>
</svg>
