<svg width="54" height="55" viewBox="0 0 54 55" fill="none" xmlns="http://www.w3.org/2000/svg">
<g filter="url(#filter0_d)">
<path d="M12.8491 26.1445C13.7808 26.1445 14.624 25.7707 15.2471 25.1705L18.6654 26.8795C18.6483 27.0187 18.623 27.1556 18.623 27.2993C18.623 29.2095 20.1772 30.7637 22.0874 30.7637C23.9976 30.7637 25.5518 29.2095 25.5518 27.2993C25.5518 26.7661 25.4206 26.2669 25.2044 25.8152L29.8416 21.1781C30.2933 21.3943 30.7925 21.5254 31.3257 21.5254C33.2359 21.5254 34.79 19.9712 34.79 18.061C34.79 17.7014 34.7194 17.3612 34.6171 17.035L38.6462 14.0139C39.196 14.3811 39.8549 14.5967 40.564 14.5967C42.4742 14.5967 44.0283 13.0425 44.0283 11.1323C44.0283 9.22212 42.4742 7.66797 40.564 7.66797C38.6538 7.66797 37.0996 9.22212 37.0996 11.1323C37.0996 11.492 37.1703 11.8321 37.2725 12.1584L33.2434 15.1795C32.6937 14.8123 32.0348 14.5967 31.3257 14.5967C29.4155 14.5967 27.8613 16.1508 27.8613 18.061C27.8613 18.5942 27.9924 19.0934 28.2087 19.5451L23.5715 24.1823C23.1198 23.9661 22.6206 23.835 22.0874 23.835C21.1558 23.835 20.3125 24.2088 19.6894 24.809L16.2711 23.1C16.2882 22.9608 16.3135 22.8239 16.3135 22.6802C16.3135 20.77 14.7593 19.2158 12.8491 19.2158C10.9389 19.2158 9.38477 20.77 9.38477 22.6802C9.38477 24.5904 10.9389 26.1445 12.8491 26.1445Z" fill="#9DCCFF"/>
<path d="M45.2619 44.7741H44.0301V20.3696C44.0301 19.7315 43.5135 19.2148 42.8753 19.2148H38.2562C37.618 19.2148 37.1014 19.7315 37.1014 20.3696V44.7741H34.7918V27.2983C34.7918 26.6602 34.2752 26.1436 33.637 26.1436H29.0179C28.3798 26.1436 27.8631 26.6602 27.8631 27.2983V44.7741H25.5535V36.5366C25.5535 35.8985 25.0369 35.3818 24.3988 35.3818H19.7796C19.1415 35.3818 18.6248 35.8985 18.6248 36.5366V44.7741H16.3153V31.9175C16.3153 31.2793 15.7986 30.7627 15.1605 30.7627H10.5413C9.9032 30.7627 9.38656 31.2793 9.38656 31.9175V44.7741H8.15479C7.51665 44.7741 7 45.2907 7 45.9289C7 46.567 7.51665 47.0837 8.15479 47.0837H45.2619C45.9 47.0837 46.4167 46.567 46.4167 45.9289C46.4167 45.2907 45.9 44.7741 45.2619 44.7741Z" fill="#9DCCFF"/>
</g>
<defs>
<filter id="filter0_d" x="0.02705" y="0.695019" width="53.3626" height="53.3616" filterUnits="userSpaceOnUse" color-interpolation-filters="sRGB">
<feFlood flood-opacity="0" result="BackgroundImageFix"/>
<feColorMatrix in="SourceAlpha" type="matrix" values="0 0 0 0 0 0 0 0 0 0 0 0 0 0 0 0 0 0 127 0"/>
<feOffset/>
<feGaussianBlur stdDeviation="3.48647"/>
<feColorMatrix type="matrix" values="0 0 0 0 0.117951 0 0 0 0 0.375069 0 0 0 0 0.658333 0 0 0 0.3 0"/>
<feBlend mode="normal" in2="BackgroundImageFix" result="effect1_dropShadow"/>
<feBlend mode="normal" in="SourceGraphic" in2="effect1_dropShadow" result="shape"/>
</filter>
</defs>
</svg>
