<svg width="54" height="55" viewBox="0 0 54 55" fill="none" xmlns="http://www.w3.org/2000/svg">
<g filter="url(#filter0_d)">
<path d="M45.2189 23.3395L42.2566 22.6955C41.9991 21.9069 41.68 21.1377 41.3033 20.3967L42.9433 17.8458C43.2361 17.39 43.1717 16.7916 42.7889 16.4087L38.174 11.7939C37.7912 11.4111 37.1928 11.3467 36.737 11.6395L34.1861 13.2795C33.4451 12.9028 32.6759 12.5837 31.8873 12.3261L31.2433 9.36388C31.1283 8.83459 30.6596 8.45703 30.1179 8.45703H23.5918C23.0502 8.45703 22.5814 8.83459 22.4665 9.36388L21.8225 12.3261C21.0338 12.5837 20.2646 12.9028 19.5236 13.2795L16.9727 11.6395C16.5169 11.3467 15.9185 11.4111 15.5357 11.7939L10.9209 16.4087C10.538 16.7916 10.4736 17.39 10.7665 17.8458L12.4064 20.3967C12.0297 21.1377 11.7107 21.9069 11.4531 22.6955L8.49084 23.3395C7.96155 23.4548 7.58398 23.9232 7.58398 24.4648V30.991C7.58398 31.5326 7.96155 32.0011 8.49084 32.1163L11.4531 32.7603C11.7107 33.5489 12.0297 34.3182 12.4064 35.0592L10.7665 37.6101C10.4736 38.0658 10.538 38.6642 10.9209 39.0471L15.5357 43.6619C15.9185 44.0448 16.5169 44.1092 16.9727 43.8163L19.5236 42.1764C20.2646 42.5531 21.0338 42.8721 21.8225 43.1297L22.4665 46.092C22.5814 46.6212 23.0502 46.9988 23.5918 46.9988H30.1179C30.6596 46.9988 31.1283 46.6212 31.2433 46.092L31.8873 43.1297C32.6759 42.8721 33.4451 42.5531 34.1861 42.1764L36.737 43.8163C37.1928 44.1092 37.7912 44.0451 38.174 43.6619L42.7889 39.0471C43.1717 38.6642 43.2361 38.0658 42.9433 37.6101L41.3033 35.0592C41.68 34.3182 41.9991 33.5489 42.2566 32.7603L45.2189 32.1163C45.7482 32.0011 46.1258 31.5326 46.1258 30.991V24.4648C46.1258 23.9232 45.7482 23.4548 45.2189 23.3395ZM33.7648 27.7279C33.7648 31.5379 30.6649 34.6378 26.8549 34.6378C23.0449 34.6378 19.945 31.5379 19.945 27.7279C19.945 23.9179 23.0449 20.818 26.8549 20.818C30.6649 20.818 33.7648 23.9179 33.7648 27.7279Z" fill="#9DCCFF"/>
</g>
<defs>
<filter id="filter0_d" x="0.0839887" y="0.957036" width="53.5418" height="53.5418" filterUnits="userSpaceOnUse" color-interpolation-filters="sRGB">
<feFlood flood-opacity="0" result="BackgroundImageFix"/>
<feColorMatrix in="SourceAlpha" type="matrix" values="0 0 0 0 0 0 0 0 0 0 0 0 0 0 0 0 0 0 127 0"/>
<feOffset/>
<feGaussianBlur stdDeviation="3.75"/>
<feColorMatrix type="matrix" values="0 0 0 0 0.117951 0 0 0 0 0.375069 0 0 0 0 0.658333 0 0 0 0.3 0"/>
<feBlend mode="normal" in2="BackgroundImageFix" result="effect1_dropShadow"/>
<feBlend mode="normal" in="SourceGraphic" in2="effect1_dropShadow" result="shape"/>
</filter>
</defs>
</svg>
