<svg width="56" height="51" viewBox="0 0 56 51" fill="none" xmlns="http://www.w3.org/2000/svg">
<g filter="url(#filter0_d)">
<path d="M15.4858 43.2904C14.015 43.2904 12.7327 42.4418 12.1104 41.216L7.18857 23.3769L7 22.5472C7 22.0471 7.19868 21.5674 7.55232 21.2138C7.90597 20.8601 8.38561 20.6614 8.88574 20.6614H17.5225L26.1969 8.2721C26.3707 8.01917 26.6039 7.81266 26.8759 7.67058C27.148 7.52851 27.4507 7.45521 27.7576 7.45707C28.0645 7.45893 28.3663 7.5359 28.6366 7.68125C28.9069 7.82661 29.1376 8.03594 29.3084 8.29096L37.9639 20.6614H46.6006C47.1008 20.6614 47.5804 20.8601 47.934 21.2138C48.2877 21.5674 48.4864 22.0471 48.4864 22.5472L48.4109 23.094L43.376 41.216C42.7537 42.4418 41.4714 43.2904 40.0005 43.2904H15.4858ZM27.7432 12.6282L22.086 20.6614H33.4004L27.7432 12.6282ZM27.7432 28.2044C26.7429 28.2044 25.7836 28.6018 25.0763 29.3091C24.369 30.0163 23.9717 30.9756 23.9717 31.9759C23.9717 32.9762 24.369 33.9355 25.0763 34.6427C25.7836 35.35 26.7429 35.7474 27.7432 35.7474C28.7434 35.7474 29.7027 35.35 30.41 34.6427C31.1173 33.9355 31.5147 32.9762 31.5147 31.9759C31.5147 30.9756 31.1173 30.0163 30.41 29.3091C29.7027 28.6018 28.7434 28.2044 27.7432 28.2044Z" fill="#9DCCFF"/>
</g>
<defs>
<filter id="filter0_d" x="0.02705" y="0.484081" width="55.4323" height="49.7792" filterUnits="userSpaceOnUse" color-interpolation-filters="sRGB">
<feFlood flood-opacity="0" result="BackgroundImageFix"/>
<feColorMatrix in="SourceAlpha" type="matrix" values="0 0 0 0 0 0 0 0 0 0 0 0 0 0 0 0 0 0 127 0"/>
<feOffset/>
<feGaussianBlur stdDeviation="3.48647"/>
<feColorMatrix type="matrix" values="0 0 0 0 0.117951 0 0 0 0 0.375069 0 0 0 0 0.658333 0 0 0 0.3 0"/>
<feBlend mode="normal" in2="BackgroundImageFix" result="effect1_dropShadow"/>
<feBlend mode="normal" in="SourceGraphic" in2="effect1_dropShadow" result="shape"/>
</filter>
</defs>
</svg>
