<svg width="14" height="13" viewBox="0 0 14 13" fill="none" xmlns="http://www.w3.org/2000/svg">
<path fill-rule="evenodd" clip-rule="evenodd" d="M10.9187 0.648439C11.0617 0.648237 11.2034 0.675845 11.3358 0.729829C11.4684 0.783861 11.5892 0.863336 11.6911 0.963986C11.7931 1.06465 11.8741 1.18452 11.9293 1.31686C11.9843 1.44888 12.0125 1.59051 12.0119 1.73359L12.0119 4.83102C12.0119 4.83111 12.0119 4.83094 12.0119 4.83102C12.012 5.02413 11.9344 5.20839 11.7981 5.34344L11.7972 5.34436L5.50996 11.5311C5.30398 11.7328 5.02594 11.8455 4.73805 11.8455C4.45015 11.8455 4.17273 11.7334 3.96674 11.5317L0.972052 8.58377C0.766882 8.38082 0.649902 8.10417 0.649902 7.81507C0.649902 7.52597 0.766257 7.24994 0.971427 7.04698L7.2611 0.857108L7.26195 0.856272C7.39891 0.72238 7.5828 0.648368 7.77316 0.648439C7.77319 0.648439 7.77312 0.648439 7.77316 0.648439H10.9187ZM12.0119 1.73359C12.0119 1.73395 12.0119 1.73432 12.0119 1.73468L11.6536 1.7329L12.0119 1.73359ZM11.0658 1.39487C11.0196 1.37604 10.9699 1.36632 10.9196 1.36641L7.77316 1.36641C7.76813 1.3664 7.76424 1.36837 7.76244 1.37006C7.7624 1.3701 7.76248 1.37003 7.76244 1.37006L1.47482 7.55791C1.47472 7.55802 1.47493 7.55781 1.47482 7.55791C1.40486 7.62729 1.36643 7.72006 1.36643 7.81507C1.36643 7.91008 1.40454 8.00254 1.47452 8.07192C1.47462 8.07202 1.47442 8.07182 1.47452 8.07192L4.46758 11.0182C4.46767 11.0183 4.4675 11.0181 4.46758 11.0182C4.53836 11.0874 4.63563 11.1276 4.73805 11.1276C4.84042 11.1276 4.9374 11.0877 5.00816 11.0186C5.00828 11.0184 5.00805 11.0187 5.00816 11.0186L11.2942 4.83302C11.2942 4.83298 11.2942 4.83306 11.2942 4.83302C11.2949 4.83228 11.2953 4.83165 11.2954 4.83142V1.7329L11.2954 1.73111C11.2956 1.68414 11.2864 1.63744 11.2681 1.59363C11.2499 1.54981 11.2228 1.50956 11.1882 1.47536C11.1535 1.44115 11.112 1.41369 11.0658 1.39487Z" fill="white"/>
<path d="M9.60697 3.80748C9.44804 3.80748 9.29271 3.76109 9.16061 3.67421C9.02851 3.58732 8.92559 3.46385 8.86482 3.31944C8.80406 3.17503 8.78816 3.01614 8.81914 2.86286C8.85011 2.70957 8.92657 2.56873 9.03889 2.45817C9.15121 2.3476 9.29435 2.27228 9.45021 2.24176C9.60608 2.21124 9.76764 2.22691 9.91444 2.28677C10.0612 2.34662 10.1867 2.44797 10.2749 2.57796C10.3631 2.70795 10.4102 2.86074 10.4102 3.01702C10.4102 3.22659 10.3257 3.42762 10.175 3.57588C10.0244 3.72415 9.82008 3.80748 9.60697 3.80748Z" fill="white" stroke="white" stroke-width="0.03125"/>
<path fill-rule="evenodd" clip-rule="evenodd" d="M13.2917 1.85547C13.4896 1.85547 13.65 2.01619 13.65 2.21445V5.43578C13.6513 5.52991 13.6337 5.62325 13.5983 5.71035C13.5624 5.79876 13.5089 5.87874 13.4415 5.94569L13.4404 5.94678L6.7358 12.5466C6.59466 12.6856 6.36782 12.6835 6.22916 12.5421C6.0905 12.4007 6.09251 12.1734 6.23366 12.0344L12.9334 5.43943L12.9333 5.4388H12.9334V2.21445C12.9334 2.01619 13.0938 1.85547 13.2917 1.85547Z" fill="white"/>
</svg>
