<svg width="15" height="13" viewBox="0 0 15 13" fill="none" xmlns="http://www.w3.org/2000/svg">
<path d="M9.80114 0.8125H5.19886C5.06324 0.8125 4.93317 0.866376 4.83728 0.962275C4.74138 1.05817 4.6875 1.18824 4.6875 1.32386V5.92614C4.6875 6.06176 4.74138 6.19183 4.83728 6.28772C4.93317 6.38362 5.06324 6.4375 5.19886 6.4375H9.80114C9.93676 6.4375 10.0668 6.38362 10.1627 6.28772C10.2586 6.19183 10.3125 6.06176 10.3125 5.92614V1.32386C10.3125 1.18824 10.2586 1.05817 10.1627 0.962275C10.0668 0.866376 9.93676 0.8125 9.80114 0.8125Z" fill="white"/>
<rect x="10.3125" y="3.625" width="2.8125" height="0.9375" fill="white"/>
<rect width="2.8125" height="0.9375" transform="matrix(-1 0 0 1 4.6875 3.625)" fill="white"/>
<rect x="12.1875" y="4.5625" width="0.9375" height="2.8125" fill="white"/>
<rect width="0.9375" height="2.8125" transform="matrix(-1 0 0 1 2.8125 4.5625)" fill="white"/>
<path d="M5.11364 7.88636V12.4886H0.511364V7.88636H5.11364ZM5.11364 7.375H0.511364C0.375742 7.375 0.245674 7.42888 0.149775 7.52478C0.0538758 7.62067 0 7.75074 0 7.88636V12.4886C0 12.6243 0.0538758 12.7543 0.149775 12.8502C0.245674 12.9461 0.375742 13 0.511364 13H5.11364C5.24926 13 5.37933 12.9461 5.47522 12.8502C5.57112 12.7543 5.625 12.6243 5.625 12.4886V7.88636C5.625 7.75074 5.57112 7.62067 5.47522 7.52478C5.37933 7.42888 5.24926 7.375 5.11364 7.375Z" fill="white"/>
<path d="M14.4886 7.88636V12.4886H9.88636V7.88636H14.4886ZM14.4886 7.375H9.88636C9.75074 7.375 9.62067 7.42888 9.52478 7.52478C9.42888 7.62067 9.375 7.75074 9.375 7.88636V12.4886C9.375 12.6243 9.42888 12.7543 9.52478 12.8502C9.62067 12.9461 9.75074 13 9.88636 13H14.4886C14.6243 13 14.7543 12.9461 14.8502 12.8502C14.9461 12.7543 15 12.6243 15 12.4886V7.88636C15 7.75074 14.9461 7.62067 14.8502 7.52478C14.7543 7.42888 14.6243 7.375 14.4886 7.375Z" fill="white"/>
</svg>
