<svg width="12" height="12" viewBox="0 0 12 12" fill="none" xmlns="http://www.w3.org/2000/svg">
    <path d="M11.8381 6.29634L10.0837 4.9118C10.069 4.90025 10.0514 4.89307 10.0328 4.89109C10.0143 4.8891 9.9955 4.89238 9.97871 4.90056C9.96192 4.90874 9.94778 4.92149 9.9379 4.93733C9.92801 4.95318 9.9228 4.97149 9.92284 4.99017V5.87974H6.87053V2.82743H7.76148C7.84397 2.82743 7.89072 2.73118 7.83985 2.66656L6.45393 0.912171C6.44476 0.900299 6.43299 0.890688 6.41952 0.884075C6.40606 0.877462 6.39125 0.874023 6.37625 0.874023C6.36125 0.874023 6.34644 0.877462 6.33298 0.884075C6.31951 0.890688 6.30774 0.900299 6.29857 0.912171L4.91265 2.66656C4.90111 2.68124 4.89393 2.69888 4.89194 2.71745C4.88995 2.73602 4.89324 2.75477 4.90142 2.77156C4.9096 2.78835 4.92234 2.80249 4.93819 2.81237C4.95404 2.82226 4.97235 2.82747 4.99102 2.82743H5.88059V5.87974H2.82828V4.98879C2.82828 4.9063 2.73204 4.85955 2.66742 4.91042L0.913026 6.29634C0.901154 6.30551 0.891542 6.31728 0.884929 6.33075C0.878316 6.34421 0.874878 6.35902 0.874878 6.37402C0.874878 6.38902 0.878316 6.40383 0.884929 6.41729C0.891542 6.43076 0.901154 6.44253 0.913026 6.4517L2.66604 7.83762C2.73066 7.88849 2.82691 7.84312 2.82691 7.75925V6.86968H5.87922V9.92199H4.98827C4.90578 9.92199 4.85903 10.0182 4.9099 10.0829L6.29582 11.8359C6.33569 11.8867 6.41268 11.8867 6.45118 11.8359L7.8371 10.0829C7.88797 10.0182 7.8426 9.92199 7.75873 9.92199H6.87053V6.86968H9.92284V7.76062C9.92284 7.84312 10.0191 7.88986 10.0837 7.83899L11.8367 6.45308C11.8486 6.44378 11.8582 6.43194 11.8648 6.41843C11.8714 6.40492 11.8749 6.39009 11.8751 6.37504C11.8752 6.35999 11.872 6.3451 11.8656 6.33148C11.8592 6.31785 11.8498 6.30584 11.8381 6.29634Z" fill="white"/>
</svg>
