<svg width="85" height="35" viewBox="0 0 85 35" fill="none" xmlns="http://www.w3.org/2000/svg">
<path d="M15.5311 4.51237C14.5349 5.69458 12.941 6.62702 11.347 6.49382C11.1478 4.89534 11.9282 3.19696 12.8413 2.14795C13.8376 0.932445 15.5809 0.0666032 16.9922 0C17.1582 1.66508 16.5107 3.29686 15.5311 4.51237ZM16.9756 6.81018C14.6677 6.67697 12.6919 8.12559 11.5961 8.12559C10.4837 8.12559 8.8067 6.87678 6.98032 6.91009C4.60602 6.94339 2.39776 8.2921 1.18571 10.4401C-1.30481 14.736 0.538176 21.0966 2.94568 24.5932C4.12452 26.3249 5.53582 28.2231 7.39541 28.1565C9.15537 28.0899 9.85272 27.0076 11.978 27.0076C14.1198 27.0076 14.7341 28.1565 16.5937 28.1232C18.5197 28.0899 19.7318 26.3915 20.9106 24.6598C22.2555 22.6951 22.8034 20.7802 22.8366 20.6803C22.8034 20.647 19.1175 19.2317 19.0842 14.9691C19.051 11.4058 21.9899 9.70742 22.1227 9.60752C20.4623 7.1432 17.8722 6.87678 16.9756 6.81018ZM30.3082 1.98145V27.9401H34.3262V19.0652H39.8884C44.969 19.0652 48.5388 15.5685 48.5388 10.5067C48.5388 5.44481 45.0355 1.98145 40.0212 1.98145H30.3082V1.98145ZM34.3262 5.37821H38.9586C42.4453 5.37821 44.4377 7.2431 44.4377 10.5233C44.4377 13.8035 42.4453 15.6851 38.942 15.6851H34.3262V5.37821V5.37821ZM55.8775 28.1399C58.4012 28.1399 60.7423 26.8578 61.805 24.8264H61.888V27.9401H65.6072V15.019C65.6072 11.2726 62.6185 8.85823 58.0194 8.85823C53.7523 8.85823 50.5976 11.3059 50.4814 14.6694H54.1009C54.3998 13.0709 55.8775 12.0219 57.9031 12.0219C60.3605 12.0219 61.7385 13.1708 61.7385 15.2854V16.7174L56.7243 17.0171C52.0587 17.3002 49.535 19.215 49.535 22.5452C49.535 25.9087 52.1417 28.1399 55.8775 28.1399ZM56.9567 25.0595C54.8149 25.0595 53.4534 24.0271 53.4534 22.4453C53.4534 20.8135 54.7651 19.8644 57.2722 19.7146L61.7385 19.4315V20.8968C61.7385 23.3278 59.6797 25.0595 56.9567 25.0595ZM70.5716 35C74.49 35 76.333 33.5014 77.9435 28.9558L85 9.10799H80.9155L76.1836 24.4434H76.1005L71.3686 9.10799H67.1679L73.9753 28.0067L73.61 29.1556C72.9957 31.1037 71.9995 31.853 70.2229 31.853C69.9074 31.853 69.2931 31.8197 69.0441 31.7864V34.9001C69.2765 34.9667 70.2727 35 70.5716 35Z" fill="#9DCCFF"/>
</svg>
