<svg width="1920" height="465" viewBox="0 0 1920 465" fill="none" xmlns="http://www.w3.org/2000/svg">
<g opacity="0.3">
<g opacity="0.6">
<rect opacity="0.2" width="18" height="18" transform="matrix(-1 0 0 1 1515 88)" fill="white"/>
<rect opacity="0.2" width="18" height="18" transform="matrix(-1 0 0 1 1608 92)" fill="white"/>
<rect opacity="0.2" width="18" height="18" transform="matrix(-1 0 0 1 1831 57)" fill="white"/>
<rect opacity="0.3" width="15" height="15" transform="matrix(-1 0 0 1 1672 52)" fill="white"/>
<rect opacity="0.1" width="15" height="15" transform="matrix(-1 0 0 1 1728 93)" fill="white"/>
<rect opacity="0.1" width="15" height="15" transform="matrix(-1 0 0 1 1758 0)" fill="white"/>
<rect opacity="0.1" width="10" height="10" transform="matrix(-1 0 0 1 1445 121)" fill="white"/>
<rect opacity="0.3" width="10" height="10" transform="matrix(-1 0 0 1 1388 107)" fill="white"/>
<rect opacity="0.1" width="10" height="10" transform="matrix(-1 0 0 1 1567 70)" fill="white"/>
</g>
<g opacity="0.6">
<rect opacity="0.2" x="406" y="88" width="18" height="18" fill="white"/>
<rect opacity="0.2" x="313" y="92" width="18" height="18" fill="white"/>
<rect opacity="0.2" x="90" y="57" width="18" height="18" fill="white"/>
<rect opacity="0.3" x="249" y="52" width="15" height="15" fill="white"/>
<rect opacity="0.1" x="193" y="93" width="15" height="15" fill="white"/>
<rect opacity="0.1" x="163" width="15" height="15" fill="white"/>
<rect opacity="0.1" x="476" y="121" width="10" height="10" fill="white"/>
<rect opacity="0.3" x="533" y="107" width="10" height="10" fill="white"/>
<rect opacity="0.1" x="354" y="70" width="10" height="10" fill="white"/>
</g>
<rect opacity="0.8" x="145" y="363" width="30" height="30" fill="white"/>
<rect opacity="0.8" x="-7" y="318" width="30" height="30" fill="white"/>
<rect opacity="0.8" x="232" y="420" width="30" height="30" fill="white"/>
<rect opacity="0.8" x="41" y="384" width="18" height="18" fill="white"/>
<rect opacity="0.2" x="96" y="348" width="30" height="30" fill="white"/>
<rect opacity="0.2" x="161" y="420" width="18" height="18" fill="white"/>
<rect opacity="0.2" x="381" y="420" width="30" height="30" fill="white"/>
<rect opacity="0.2" x="448" y="450" width="30" height="30" fill="white"/>
<rect opacity="0.2" x="530" y="414" width="18" height="18" fill="white"/>
<rect opacity="0.1" x="580" y="445" width="10" height="10" fill="white"/>
<rect opacity="0.5" x="190" y="333" width="30" height="30" fill="white"/>
<rect opacity="0.5" x="313" y="442" width="30" height="30" fill="white"/>
<rect opacity="0.5" x="238" y="376" width="18" height="18" fill="white"/>
<rect opacity="0.5" x="69" y="441" width="18" height="18" fill="white"/>
<rect opacity="0.2" x="-17" y="426" width="30" height="30" fill="white"/>
<rect opacity="0.8" width="30" height="30" transform="matrix(-1 0 0 1 1775 363)" fill="white"/>
<rect opacity="0.8" width="30" height="30" transform="matrix(-1 0 0 1 1927 318)" fill="white"/>
<rect opacity="0.8" width="30" height="30" transform="matrix(-1 0 0 1 1688 420)" fill="white"/>
<rect opacity="0.8" width="18" height="18" transform="matrix(-1 0 0 1 1879 384)" fill="white"/>
<rect opacity="0.2" width="30" height="30" transform="matrix(-1 0 0 1 1824 348)" fill="white"/>
<rect opacity="0.2" width="18" height="18" transform="matrix(-1 0 0 1 1759 420)" fill="white"/>
<rect opacity="0.2" width="30" height="30" transform="matrix(-1 0 0 1 1539 420)" fill="white"/>
<rect opacity="0.2" width="30" height="30" transform="matrix(-1 0 0 1 1472 450)" fill="white"/>
<rect opacity="0.2" width="18" height="18" transform="matrix(-1 0 0 1 1390 414)" fill="white"/>
<rect opacity="0.1" width="10" height="10" transform="matrix(-1 0 0 1 1340 445)" fill="white"/>
<rect opacity="0.5" width="30" height="30" transform="matrix(-1 0 0 1 1730 333)" fill="white"/>
<rect opacity="0.5" width="30" height="30" transform="matrix(-1 0 0 1 1607 442)" fill="white"/>
<rect opacity="0.5" width="18" height="18" transform="matrix(-1 0 0 1 1682 376)" fill="white"/>
<rect opacity="0.5" width="18" height="18" transform="matrix(-1 0 0 1 1851 441)" fill="white"/>
<rect opacity="0.2" width="30" height="30" transform="matrix(-1 0 0 1 1937 426)" fill="white"/>
</g>
</svg>
