<svg width="36" height="26" viewBox="0 0 36 26" fill="none" xmlns="http://www.w3.org/2000/svg">
<path fill-rule="evenodd" clip-rule="evenodd" d="M0.667969 4.33333C0.667969 3.18406 1.12452 2.08186 1.93717 1.2692C2.74983 0.456546 3.85203 0 5.0013 0H31.0013C32.1506 0 33.2528 0.456546 34.0654 1.2692C34.8781 2.08186 35.3346 3.18406 35.3346 4.33333V21.6667C35.3346 22.8159 34.8781 23.9181 34.0654 24.7308C33.2528 25.5435 32.1506 26 31.0013 26H5.0013C3.85203 26 2.74983 25.5435 1.93717 24.7308C1.12452 23.9181 0.667969 22.8159 0.667969 21.6667V4.33333ZM5.0013 2.16667C4.42667 2.16667 3.87557 2.39494 3.46924 2.80127C3.06291 3.2076 2.83464 3.7587 2.83464 4.33333V6.5H33.168V4.33333C33.168 3.7587 32.9397 3.2076 32.5334 2.80127C32.127 2.39494 31.5759 2.16667 31.0013 2.16667H5.0013ZM33.168 10.8333H2.83464V21.6667C2.83464 22.2413 3.06291 22.7924 3.46924 23.1987C3.87557 23.6051 4.42667 23.8333 5.0013 23.8333H31.0013C31.5759 23.8333 32.127 23.6051 32.5334 23.1987C32.9397 22.7924 33.168 22.2413 33.168 21.6667V10.8333Z" fill="#9DCCFF"/>
<path d="M5.00195 17.3346C5.00195 16.76 5.23023 16.2089 5.63656 15.8026C6.04288 15.3962 6.59398 15.168 7.16862 15.168H9.33529C9.90992 15.168 10.461 15.3962 10.8674 15.8026C11.2737 16.2089 11.502 16.76 11.502 17.3346V19.5013C11.502 20.0759 11.2737 20.627 10.8674 21.0334C10.461 21.4397 9.90992 21.668 9.33529 21.668H7.16862C6.59398 21.668 6.04288 21.4397 5.63656 21.0334C5.23023 20.627 5.00195 20.0759 5.00195 19.5013V17.3346Z" fill="#9DCCFF"/>
</svg>
