<svg width="27" height="23" viewBox="0 0 27 23" fill="none" xmlns="http://www.w3.org/2000/svg">
<path fill-rule="evenodd" clip-rule="evenodd" d="M2.7 1.76923C2.20294 1.76923 1.8 2.16529 1.8 2.65385V16.8077C1.8 17.2963 2.20294 17.6923 2.7 17.6923H24.3C24.7971 17.6923 25.2 17.2963 25.2 16.8077V2.65385C25.2 2.16529 24.7971 1.76923 24.3 1.76923H2.7ZM0 2.65385C0 1.18817 1.20883 0 2.7 0H24.3C25.7912 0 27 1.18817 27 2.65385V16.8077C27 18.2734 25.7912 19.4615 24.3 19.4615H2.7C1.20883 19.4615 0 18.2734 0 16.8077V2.65385Z" fill="#9DCCFF"/>
<path d="M16.2008 22.1166L15.7508 18.5781H11.2508L10.8008 22.1166H16.2008Z" fill="#9DCCFF"/>
<path fill-rule="evenodd" clip-rule="evenodd" d="M6.29883 22.1151C6.29883 21.6265 6.70177 21.2305 7.19883 21.2305H19.7988C20.2959 21.2305 20.6988 21.6265 20.6988 22.1151C20.6988 22.6036 20.2959 22.9997 19.7988 22.9997H7.19883C6.70177 22.9997 6.29883 22.6036 6.29883 22.1151Z" fill="#9DCCFF"/>
<path d="M0.900391 14.1523V16.8062C0.901727 17.275 1.0918 17.7243 1.42907 18.0558C1.76635 18.3873 2.22341 18.5741 2.70039 18.5754H24.3004C24.7774 18.5741 25.2344 18.3873 25.5717 18.0558C25.909 17.7243 26.0991 17.275 26.1004 16.8062V14.1523H0.900391ZM13.5004 17.6908C13.3224 17.6908 13.1484 17.6389 13.0004 17.5417C12.8524 17.4445 12.737 17.3064 12.6689 17.1447C12.6008 16.9831 12.583 16.8052 12.6177 16.6336C12.6524 16.462 12.7381 16.3044 12.864 16.1807C12.9899 16.057 13.1502 15.9727 13.3248 15.9386C13.4994 15.9044 13.6804 15.922 13.8448 15.9889C14.0093 16.0559 14.1498 16.1692 14.2487 16.3147C14.3476 16.4602 14.4004 16.6312 14.4004 16.8062C14.4004 17.0408 14.3056 17.2658 14.1368 17.4317C13.968 17.5976 13.7391 17.6908 13.5004 17.6908Z" fill="#9DCCFF"/>
</svg>
