<svg width="276" height="220" viewBox="0 0 276 220" fill="none" xmlns="http://www.w3.org/2000/svg">
<path fill-rule="evenodd" clip-rule="evenodd" d="M212.509 73.3288C247.886 78.3597 275.005 109.011 275.005 145.953C275.005 186.393 242.502 219.301 202.253 219.301C199.764 219.301 197.301 219.174 194.872 218.927H80.133C77.7039 219.174 75.2416 219.301 72.7527 219.301C32.5037 219.301 0 186.393 0 145.953C0 110.711 24.6733 81.2039 57.6585 74.1873C59.7233 32.9261 93.5447 0 135.108 0C176.382 0 210.022 32.4703 212.509 73.3288ZM79.7154 210.927C77.428 211.174 75.105 211.301 72.7527 211.301C36.9908 211.301 8 182.044 8 145.953C8 112.298 33.2107 84.5846 65.6133 80.9981C65.577 80.066 65.5586 79.1293 65.5586 78.1882C65.5586 39.4243 96.6968 8 135.108 8C173.519 8 204.657 39.4243 204.657 78.1882C204.657 79.0116 204.643 79.8316 204.615 80.6481C239.283 81.9028 267.005 110.661 267.005 145.953C267.005 182.044 238.015 211.301 202.253 211.301C199.9 211.301 197.577 211.174 195.29 210.927H79.7154Z" fill="white"/>
</svg>
