<svg width="268" height="219" viewBox="0 0 268 219" fill="none" xmlns="http://www.w3.org/2000/svg">
<path d="M130.505 148.164H68.1523V210.996H130.505V148.164Z" fill="#61A6F2"/>
<mask id="mask0" mask-type="alpha" maskUnits="userSpaceOnUse" x="0" y="80" width="131" height="131">
<ellipse cx="65.7474" cy="145.745" rx="64.7513" ry="65.2489" fill="#C4C4C4"/>
</mask>
<g mask="url(#mask0)">
<path d="M68.1456 80.4961H0.996094V148.162H68.1456V80.4961Z" fill="#CCE4FF"/>
<path d="M130.502 80.4961H68.1484V148.162H130.502V80.4961Z" fill="#80BCFF"/>
<path d="M68.1456 148.152H0.996094V210.985H68.1456V148.152Z" fill="#99C9FF"/>
</g>
<mask id="mask1" mask-type="alpha" maskUnits="userSpaceOnUse" x="58" y="8" width="140" height="141">
<ellipse cx="128.099" cy="78.0822" rx="69.5477" ry="70.0822" fill="#C4C4C4"/>
</mask>
<g mask="url(#mask1)">
<path d="M130.67 7.99609H58.5469V80.6739H130.67V7.99609Z" fill="#CCEEFF"/>
<path d="M197.638 7.99609H130.666V80.6739H197.638V7.99609Z" fill="#80D4FF"/>
<path d="M130.67 80.6797H58.5469V148.166H130.67V80.6797Z" fill="#99DDFF"/>
<path d="M197.638 80.6797H130.666V148.166H197.638V80.6797Z" fill="#61C2F2"/>
</g>
<path d="M197.653 148.164H130.504V210.996H197.653V148.164Z" fill="#99C9FF"/>
<mask id="mask2" mask-type="alpha" maskUnits="userSpaceOnUse" x="130" y="80" width="130" height="131">
<ellipse cx="195.245" cy="145.745" rx="64.7513" ry="65.2489" fill="#C4C4C4"/>
</mask>
<g mask="url(#mask2)">
<path d="M197.644 80.4961H130.494V148.162H197.644V80.4961Z" fill="#CCE4FF"/>
<path d="M260.009 80.4961H197.656V148.162H260.009V80.4961Z" fill="#80BCFF"/>
<path d="M260.004 148.152H197.65V210.985H260.004V148.152Z" fill="#61A6F2"/>
</g>
<path fill-rule="evenodd" clip-rule="evenodd" d="M92.1279 46.6719C92.1279 68.2755 108.502 85.3379 128.101 85.3379C147.699 85.3379 164.074 68.2755 164.074 46.6719H173.667C173.667 73.0861 153.507 95.0044 128.101 95.0044C102.695 95.0044 82.5352 73.0861 82.5352 46.6719H92.1279Z" fill="white"/>
<path d="M205.445 73.2283C240.855 78.2522 268 108.862 268 145.753C268 186.137 235.466 219 195.179 219C192.687 219 190.223 218.874 187.791 218.627H72.9441V210.638H188.21C190.499 210.885 192.824 211.011 195.179 211.011C230.974 211.011 259.992 181.794 259.992 145.753C259.992 110.509 232.244 81.7905 197.543 80.5376C197.571 79.7222 197.585 78.9032 197.585 78.081C197.585 39.3703 166.418 7.98903 127.971 7.98903C89.5235 7.98903 58.3559 39.3703 58.3559 78.081C58.3559 79.0208 58.3743 79.9563 58.4107 80.8871C55.5469 81.2033 52.7392 81.7074 50 82.3869L50.4484 74.0856C52.5151 32.8809 86.3684 0 127.971 0C169.284 0 202.956 32.4258 205.445 73.2283Z" fill="white"/>
</svg>
