<svg width="276" height="220" viewBox="0 0 276 220" fill="none" xmlns="http://www.w3.org/2000/svg">
<path d="M137.509 148.164H75.1562V210.996H137.509V148.164Z" fill="#61A6F2"/>
<mask id="mask0" mask-type="alpha" maskUnits="userSpaceOnUse" x="8" y="80" width="130" height="131">
<ellipse cx="72.7513" cy="145.745" rx="64.7513" ry="65.2489" fill="#C4C4C4"/>
</mask>
<g mask="url(#mask0)">
<path d="M75.1495 80.4961H8V148.162H75.1495V80.4961Z" fill="#CCE4FF"/>
<path d="M137.505 80.4961H75.1523V148.162H137.505V80.4961Z" fill="#80BCFF"/>
<path d="M75.1495 148.152H8V210.985H75.1495V148.152Z" fill="#99C9FF"/>
</g>
<mask id="mask1" mask-type="alpha" maskUnits="userSpaceOnUse" x="65" y="8" width="140" height="141">
<ellipse cx="135.102" cy="78.0822" rx="69.5477" ry="70.0822" fill="#C4C4C4"/>
</mask>
<g mask="url(#mask1)">
<path d="M137.674 7.99609H65.5508V80.6739H137.674V7.99609Z" fill="#CCEEFF"/>
<path d="M204.64 7.99609H137.668V80.6739H204.64V7.99609Z" fill="#80D4FF"/>
<path d="M137.674 80.6797H65.5508V148.166H137.674V80.6797Z" fill="#99DDFF"/>
<path d="M204.64 80.6797H137.668V148.166H204.64V80.6797Z" fill="#61C2F2"/>
</g>
<path d="M204.657 148.164H137.508V210.996H204.657V148.164Z" fill="#99C9FF"/>
<mask id="mask2" mask-type="alpha" maskUnits="userSpaceOnUse" x="137" y="80" width="130" height="131">
<ellipse cx="202.247" cy="145.745" rx="64.7513" ry="65.2489" fill="#C4C4C4"/>
</mask>
<g mask="url(#mask2)">
<path d="M204.646 80.4961H137.496V148.162H204.646V80.4961Z" fill="#CCE4FF"/>
<path d="M267.009 80.4961H204.656V148.162H267.009V80.4961Z" fill="#80BCFF"/>
<path d="M267.005 148.152H204.652V210.985H267.005V148.152Z" fill="#61A6F2"/>
</g>
<path fill-rule="evenodd" clip-rule="evenodd" d="M99.1318 46.6719C99.1318 68.2755 115.506 85.3379 135.105 85.3379C154.703 85.3379 171.078 68.2755 171.078 46.6719H180.671C180.671 73.0861 160.511 95.0044 135.105 95.0044C109.699 95.0044 89.5391 73.0861 89.5391 46.6719H99.1318Z" fill="white"/>
<path fill-rule="evenodd" clip-rule="evenodd" d="M212.509 73.3288C247.886 78.3597 275.005 109.011 275.005 145.953C275.005 186.393 242.502 219.301 202.253 219.301C199.764 219.301 197.301 219.174 194.872 218.927H80.133C77.7039 219.174 75.2416 219.301 72.7527 219.301C32.5037 219.301 0 186.393 0 145.953C0 110.711 24.6733 81.2039 57.6585 74.1873C59.7233 32.9261 93.5447 0 135.108 0C176.382 0 210.022 32.4703 212.509 73.3288ZM79.7154 210.927C77.428 211.174 75.105 211.301 72.7527 211.301C36.9908 211.301 8 182.044 8 145.953C8 112.298 33.2107 84.5846 65.6133 80.9981C65.5769 80.066 65.5586 79.1293 65.5586 78.1882C65.5586 39.4243 96.6968 8 135.108 8C173.519 8 204.657 39.4243 204.657 78.1882C204.657 79.0116 204.643 79.8316 204.615 80.6481C239.283 81.9028 267.005 110.661 267.005 145.953C267.005 182.044 238.015 211.301 202.253 211.301C199.9 211.301 197.577 211.174 195.29 210.927H79.7154Z" fill="white"/>
</svg>
