<svg width="117" height="36" viewBox="0 0 117 36" fill="none" xmlns="http://www.w3.org/2000/svg">
<path d="M17.8454 0.152344C7.99693 0.152344 0 8.13824 0 17.9985C0 27.8588 7.98557 35.8447 17.8454 35.8447C27.7053 35.8447 35.6909 27.8588 35.6909 17.9985C35.6909 8.13824 27.7053 0.152344 17.8454 0.152344ZM17.8454 33.8794C9.07607 33.8794 1.96516 26.7682 1.96516 17.9985C1.96516 9.22878 9.07607 2.11758 17.8454 2.11758C26.6148 2.11758 33.7257 9.22878 33.7257 17.9985C33.7257 26.7682 26.6148 33.8794 17.8454 33.8794Z" fill="white"/>
<path d="M24.0845 13.9441L20.1088 19.8398H24.0845V13.9441ZM25.584 11.5586V19.8512H27.3333V21.3507H25.584V24.4519H24.0732V21.3507H18.4503V19.7376L24.1186 11.57H25.584V11.5586ZM16.7919 22.9411V24.4405H8.36328V24.3951C8.4428 22.9865 8.80629 21.9528 9.51057 21.1008C10.0785 20.3965 10.7714 19.8739 12.1914 18.9879C12.1914 18.9879 12.6912 18.6698 12.8388 18.5789C13.5999 18.0904 14.0884 17.7042 14.4859 17.2612C14.9744 16.6932 15.2243 16.0798 15.2243 15.3527C15.2243 13.9441 14.2247 12.9786 12.7934 12.9786C11.1236 12.9786 10.2716 14.2509 10.2262 16.1479V16.182H8.72678V16.1479L8.71542 15.8071C8.71542 13.2626 10.3739 11.5586 12.8729 11.5586C15.3152 11.5586 16.9055 13.0354 16.9055 15.3187C16.9055 16.4887 16.4852 17.4316 15.6787 18.2608C15.0766 18.897 14.4519 19.3173 13.0547 20.1693C13.0319 20.1806 13.0206 20.192 12.9979 20.2034C12.9297 20.2374 12.623 20.4192 12.5435 20.476C11.8733 20.8736 11.4644 21.1576 11.1009 21.4984C10.6579 21.9187 10.3625 22.3844 10.2262 22.9297H16.7919V22.9411Z" fill="white"/>
<path d="M44.9141 10.8086H50.855C52.3317 10.8086 53.4903 11.1607 54.3423 11.8537C55.1942 12.558 55.6259 13.5917 55.6259 14.9776C55.6259 16.284 55.2283 17.3177 54.4331 18.0788C53.638 18.8399 52.5589 19.2262 51.1844 19.2262H47.3222V24.4971H44.9141V10.8086ZM47.3222 12.8193V17.3064H50.6732C52.4225 17.3064 53.2859 16.5566 53.2859 15.0571C53.2859 13.569 52.343 12.8306 50.4574 12.8306H47.3222V12.8193Z" fill="white"/>
<path d="M62.7577 14.3853V16.4868C62.3715 16.4528 62.1216 16.43 61.9853 16.43C60.0769 16.43 59.1228 17.6682 59.1228 20.1447V24.5068H56.9531V14.5784H59.0092V16.555C59.7134 15.0782 60.8266 14.3398 62.3374 14.3398L62.7577 14.3853Z" fill="white"/>
<path d="M66.3369 10.75V12.9084H64.1445V10.75H66.3369ZM66.3369 14.5782V24.5066H64.1445V14.5782H66.3369Z" fill="white"/>
<path d="M67.8945 14.5781H70.28L72.8245 22.2119L75.2667 14.5781H77.5386L73.9831 24.5293H71.5181L67.8945 14.5781Z" fill="white"/>
<path d="M78.2871 17.6476C78.5143 15.3984 79.9683 14.2852 82.6377 14.2852C83.8759 14.2852 84.8755 14.5237 85.6139 15.0122C86.3522 15.5006 86.7157 16.2618 86.7157 17.2841V22.3165C86.7157 22.6005 86.7498 22.7936 86.8179 22.8958C86.8861 22.9981 87.0224 23.0549 87.2269 23.0549C87.3859 23.0549 87.5449 23.0435 87.7267 23.0208V24.5657C87.1587 24.702 86.693 24.7816 86.3068 24.7816C85.3753 24.7816 84.8301 24.384 84.6938 23.5888C83.8645 24.384 82.6945 24.7816 81.2065 24.7816C80.1841 24.7816 79.3663 24.5203 78.7642 23.9864C78.1622 23.4525 77.8555 22.7368 77.8555 21.8167C77.8555 21.5327 77.8895 21.2714 77.9463 21.0328C78.0145 20.7943 78.0827 20.5785 78.1735 20.3967C78.253 20.2149 78.3894 20.0559 78.5825 19.8969C78.7642 19.7378 78.9232 19.6129 79.0482 19.5106C79.1731 19.4084 79.3663 19.3175 79.6502 19.2266C79.9229 19.1358 80.1273 19.0676 80.2636 19.0222C80.3999 18.9767 80.6271 18.9313 80.9679 18.8745C81.2973 18.8291 81.5245 18.7836 81.6268 18.7723C81.7403 18.7495 81.9675 18.7268 82.3083 18.6814C83.0921 18.5791 83.626 18.4883 83.91 18.4201C84.1939 18.3519 84.3871 18.2383 84.4893 18.102C84.5802 17.9998 84.6256 17.7612 84.6256 17.3864C84.6256 16.3867 83.944 15.8869 82.5809 15.8869C81.8653 15.8869 81.3428 16.0232 81.002 16.2958C80.6726 16.5685 80.4567 17.0229 80.3659 17.659H78.2871V17.6476ZM84.5915 19.5334C84.4211 19.6242 84.228 19.7038 84.0122 19.7719C83.7964 19.8401 83.6146 19.8855 83.4783 19.9082C83.342 19.9309 83.1375 19.9537 82.8422 19.9991C82.5582 20.0332 82.3651 20.0673 82.2742 20.0786C82.0016 20.1127 81.7971 20.1581 81.6381 20.1809C81.4791 20.2149 81.2973 20.2717 81.0701 20.3399C80.843 20.4194 80.6726 20.5103 80.5476 20.6239C80.4227 20.7375 80.3204 20.8852 80.2296 21.0669C80.1387 21.2487 80.0932 21.4759 80.0932 21.7258C80.0932 22.2029 80.2523 22.5664 80.559 22.8163C80.877 23.0776 81.3087 23.2026 81.8767 23.2026C82.8536 23.2026 83.6033 22.9413 84.1258 22.4187C84.4211 22.1234 84.5688 21.5554 84.5688 20.7034V19.5334H84.5915Z" fill="white"/>
<path d="M94.0219 14.5775V16.1792H92.0227V21.4047C92.0227 21.7114 92.034 21.9272 92.0454 22.0522C92.0568 22.1771 92.0908 22.3134 92.159 22.4611C92.2271 22.6088 92.3407 22.711 92.4998 22.7565C92.6588 22.8133 92.886 22.836 93.1586 22.836C93.5221 22.836 93.8061 22.8246 94.0219 22.8019V24.5286C93.5903 24.574 93.0904 24.6081 92.5452 24.6081C92.159 24.6081 91.8182 24.574 91.5342 24.5172C91.2502 24.4604 91.0003 24.3923 90.8072 24.3128C90.6141 24.2332 90.4551 24.1083 90.3301 23.9152C90.2052 23.7334 90.103 23.5744 90.0348 23.4494C89.9666 23.3245 89.9098 23.1086 89.8758 22.8019C89.8417 22.4952 89.8303 22.2566 89.8303 22.0976C89.8303 21.9386 89.8303 21.6546 89.8303 21.257C89.8303 21.2115 89.8303 21.1661 89.8303 21.132C89.8303 21.0979 89.8303 21.0639 89.8303 21.0184C89.8303 20.973 89.8303 20.9276 89.8303 20.8935V16.1792H88.1719V14.5775H89.8303V11.5898H92.0227V14.5775H94.0219Z" fill="white"/>
<path d="M105.553 22.5649V24.5074H96.3633C96.3746 23.9053 96.4542 23.3487 96.6132 22.8489C96.7722 22.3491 96.9426 21.9174 97.1471 21.5652C97.3402 21.2131 97.6355 20.8496 98.0331 20.4861C98.4193 20.1225 98.7714 19.8158 99.0895 19.5773C99.4076 19.3387 99.8392 19.032 100.384 18.6685C100.419 18.6458 100.612 18.5208 100.952 18.2936C101.293 18.0664 101.498 17.9301 101.577 17.8733C101.657 17.8165 101.827 17.6802 102.1 17.4644C102.372 17.2485 102.543 17.0781 102.634 16.9532C102.713 16.8282 102.827 16.6465 102.974 16.4306C103.122 16.2148 103.224 15.9876 103.27 15.7718C103.315 15.5446 103.349 15.306 103.349 15.0561C103.349 14.3518 103.156 13.7952 102.759 13.3976C102.372 12.9886 101.838 12.7955 101.168 12.7955C100.782 12.7955 100.453 12.8523 100.169 12.9773C99.8847 13.1022 99.6688 13.2613 99.5098 13.443C99.3508 13.6361 99.2145 13.886 99.1122 14.1814C99.01 14.4881 98.9418 14.7721 98.9078 15.0334C98.8737 15.306 98.851 15.6127 98.8396 15.9762H96.7041V15.6354C96.7041 14.1814 97.113 13.0341 97.9309 12.1821C98.7487 11.3301 99.8506 10.8984 101.225 10.8984C102.531 10.8984 103.588 11.2619 104.383 12.0003C105.178 12.7387 105.576 13.7157 105.576 14.9311C105.576 15.4196 105.496 15.8854 105.348 16.317C105.189 16.7487 105.03 17.1009 104.86 17.3735C104.69 17.6461 104.383 17.9528 103.963 18.3163C103.542 18.6799 103.224 18.9298 103.02 19.0661C102.815 19.2024 102.44 19.4637 101.884 19.8386C100.282 20.8723 99.3167 21.7811 98.9986 22.5535H105.553V22.5649Z" fill="white"/>
<path d="M116.002 19.4648V21.3164H114.287V24.5085H112.174L112.151 21.3164H106.438V19.1467L112.208 10.9336H114.287V19.4761H116.002V19.4648ZM112.185 19.4648V13.6372L108.244 19.4648H112.185Z" fill="white"/>
</svg>
