<svg width="25" height="25" viewBox="0 0 25 25" fill="none" xmlns="http://www.w3.org/2000/svg">
<path d="M17.0187 0.725546C16.0522 -0.241849 14.3698 -0.241849 13.4033 0.725546L0.748088 13.3925C0.269062 13.8726 0 14.5234 0 15.2019C0 15.8804 0.269062 16.5312 0.748088 17.0113L7.9802 24.2501C8.46344 24.7338 9.10522 25 9.7879 25C10.4706 25 11.1124 24.7338 11.5956 24.2501L24.2508 11.5831C24.7341 11.0995 25 10.4571 25 9.77376C25 9.09044 24.7341 8.44807 24.2508 7.96438L17.0187 0.725546ZM9.7879 22.4408V23.7204V22.4408L2.5558 15.2019L15.211 2.53493L22.4431 9.77376L9.7879 22.4408Z" fill="#9DCCFF"/>
<path d="M8.6632 17.6061C9.36926 17.6061 9.94164 17.0332 9.94164 16.3265C9.94164 15.6198 9.36926 15.0469 8.6632 15.0469C7.95714 15.0469 7.38477 15.6198 7.38477 16.3265C7.38477 17.0332 7.95714 17.6061 8.6632 17.6061Z" fill="#9DCCFF"/>
<path d="M17.2393 24.909L15.4316 23.0996L23.1023 15.4219L24.91 17.2325L17.2393 24.909Z" fill="#9DCCFF"/>
<path d="M7.76045 0.0664062L9.56816 1.87579L1.89755 9.55353L0.0898438 7.74287L7.76045 0.0664062Z" fill="#9DCCFF"/>
</svg>
