<svg width="29" height="28" viewBox="0 0 29 28" fill="none" xmlns="http://www.w3.org/2000/svg">
<path d="M13.9654 13.9676C16.3513 13.9676 18.0826 12.7911 18.9723 10.5654C19.6551 8.85716 19.7472 6.8421 19.7472 5.09623C19.7472 1.90514 17.5858 0 13.9654 0C10.345 0 8.18359 1.90508 8.18359 5.09623C8.18359 6.8421 8.27569 8.85716 8.95845 10.5654C9.84816 12.7911 11.5795 13.9676 13.9654 13.9676Z" fill="#9DCCFF"/>
<path d="M16.1065 15.4766H11.7818C7.64054 15.4766 4.27148 18.847 4.27148 22.9898V23.5033C4.27148 25.9825 6.2876 27.9994 8.76586 27.9994H19.1225C21.6007 27.9994 23.6168 25.9825 23.6168 23.5033V22.9898C23.6168 18.847 20.2477 15.4766 16.1065 15.4766Z" fill="#9DCCFF"/>
<path d="M21.4957 5.10047C21.4957 8.0116 21.2057 11.2033 19.2734 13.4293C19.7553 13.6185 20.2954 13.7154 20.8894 13.7154C22.6967 13.7154 24.008 12.8245 24.6817 11.1389C25.1828 9.88544 25.2503 8.42386 25.2503 7.1594C25.2503 4.94125 23.8428 3.43672 21.2932 3.29688C21.4272 3.86364 21.4957 4.46646 21.4957 5.10047Z" fill="#9DCCFF"/>
<path d="M7.13632 13.7168C7.69974 13.7168 8.21487 13.6302 8.67761 13.46C6.72034 11.231 6.43026 8.00995 6.43026 5.10193C6.43026 4.47033 6.4983 3.86965 6.6313 3.30469C4.28048 3.46861 2.77539 4.84654 2.77539 7.16081C2.77539 8.42521 2.84293 9.88685 3.34396 11.1404C4.01774 12.8259 5.32906 13.7168 7.13632 13.7168Z" fill="#9DCCFF"/>
<path d="M2.52337 22.9918C2.52337 19.6172 4.33654 16.6587 7.0393 15.0391H5.58884C2.50719 15.0391 0 17.5472 0 20.6302V20.9949C0 22.596 1.09671 23.9456 2.57807 24.3316C2.51309 23.842 2.52337 23.543 2.52337 22.9918Z" fill="#9DCCFF"/>
<path d="M22.4125 15.0391H20.8535C23.5559 16.6588 25.3686 19.6176 25.3686 22.9918C25.3686 23.5378 25.3797 23.8511 25.3102 24.3582C26.8483 24.0128 28.0014 22.6365 28.0014 20.9949V20.6302C28.0014 17.5472 25.4942 15.0391 22.4125 15.0391Z" fill="#9DCCFF"/>
</svg>
