<svg width="823" height="220" viewBox="0 0 823 220" fill="none" xmlns="http://www.w3.org/2000/svg">
<g opacity="0.2">
<rect opacity="0.8" width="40.6755" height="40.6755" transform="matrix(-1 0 0 1 603.354 61.3633)" fill="white"/>
<rect opacity="0.8" width="40.6755" height="40.6755" transform="matrix(-1 0 0 1 809.441 0.351562)" fill="white"/>
<rect opacity="0.8" width="40.6755" height="40.6755" transform="matrix(-1 0 0 1 485.395 138.648)" fill="white"/>
<rect opacity="0.8" width="24.4053" height="24.4053" transform="matrix(-1 0 0 1 744.361 89.8359)" fill="white"/>
<rect opacity="0.2" width="40.6755" height="40.6755" transform="matrix(-1 0 0 1 669.789 41.0273)" fill="white"/>
<rect opacity="0.2" width="24.4053" height="24.4053" transform="matrix(-1 0 0 1 581.658 138.648)" fill="white"/>
<rect opacity="0.2" width="40.6755" height="40.6755" transform="matrix(-1 0 0 1 283.373 138.648)" fill="white"/>
<rect opacity="0.2" width="40.6755" height="40.6755" transform="matrix(-1 0 0 1 192.531 179.324)" fill="white"/>
<rect opacity="0.2" width="24.4053" height="24.4053" transform="matrix(-1 0 0 1 81.3516 130.512)" fill="white"/>
<rect opacity="0.1" width="13.5585" height="13.5585" transform="matrix(-1 0 0 1 13.5586 172.543)" fill="white"/>
<rect opacity="0.5" width="40.6755" height="40.6755" transform="matrix(-1 0 0 1 542.34 20.6875)" fill="white"/>
<rect opacity="0.5" width="40.6755" height="40.6755" transform="matrix(-1 0 0 1 375.57 168.477)" fill="white"/>
<rect opacity="0.5" width="24.4053" height="24.4053" transform="matrix(-1 0 0 1 477.258 78.9922)" fill="white"/>
<rect opacity="0.5" width="24.4053" height="24.4053" transform="matrix(-1 0 0 1 706.396 167.121)" fill="white"/>
<rect opacity="0.2" width="40.6755" height="40.6755" transform="matrix(-1 0 0 1 823 146.781)" fill="white"/>
</g>
</svg>
