<svg width="14" height="13" viewBox="0 0 14 13" fill="none" xmlns="http://www.w3.org/2000/svg">
<path fill-rule="evenodd" clip-rule="evenodd" d="M6.51356 1.21949C5.70355 1.21949 4.97397 1.55747 4.45482 2.10181C4.3432 2.21881 4.18968 2.28668 4.02802 2.29049C3.86636 2.2943 3.70981 2.23373 3.59281 2.12212C3.47581 2.0105 3.40793 1.85698 3.40412 1.69532C3.40032 1.53366 3.46088 1.37711 3.5725 1.26011C4.13253 0.672313 4.85584 0.265809 5.64912 0.0930431C6.4424 -0.079723 7.26925 -0.010825 8.023 0.290849C8.77674 0.592522 9.4228 1.11313 9.87783 1.78551C10.3329 2.45789 10.576 3.25118 10.5758 4.06306V5.991C10.5758 6.15261 10.5116 6.30759 10.3973 6.42187C10.2831 6.53614 10.1281 6.60034 9.96647 6.60034C9.80487 6.60034 9.64988 6.53614 9.53561 6.42187C9.42133 6.30759 9.35713 6.15261 9.35713 5.991V4.06306C9.35713 3.3089 9.05755 2.58562 8.52427 2.05235C7.991 1.51908 7.26773 1.21949 6.51356 1.21949ZM3.41163 3.50247L0.980784 1.74189C0.916201 1.69223 0.842313 1.65602 0.763492 1.63541C0.684671 1.6148 0.602517 1.6102 0.521888 1.62189C0.44126 1.63359 0.363796 1.66133 0.294076 1.70348C0.224357 1.74563 0.163798 1.80134 0.115982 1.8673C0.0681667 1.93327 0.0340647 2.00815 0.0156935 2.08752C-0.00267769 2.1669 -0.00494501 2.24915 0.00902564 2.32941C0.0229963 2.40968 0.0529212 2.48632 0.0970304 2.55482C0.14114 2.62332 0.198537 2.68228 0.265829 2.72821L2.45132 4.31086V6.45735C2.45137 6.49754 2.43949 6.53684 2.41719 6.57028L1.03359 8.64527C0.909779 8.83101 0.838694 9.04686 0.827918 9.26982C0.817142 9.49277 0.867079 9.71448 0.972404 9.91128C1.07773 10.1081 1.23449 10.2726 1.42598 10.3873C1.61747 10.502 1.8365 10.5626 2.05972 10.5627H11.0844L12.0463 11.2589C12.1109 11.3086 12.1848 11.3448 12.2636 11.3654C12.3425 11.386 12.4246 11.3906 12.5052 11.3789C12.5859 11.3672 12.6633 11.3395 12.733 11.2973C12.8028 11.2552 12.8633 11.1995 12.9111 11.1335C12.959 11.0675 12.9931 10.9927 13.0114 10.9133C13.0298 10.8339 13.0321 10.7517 13.0181 10.6714C13.0041 10.5911 12.9742 10.5145 12.9301 10.446C12.886 10.3775 12.8286 10.3185 12.7613 10.2726L11.6442 9.46341C11.6407 9.46068 11.6372 9.45797 11.6336 9.45529L3.42463 3.51141C3.42034 3.50837 3.416 3.50539 3.41163 3.50247ZM9.40182 9.34398L3.66999 5.19318V6.45735C3.66999 6.73845 3.58712 7.01225 3.43113 7.24542L2.04753 9.32204C2.04593 9.32445 2.04508 9.32728 2.04509 9.33017C2.045 9.33199 2.04531 9.33382 2.04601 9.33551C2.04672 9.33719 2.04779 9.3387 2.04915 9.33992C2.05053 9.34134 2.05219 9.34244 2.05403 9.34317L2.05972 9.34398H9.40182ZM6.51356 13C6.90943 13.0001 7.29173 12.8558 7.58868 12.594C7.88563 12.3322 8.07679 11.971 8.12627 11.5782C8.14009 11.4669 8.04747 11.3751 7.93535 11.3751H5.09178C4.97966 11.3751 4.88704 11.4669 4.90085 11.5782C4.95034 11.971 5.1415 12.3322 5.43845 12.594C5.73539 12.8558 6.11769 13.0001 6.51356 13Z" fill="#7E7E7E"/>
</svg>
