<svg width="12" height="13" viewBox="0 0 12 13" fill="none" xmlns="http://www.w3.org/2000/svg">
<path fill-rule="evenodd" clip-rule="evenodd" d="M2 4C2 2.93913 2.42143 1.92172 3.17157 1.17157C3.92172 0.421427 4.93914 0 6 0C7.06087 0 8.07828 0.421427 8.82843 1.17157C9.57857 1.92172 10 2.93913 10 4V5.94467C10 6.41333 10.152 6.86933 10.4333 7.24467L11.8 9.06667C11.9114 9.21524 11.9793 9.3919 11.996 9.57686C12.0126 9.76182 11.9775 9.94777 11.8944 10.1139C11.8114 10.28 11.6837 10.4197 11.5257 10.5173C11.3678 10.615 11.1857 10.6667 11 10.6667H1C0.814288 10.6667 0.632245 10.615 0.474269 10.5173C0.316293 10.4197 0.188626 10.28 0.105573 10.1139C0.0225204 9.94777 -0.0126368 9.76182 0.00404116 9.57686C0.0207191 9.3919 0.0885732 9.21524 0.2 9.06667L1.56667 7.24467C1.84795 6.86963 2 6.41347 2 5.94467V4ZM6 13C5.49747 12.9999 5.00837 12.8377 4.6054 12.5374C4.20244 12.2371 3.90712 11.8149 3.76333 11.3333H8.23667C8.09288 11.8149 7.79756 12.2371 7.3946 12.5374C6.99163 12.8377 6.50254 12.9999 6 13Z" fill="#5893D4"/>
</svg>
