<svg width="25" height="25" viewBox="0 0 25 25" fill="none" xmlns="http://www.w3.org/2000/svg">
<circle opacity="0.8" cx="12.5" cy="12.5" r="12.5" fill="#9DCCFF"/>
<path d="M14.9062 11.8125C15.3324 11.8125 15.7334 11.8931 16.1094 12.0542C16.4854 12.2153 16.813 12.4373 17.0923 12.7202C17.3716 13.0031 17.5918 13.3307 17.7529 13.7031C17.9141 14.0755 17.9964 14.4766 18 14.9062C18 15.3324 17.9194 15.7334 17.7583 16.1094C17.5972 16.4854 17.3752 16.813 17.0923 17.0923C16.8094 17.3716 16.4818 17.5918 16.1094 17.7529C15.737 17.9141 15.3359 17.9964 14.9062 18C14.4801 18 14.0791 17.9194 13.7031 17.7583C13.3271 17.5972 12.9995 17.3752 12.7202 17.0923C12.4409 16.8094 12.2207 16.4818 12.0596 16.1094C11.8984 15.737 11.8161 15.3359 11.8125 14.9062C11.8125 14.4801 11.8931 14.0791 12.0542 13.7031C12.2153 13.3271 12.4373 12.9995 12.7202 12.7202C13.0031 12.4409 13.3307 12.2207 13.7031 12.0596C14.0755 11.8984 14.4766 11.8161 14.9062 11.8125ZM14.9062 17.3125C15.2393 17.3125 15.5508 17.2498 15.8408 17.1245C16.1309 16.9992 16.3851 16.8273 16.6035 16.6089C16.8219 16.3905 16.9938 16.1362 17.1191 15.8462C17.2445 15.5562 17.3089 15.2428 17.3125 14.9062C17.3125 14.5732 17.2498 14.2617 17.1245 13.9717C16.9992 13.6816 16.8273 13.4274 16.6089 13.209C16.3905 12.9906 16.1362 12.8187 15.8462 12.6934C15.5562 12.568 15.2428 12.5036 14.9062 12.5C14.5732 12.5 14.2617 12.5627 13.9717 12.688C13.6816 12.8133 13.4274 12.9852 13.209 13.2036C12.9906 13.422 12.8187 13.6763 12.6934 13.9663C12.568 14.2563 12.5036 14.5697 12.5 14.9062C12.5 15.2393 12.5627 15.5508 12.688 15.8408C12.8133 16.1309 12.9852 16.3851 13.2036 16.6035C13.422 16.8219 13.6763 16.9938 13.9663 17.1191C14.2563 17.2445 14.5697 17.3089 14.9062 17.3125ZM18 8.375V11.125H15.25V10.4375H16.9473C16.736 10.0186 16.4746 9.64079 16.1631 9.3042C15.8516 8.96761 15.5007 8.67936 15.1104 8.43945C14.7201 8.19954 14.3065 8.01514 13.8696 7.88623C13.4328 7.75732 12.9762 7.69108 12.5 7.6875C11.9486 7.6875 11.4204 7.77165 10.9155 7.93994C10.4106 8.10824 9.94873 8.34814 9.52979 8.65967C9.11084 8.97119 8.7474 9.34359 8.43945 9.77686C8.13151 10.2101 7.89518 10.6935 7.73047 11.2271L7.0752 11.0229C7.25423 10.4285 7.521 9.88428 7.87549 9.39014C8.22998 8.896 8.64535 8.47168 9.12158 8.11719C9.59782 7.7627 10.1242 7.48877 10.7007 7.29541C11.2772 7.10205 11.877 7.00358 12.5 7C12.9906 7 13.4686 7.06087 13.9341 7.18262C14.3996 7.30436 14.8382 7.47982 15.25 7.70898C15.6618 7.93815 16.0449 8.21924 16.3994 8.55225C16.7539 8.88525 17.0583 9.26123 17.3125 9.68018V8.375H18ZM11.7266 17.248C11.8304 17.3877 11.9414 17.5202 12.0596 17.6455C12.1777 17.7708 12.3066 17.8872 12.4463 17.9946C11.9629 17.991 11.4902 17.9266 11.0283 17.8013C10.5664 17.6759 10.1313 17.4951 9.72314 17.2588C9.31494 17.0225 8.93717 16.7396 8.58984 16.4102C8.24251 16.0807 7.94173 15.7101 7.6875 15.2983V16.625H7V13.875H9.75V14.5625H8.06348C8.24251 14.917 8.46094 15.2446 8.71875 15.5454C8.97656 15.8462 9.26123 16.1112 9.57275 16.3403C9.88428 16.5695 10.2227 16.7629 10.5879 16.9204C10.9531 17.078 11.3327 17.1872 11.7266 17.248ZM14.5625 13.1875H15.25V15.25H14.5625V13.1875ZM14.5625 15.9375H15.25V16.625H14.5625V15.9375Z" fill="white"/>
</svg>
