<svg width="11" height="12" viewBox="0 0 11 12" fill="none" xmlns="http://www.w3.org/2000/svg">
<path fill-rule="evenodd" clip-rule="evenodd" d="M3.14689 8.14511C3.19334 8.09854 3.24851 8.0616 3.30926 8.03639C3.37 8.01119 3.43513 7.99821 3.50089 7.99821C3.56666 7.99821 3.63178 8.01119 3.69253 8.03639C3.75327 8.0616 3.80845 8.09854 3.85489 8.14511L6.50089 10.7921L9.14689 8.14511C9.24078 8.05122 9.36812 7.99847 9.50089 7.99847C9.63367 7.99847 9.76101 8.05122 9.85489 8.14511C9.94878 8.23899 10.0015 8.36633 10.0015 8.49911C10.0015 8.63188 9.94878 8.75922 9.85489 8.85311L6.85489 11.8531C6.80845 11.8997 6.75327 11.9366 6.69253 11.9618C6.63178 11.987 6.56666 12 6.50089 12C6.43513 12 6.37001 11.987 6.30926 11.9618C6.24852 11.9366 6.19334 11.8997 6.14689 11.8531L3.14689 8.85311C3.10033 8.80666 3.06339 8.75149 3.03818 8.69074C3.01297 8.62999 3 8.56487 3 8.49911C3 8.43334 3.01297 8.36822 3.03818 8.30747C3.06339 8.24673 3.10033 8.19155 3.14689 8.14511Z" fill="#9DCCFF"/>
<path fill-rule="evenodd" clip-rule="evenodd" d="M-5.6085e-07 0.5C-5.67611e-07 0.367392 0.0526779 0.240214 0.146446 0.146446C0.240214 0.0526781 0.367391 -1.37678e-08 0.499999 -1.87372e-08L4.5 -1.68635e-07C5.16304 -1.93482e-07 5.79893 0.263392 6.26777 0.732233C6.73661 1.20107 7 1.83696 7 2.5L7 11C7 11.1326 6.94732 11.2598 6.85355 11.3536C6.75979 11.4473 6.63261 11.5 6.5 11.5C6.36739 11.5 6.24021 11.4473 6.14645 11.3536C6.05268 11.2598 6 11.1326 6 11L6 2.5C6 2.10218 5.84196 1.72064 5.56066 1.43934C5.27936 1.15804 4.89782 1 4.5 1L0.499999 1C0.367391 1 0.240214 0.947322 0.146446 0.853554C0.052678 0.759786 -5.54089e-07 0.632608 -5.6085e-07 0.5Z" fill="#9DCCFF"/>
</svg>
