<svg width="25" height="20" viewBox="0 0 25 20" fill="none" xmlns="http://www.w3.org/2000/svg">
<rect x="0.5" y="0.5" width="24" height="19" rx="9.5" fill="white" stroke="#FF9F2F"/>
<path d="M12.9292 13.8371L17.8243 9.29221C17.9376 9.1871 18 9.04677 18 8.89715C18 8.74753 17.9376 8.60721 17.8243 8.50209L17.4639 8.16739C17.229 7.9496 16.8473 7.9496 16.6128 8.16739L12.5023 11.9838L8.38715 8.16316C8.27384 8.05804 8.1228 8 7.96173 8C7.80049 8 7.64944 8.05804 7.53604 8.16316L7.17573 8.49785C7.06242 8.60305 7 8.74329 7 8.89292C7 9.04254 7.06242 9.18286 7.17573 9.28798L12.0753 13.8371C12.1889 13.9425 12.3407 14.0003 12.502 14C12.664 14.0003 12.8156 13.9425 12.9292 13.8371Z" fill="#FF9F2F"/>
</svg>
