<svg width="6" height="8" viewBox="0 0 6 8" fill="none" xmlns="http://www.w3.org/2000/svg">
<path d="M5.86229 3.68784L2.07489 0.127804C1.98729 0.045398 1.87036 0 1.74567 0C1.62099 0 1.50405 0.045398 1.41645 0.127804L1.13754 0.389915C0.956047 0.560711 0.956047 0.838302 1.13754 1.00884L4.31791 3.99834L1.13401 6.99116C1.04641 7.07357 0.998047 7.18342 0.998047 7.30056C0.998047 7.41783 1.04641 7.52768 1.13401 7.61015L1.41293 7.8722C1.50059 7.9546 1.61746 8 1.74214 8C1.86683 8 1.98377 7.9546 2.07136 7.8722L5.86229 4.30891C5.9501 4.22624 5.99832 4.11587 5.99805 3.99854C5.99832 3.88075 5.9501 3.77044 5.86229 3.68784Z" fill="#9DCCFF"/>
</svg>
