<svg width="24" height="16" viewBox="0 0 24 16" fill="none" xmlns="http://www.w3.org/2000/svg">
<path d="M18.8595 6.1368L18.9336 6.51237L19.3155 6.53881C21.6584 6.70101 23.5 8.62782 23.5 11C23.5 13.4839 21.4839 15.5 19 15.5H6C2.96614 15.5 0.5 13.0339 0.5 10V9.99994C0.499843 8.64494 1.00043 7.33767 1.90557 6.32932C2.81071 5.32097 4.05656 4.68269 5.40372 4.53711L5.66982 4.50835L5.79346 4.27097C6.96089 2.0295 9.30395 0.5 12 0.5H12.0001C13.6194 0.499634 15.1886 1.06147 16.4396 2.08954C17.6907 3.11762 18.546 4.54815 18.8595 6.1368Z" stroke="white"/>
</svg>
