<svg width="21" height="21" viewBox="0 0 21 21" fill="none" xmlns="http://www.w3.org/2000/svg">
<path fill-rule="evenodd" clip-rule="evenodd" d="M10.5 21C16.299 21 21 16.299 21 10.5C21 4.70101 16.299 0 10.5 0C4.70101 0 0 4.70101 0 10.5C0 16.299 4.70101 21 10.5 21ZM4.74444 8.00384C4.20261 8.00384 3.77651 8.19585 3.46614 8.57987C3.15577 8.96388 3.00058 9.49388 3.00058 10.1699C3.00058 10.8774 3.14919 11.4127 3.44641 11.7756C3.74626 12.1386 4.17894 12.3201 4.74444 12.3201C4.98906 12.3201 5.22578 12.2964 5.45461 12.2491C5.68345 12.1991 5.92148 12.136 6.16873 12.0597V12.8685C5.71632 13.0395 5.20342 13.1249 4.63003 13.1249C3.78572 13.1249 3.13736 12.8698 2.68495 12.3595C2.23255 11.8466 2.00635 11.1141 2.00635 10.162C2.00635 9.56227 2.1155 9.03753 2.33381 8.58776C2.55476 8.13798 2.87302 7.79342 3.2886 7.55407C3.70418 7.31471 4.19209 7.19504 4.75233 7.19504C5.34151 7.19504 5.88597 7.31866 6.38572 7.5659L6.04642 8.35104C5.85178 8.25898 5.64531 8.17875 5.427 8.11037C5.21131 8.03935 4.9838 8.00384 4.74444 8.00384ZM8.35447 9.96075H9.0094C9.44866 9.96075 9.76692 9.87921 9.96419 9.71614C10.1615 9.55306 10.2601 9.31108 10.2601 8.99019C10.2601 8.66404 10.1536 8.42994 9.94051 8.28791C9.72746 8.14587 9.40657 8.07486 8.97784 8.07486H8.35447V9.96075ZM8.35447 10.7419V13.046H7.41152V7.27789H9.04097C9.78533 7.27789 10.3364 7.41729 10.6941 7.6961C11.0518 7.97491 11.2307 8.39575 11.2307 8.95862C11.2307 9.67668 10.8572 10.1883 10.1102 10.4934L11.7396 13.046H10.6665L9.28558 10.7419H8.35447ZM13.4006 8.22873L15.0735 13.046H15.9059L17.638 8.23662H17.6695C17.659 8.33394 17.6458 8.61275 17.6301 9.07304C17.6169 9.53334 17.6103 9.90683 17.6103 10.1935V13.046H18.5178V7.27789H17.1842L15.5351 11.8664H15.5114L13.9096 7.27789H12.58V13.046H13.4361V10.2409C13.4361 9.61487 13.4138 8.94416 13.3691 8.22873H13.4006Z" fill="white"/>
</svg>
