<svg width="15" height="15" viewBox="0 0 15 15" fill="none" xmlns="http://www.w3.org/2000/svg">
<path d="M9.12677 9.82268L5.87246 6.32023L1.53364 10.9899L3.16118 12.7407C3.59267 13.205 4.17782 13.4658 4.78795 13.4658C5.39808 13.4658 5.98323 13.205 6.41472 12.7407L9.12677 9.82268ZM8.01925 13.3491H10.1024C10.3058 13.3491 10.5009 13.436 10.6447 13.5908C10.7886 13.7456 10.8694 13.9556 10.8694 14.1745C10.8694 14.3935 10.7886 14.6034 10.6447 14.7582C10.5009 14.913 10.3058 15 10.1024 15H1.66556C1.47111 14.9998 1.28398 14.9202 1.14202 14.7771C1.00007 14.6341 0.913902 14.4384 0.900941 14.2296C0.88798 14.0207 0.949199 13.8144 1.07221 13.6523C1.19522 13.4903 1.37085 13.3845 1.56355 13.3565L0.449125 12.1571C0.16155 11.8475 0 11.4277 0 10.9899C0 10.5521 0.16155 10.1323 0.449125 9.82268L9.12677 0.48337C9.41443 0.173868 9.80453 0 10.2113 0C10.618 0 11.0081 0.173868 11.2958 0.48337L14.5509 3.98582C14.8384 4.29541 15 4.71526 15 5.15303C15 5.59079 14.8384 6.01064 14.5509 6.32023L8.01925 13.3491Z" fill="white"/>
</svg>
