<svg width="16" height="16" viewBox="0 0 16 16" fill="none" xmlns="http://www.w3.org/2000/svg">
<g clip-path="url(#clip0)">
<path d="M13.3541 8.66365C13.3157 8.64427 13.2772 8.6346 13.2384 8.6346C13.1549 8.6346 13.0813 8.66665 13.0172 8.73088L12.4014 9.34658C12.3439 9.40437 12.315 9.47483 12.315 9.55831V12.0019C12.315 12.4253 12.1646 12.7875 11.8629 13.0891C11.5615 13.3905 11.199 13.5413 10.7756 13.5413H2.77088C2.34749 13.5413 1.98507 13.3905 1.68364 13.0891C1.38214 12.7875 1.23147 12.4253 1.23147 12.0019V3.99727C1.23147 3.57395 1.38214 3.21156 1.68364 2.91003C1.98507 2.60856 2.34749 2.45787 2.77088 2.45787H10.7757C10.9168 2.45787 11.0611 2.47711 11.2086 2.51562C11.2472 2.52836 11.276 2.53487 11.295 2.53487C11.3785 2.53487 11.4523 2.50289 11.5164 2.43876L11.9878 1.96732C12.0647 1.89045 12.0937 1.79738 12.0743 1.68843C12.0551 1.58579 11.9973 1.51199 11.9011 1.46713C11.5549 1.307 11.1795 1.22656 10.7754 1.22656H2.77088C2.00761 1.22656 1.35494 1.49756 0.812938 2.03957C0.271002 2.58164 0 3.23421 0 3.99751V12.0023C0 12.7655 0.271002 13.4181 0.812972 13.9601C1.35498 14.5023 2.00765 14.7733 2.77091 14.7733H10.7756C11.5388 14.7733 12.1915 14.5023 12.7336 13.9601C13.2756 13.4181 13.5468 12.7655 13.5468 12.0023V8.9426C13.5468 8.80801 13.4823 8.71507 13.3541 8.66365Z" fill="#F2F2F2"/>
<path d="M15.7692 3.14086L14.7107 2.08243C14.5568 1.92853 14.3739 1.85156 14.1622 1.85156C13.9507 1.85156 13.7677 1.92853 13.6139 2.08243L7.38893 8.30735L4.85873 5.77698C4.70476 5.62298 4.52191 5.54611 4.31032 5.54611C4.0987 5.54611 3.91592 5.62298 3.76192 5.77698L2.70362 6.83528C2.54969 6.98921 2.47266 7.17206 2.47266 7.38378C2.47266 7.59541 2.54969 7.77819 2.70362 7.93219L6.84066 12.0692C6.99462 12.2233 7.17747 12.3001 7.38906 12.3001C7.60065 12.3001 7.78347 12.2233 7.93747 12.0692L15.7691 4.23764C15.9229 4.08374 16 3.90086 16 3.68923C16 3.47761 15.9231 3.29476 15.7692 3.14086Z" fill="#F2F2F2"/>
</g>
<defs>
<clipPath id="clip0">
<rect width="16" height="16" fill="white"/>
</clipPath>
</defs>
</svg>
