<svg width="88" height="35" viewBox="0 0 88 35" fill="none" xmlns="http://www.w3.org/2000/svg">
<path d="M41.6148 17.0979V27.3572H38.3652V2.02123H46.9836C48.0123 1.99971 49.0351 2.18245 49.993 2.55891C50.9508 2.93537 51.8248 3.49809 52.5644 4.2146C53.3114 4.88761 53.9059 5.71299 54.308 6.63526C54.7101 7.55753 54.9105 8.55532 54.8956 9.56157C54.917 10.5732 54.7197 11.5775 54.3173 12.5057C53.9149 13.4338 53.317 14.2638 52.5644 14.9389C51.0573 16.3782 49.1971 17.0972 46.9836 17.0958H41.6148V17.0979ZM41.6148 5.14047V13.9847H47.0643C47.6618 14.0024 48.2563 13.8951 48.81 13.6695C49.3636 13.444 49.8642 13.1051 50.2796 12.6747C50.6928 12.2723 51.0213 11.791 51.2456 11.2592C51.47 10.7275 51.5855 10.156 51.5855 9.57875C51.5855 9.00147 51.47 8.43005 51.2456 7.89828C51.0213 7.3665 50.6928 6.88518 50.2796 6.48277C49.8694 6.0433 49.3706 5.69618 48.8162 5.46442C48.2619 5.23266 47.6648 5.12154 47.0643 5.13845H41.6148V5.14047Z" fill="white"/>
<path d="M62.3878 9.45703C64.7896 9.45703 66.6855 10.0999 68.0755 11.3856C69.4654 12.6713 70.1598 14.4341 70.1584 16.6739V27.3578H67.0502V24.9521H66.9089C65.5633 26.9332 63.7737 27.9238 61.54 27.9238C59.6334 27.9238 58.0382 27.3578 56.7545 26.2257C56.1385 25.7061 55.646 25.0554 55.3129 24.321C54.9797 23.5866 54.8144 22.787 54.829 21.9805C54.829 20.1867 55.5058 18.7601 56.8595 17.7009C58.2131 16.6416 60.0202 16.1106 62.2808 16.1079C64.2103 16.1079 65.7994 16.4617 67.0481 17.1692V16.4253C67.0518 15.8754 66.9333 15.3317 66.7011 14.8334C66.469 14.3352 66.129 13.8949 65.7059 13.5446C64.8466 12.7681 63.7267 12.3444 62.5694 12.3579C60.7542 12.3579 59.3178 13.1248 58.2602 14.6584L55.3982 12.8532C56.9725 10.5891 59.3024 9.45703 62.3878 9.45703ZM58.1835 22.0512C58.1813 22.4654 58.278 22.8742 58.4655 23.2434C58.653 23.6126 58.9258 23.9316 59.2613 24.1738C59.98 24.7401 60.872 25.04 61.7863 25.0229C63.1575 25.0206 64.472 24.4739 65.4415 23.5027C66.518 22.4879 67.0562 21.2972 67.0562 19.9306C66.043 19.122 64.6301 18.7177 62.8177 18.7177C61.4977 18.7177 60.397 19.0364 59.5156 19.6739C58.6255 20.3208 58.1835 21.1072 58.1835 22.0512Z" fill="white"/>
<path d="M87.999 10.0234L77.1483 34.9995H73.7938L77.8204 26.2604L70.6855 10.0234H74.2177L79.3746 22.4761H79.4452L84.4608 10.0234H87.999Z" fill="white"/>
<path d="M28.4862 14.8892C28.4874 13.8974 28.4036 12.9072 28.2359 11.9297H14.5312V17.5354H22.3806C22.22 18.4307 21.88 19.2842 21.3812 20.0444C20.8824 20.8045 20.2351 21.4557 19.4782 21.9585V25.5973H24.1628C26.9058 23.0643 28.4862 19.3184 28.4862 14.8892Z" fill="white"/>
<path d="M14.5329 29.1131C18.4546 29.1131 21.7566 27.8234 24.1645 25.5997L19.4799 21.9609C18.176 22.8464 16.4968 23.3518 14.5329 23.3518C10.7424 23.3518 7.52518 20.7925 6.37471 17.3438H1.54883V21.0937C2.75836 23.5043 4.61305 25.5308 6.90583 26.9469C9.1986 28.363 11.8392 29.113 14.5329 29.1131Z" fill="white"/>
<path d="M6.3733 17.3408C5.76509 15.5337 5.76509 13.5767 6.3733 11.7695V8.01953H1.54742C0.529914 10.0474 0 12.2856 0 14.5552C0 16.8247 0.529914 19.0629 1.54742 21.0908L6.3733 17.3408Z" fill="white"/>
<path d="M14.5329 5.76234C16.6053 5.72843 18.6078 6.51269 20.1076 7.9456L24.2553 3.79134C21.6252 1.31713 18.141 -0.0412529 14.5329 0.000954949C11.8392 0.00107791 9.1986 0.751056 6.90583 2.16716C4.61305 3.58326 2.75836 5.60976 1.54883 8.0204L6.37471 11.7704C7.52518 8.32161 10.7424 5.76234 14.5329 5.76234Z" fill="white"/>
</svg>
