<svg width="20" height="14" viewBox="0 0 20 14" fill="none" xmlns="http://www.w3.org/2000/svg">
<path fill-rule="evenodd" clip-rule="evenodd" d="M20 6.50063C20 6.30909 19.9248 6.1254 19.7908 5.98997C19.6569 5.85453 19.4752 5.77844 19.2858 5.77844H2.43969L6.93512 1.23441C7.00153 1.16727 7.0542 1.08755 7.09014 0.999823C7.12608 0.912092 7.14458 0.818063 7.14458 0.723103C7.14458 0.628144 7.12608 0.534115 7.09014 0.446384C7.0542 0.358653 7.00153 0.278938 6.93512 0.211792C6.86871 0.144646 6.78988 0.0913824 6.70311 0.055043C6.61635 0.0187037 6.52335 0 6.42944 0C6.33552 0 6.24253 0.0187037 6.15576 0.055043C6.069 0.0913824 5.99016 0.144646 5.92376 0.211792L0.209835 5.98932C0.14332 6.05641 0.0905481 6.1361 0.0545412 6.22384C0.0185342 6.31158 0 6.40564 0 6.50063C0 6.59562 0.0185342 6.68968 0.0545412 6.77742C0.0905481 6.86516 0.14332 6.94486 0.209835 7.01194L5.92376 12.7895C5.99016 12.8566 6.069 12.9099 6.15576 12.9462C6.24253 12.9826 6.33552 13.0013 6.42944 13.0013C6.52335 13.0013 6.61635 12.9826 6.70311 12.9462C6.78988 12.9099 6.86871 12.8566 6.93512 12.7895C7.00153 12.7223 7.0542 12.6426 7.09014 12.5549C7.12608 12.4671 7.14458 12.3731 7.14458 12.2782C7.14458 12.1832 7.12608 12.0892 7.09014 12.0014C7.0542 11.9137 7.00153 11.834 6.93512 11.7668L2.43969 7.22282H19.2858C19.4752 7.22282 19.6569 7.14674 19.7908 7.0113C19.9248 6.87586 20 6.69217 20 6.50063Z" fill="white"/>
</svg>
