<svg width="20" height="27" viewBox="0 0 20 27" fill="none" xmlns="http://www.w3.org/2000/svg">
<path fill-rule="evenodd" clip-rule="evenodd" d="M0.976311 0.988515C1.60143 0.355579 2.44928 0 3.33333 0H10.9767C11.8607 0.000191151 12.7084 0.355896 13.3333 0.988875L19.0233 6.75C19.6485 7.38279 19.9998 8.24109 20 9.13613V23.625C20 24.5201 19.6488 25.3786 19.0237 26.0115C18.3986 26.6444 17.5507 27 16.6667 27H3.33333C2.44928 27 1.60143 26.6444 0.976311 26.0115C0.351189 25.3786 0 24.5201 0 23.625V3.375C0 2.47989 0.351189 1.62145 0.976311 0.988515ZM11.8527 10.875L4.44531 18.375V20.25H6.29716L13.7046 12.75L11.8527 10.875ZM13.7046 9L12.47 10.25L14.3212 12.1256L15.5564 10.875L13.7046 9Z" fill="#4ECA80"/>
</svg>
