<svg width="24" height="24" viewBox="0 0 24 24" fill="none" xmlns="http://www.w3.org/2000/svg">
<path fill-rule="evenodd" clip-rule="evenodd" d="M12 24C18.6274 24 24 18.6274 24 12C24 5.37258 18.6274 0 12 0C5.37258 0 0 5.37258 0 12C0 18.6274 5.37258 24 12 24ZM16.4136 10.2598L18.5014 11.9075C18.5153 11.9189 18.5265 11.9332 18.5341 11.9494C18.5417 11.9656 18.5456 11.9833 18.5455 12.0012C18.5453 12.0191 18.5411 12.0368 18.5332 12.0528C18.5253 12.0689 18.5139 12.083 18.4998 12.0941L16.4136 13.7434C16.3367 13.804 16.2222 13.7483 16.2222 13.6502V12.5899H12.5897V16.2224H13.6467C13.7466 16.2224 13.8005 16.3369 13.74 16.4138L12.0907 18.5C12.0449 18.5606 11.9532 18.5606 11.9058 18.5L10.2565 16.4138C10.1959 16.3369 10.2516 16.2224 10.3497 16.2224H11.41V12.5899H7.77758V13.6485C7.77758 13.7483 7.66304 13.8023 7.58614 13.7418L5.49994 12.0924C5.48582 12.0815 5.47438 12.0675 5.46651 12.0515C5.45864 12.0355 5.45455 12.0179 5.45455 12C5.45455 11.9821 5.45864 11.9645 5.46651 11.9485C5.47438 11.9325 5.48582 11.9185 5.49994 11.9075L7.58778 10.2582C7.66468 10.1977 7.77922 10.2533 7.77922 10.3515V11.4118H11.4117V7.77926H10.353C10.3308 7.77931 10.309 7.7731 10.2901 7.76134C10.2713 7.74958 10.2561 7.73275 10.2464 7.71277C10.2366 7.69279 10.2327 7.67047 10.2351 7.64837C10.2375 7.62627 10.246 7.60528 10.2597 7.58782L11.9091 5.49994C11.92 5.48582 11.934 5.47438 11.95 5.46651C11.966 5.45864 11.9837 5.45455 12.0015 5.45455C12.0194 5.45455 12.037 5.45864 12.053 5.46651C12.069 5.47438 12.083 5.48582 12.094 5.49994L13.7433 7.58782C13.8038 7.66472 13.7482 7.77926 13.65 7.77926H12.5897V11.4118H16.2222V10.3531C16.2221 10.3309 16.2283 10.3091 16.2401 10.2902C16.2518 10.2714 16.2687 10.2562 16.2887 10.2465C16.3086 10.2367 16.331 10.2328 16.3531 10.2352C16.3752 10.2375 16.3961 10.2461 16.4136 10.2598Z" fill="#FF9F2F"/>
</svg>
