<svg width="20" height="27" viewBox="0 0 20 27" fill="none" xmlns="http://www.w3.org/2000/svg">
<path fill-rule="evenodd" clip-rule="evenodd" d="M0.976311 0.988515C1.60143 0.355579 2.44928 0 3.33333 0H10.9767C11.8607 0.000191151 12.7084 0.355896 13.3333 0.988875L19.0233 6.75C19.6485 7.38279 19.9998 8.24109 20 9.13613V23.625C20 24.5201 19.6488 25.3786 19.0237 26.0115C18.3986 26.6444 17.5507 27 16.6667 27H3.33333C2.44928 27 1.60143 26.6444 0.976311 26.0115C0.351189 25.3786 0 24.5201 0 23.625V3.375C0 2.47989 0.351189 1.62145 0.976311 0.988515ZM14.6035 15.5625H10.9261V19.2862C10.9261 19.7907 10.5431 20.2237 10.0448 20.2489C9.91966 20.255 9.79456 20.2353 9.67711 20.191C9.55967 20.1467 9.45233 20.0788 9.3616 19.9912C9.27086 19.9037 9.19863 19.7984 9.14927 19.6817C9.09991 19.5651 9.07446 19.4395 9.07445 19.3126V15.5625H5.39711C4.89889 15.5625 4.47127 15.1746 4.44639 14.6701C4.44035 14.5434 4.4598 14.4167 4.50355 14.2978C4.54729 14.1788 4.61443 14.0701 4.70089 13.9783C4.78735 13.8864 4.89132 13.8132 5.00652 13.7633C5.12172 13.7133 5.24574 13.6875 5.37107 13.6875H9.07445V9.9638C9.07445 9.4593 9.45751 9.02628 9.95573 9.00109C10.0809 8.99498 10.206 9.01467 10.3235 9.05897C10.4409 9.10327 10.5483 9.17125 10.639 9.2588C10.7297 9.34634 10.8019 9.45163 10.8513 9.56829C10.9007 9.68494 10.9261 9.81052 10.9261 9.93743V13.6875H14.6295C14.7549 13.6873 14.8791 13.713 14.9944 13.7629C15.1097 13.8128 15.2139 13.8859 15.3004 13.9778C15.387 14.0697 15.4543 14.1785 15.4981 14.2975C15.5419 14.4165 15.5614 14.5433 15.5554 14.6701C15.531 15.1746 15.1017 15.5625 14.6035 15.5625Z" fill="#5893D4"/>
</svg>
