<svg width="36" height="36" viewBox="0 0 36 36" fill="none" xmlns="http://www.w3.org/2000/svg">
<rect width="36" height="36" rx="18" fill="#9DCCFF"/>
<path d="M15.75 12C16.6451 12 17.5036 12.3735 18.1365 13.0384C18.7694 13.7033 19.125 14.6051 19.125 15.5455V19.0909C19.125 20.0312 18.7694 20.933 18.1365 21.5979C17.5036 22.2628 16.6451 22.6364 15.75 22.6364C14.8549 22.6364 13.9964 22.2628 13.3635 21.5979C12.7306 20.933 12.375 20.0312 12.375 19.0909V15.5455C12.375 14.6051 12.7306 13.7033 13.3635 13.0384C13.9964 12.3735 14.8549 12 15.75 12ZM15.75 14.3636C15.4516 14.3636 15.1655 14.4881 14.9545 14.7098C14.7435 14.9314 14.625 15.232 14.625 15.5455V19.0909C14.625 19.4043 14.7435 19.7049 14.9545 19.9266C15.1655 20.1482 15.4516 20.2727 15.75 20.2727C16.0484 20.2727 16.3345 20.1482 16.5455 19.9266C16.7565 19.7049 16.875 19.4043 16.875 19.0909V15.5455C16.875 15.232 16.7565 14.9314 16.5455 14.7098C16.3345 14.4881 16.0484 14.3636 15.75 14.3636ZM23.625 12C24.5201 12 25.3786 12.3735 26.0115 13.0384C26.6444 13.7033 27 14.6051 27 15.5455V19.0909C27 20.0312 26.6444 20.933 26.0115 21.5979C25.3786 22.2628 24.5201 22.6364 23.625 22.6364C22.7299 22.6364 21.8714 22.2628 21.2385 21.5979C20.6056 20.933 20.25 20.0312 20.25 19.0909V15.5455C20.25 14.6051 20.6056 13.7033 21.2385 13.0384C21.8714 12.3735 22.7299 12 23.625 12ZM23.625 14.3636C23.3266 14.3636 23.0405 14.4881 22.8295 14.7098C22.6185 14.9314 22.5 15.232 22.5 15.5455V19.0909C22.5 19.4043 22.6185 19.7049 22.8295 19.9266C23.0405 20.1482 23.3266 20.2727 23.625 20.2727C23.9234 20.2727 24.2095 20.1482 24.4205 19.9266C24.6315 19.7049 24.75 19.4043 24.75 19.0909V15.5455C24.75 15.232 24.6315 14.9314 24.4205 14.7098C24.2095 14.4881 23.9234 14.3636 23.625 14.3636ZM10.125 20.2727C9.82663 20.2727 9.54048 20.3972 9.32951 20.6189C9.11853 20.8405 9 21.1411 9 21.4545L10.125 25H11.25V21.4545C11.25 21.1411 11.1315 20.8405 10.9205 20.6189C10.7095 20.3972 10.4234 20.2727 10.125 20.2727Z" fill="white"/>
</svg>
