<svg width="20" height="27" viewBox="0 0 20 27" fill="none" xmlns="http://www.w3.org/2000/svg">
<path fill-rule="evenodd" clip-rule="evenodd" d="M0.976311 0.988515C1.60143 0.355579 2.44928 0 3.33333 0H10.9767C11.8607 0.000191151 12.7084 0.355896 13.3333 0.988875L19.0233 6.75C19.6485 7.38279 19.9998 8.24109 20 9.13613V23.625C20 24.5201 19.6488 25.3786 19.0237 26.0115C18.3986 26.6444 17.5507 27 16.6667 27H3.33333C2.44928 27 1.60143 26.6444 0.976311 26.0115C0.351189 25.3786 0 24.5201 0 23.625V3.375C0 2.47989 0.351189 1.62145 0.976311 0.988515ZM7.45945 20.25C6.76104 20.25 6.18961 19.6875 6.18961 19V11.5H13.8087V19C13.8087 19.6875 13.2372 20.25 12.5388 20.25H7.45945ZM12.2214 9.625H14.4436V10.875H5.55469V9.625H7.77691L8.41183 9H11.5864L12.2214 9.625Z" fill="#FD3F3F"/>
</svg>
