<svg width="20" height="16" viewBox="0 0 20 16" fill="none" xmlns="http://www.w3.org/2000/svg">
<path d="M10.4212 10.274L12.9783 12.6672L10.4141 15.0605L11.4283 16.0005L14.9998 12.6672L11.4283 9.33398L10.4212 10.274Z" fill="#9DCCFF"/>
<path d="M15.4212 10.274L17.9783 12.6672L15.4141 15.0605L16.4283 16.0005L19.9998 12.6672L16.4283 9.33398L15.4212 10.274Z" fill="#9DCCFF"/>
<path d="M8.57143 11.9997H1.42857V1.93995L9.59286 7.21316C9.71243 7.29058 9.85448 7.33207 10 7.33207C10.1455 7.33207 10.2876 7.29058 10.4071 7.21316L18.5714 1.93995V7.99981H20V1.3333C20 0.979689 19.8495 0.640558 19.5816 0.390515C19.3137 0.140472 18.9503 0 18.5714 0H1.42857C1.04969 0 0.686328 0.140472 0.418419 0.390515C0.15051 0.640558 0 0.979689 0 1.3333V11.9997C0 12.3533 0.15051 12.6925 0.418419 12.9425C0.686328 13.1925 1.04969 13.333 1.42857 13.333H8.57143V11.9997ZM17 1.3333L10 5.8532L3 1.3333H17Z" fill="#9DCCFF"/>
</svg>
