<svg width="12" height="12" viewBox="0 0 12 12" fill="none" xmlns="http://www.w3.org/2000/svg">
<path fill-rule="evenodd" clip-rule="evenodd" d="M11.7797 0.220299C11.8495 0.289954 11.9049 0.372701 11.9427 0.463802C11.9805 0.554902 12 0.652565 12 0.751198C12 0.84983 11.9805 0.947493 11.9427 1.03859C11.9049 1.12969 11.8495 1.21244 11.7797 1.2821L1.2817 11.7801C1.1409 11.9209 0.94993 12 0.750804 12C0.551679 12 0.360708 11.9209 0.219905 11.7801C0.0791022 11.6393 1.4836e-09 11.4483 0 11.2492C-1.4836e-09 11.0501 0.0791022 10.8591 0.219905 10.7183L10.7179 0.220299C10.7876 0.150467 10.8703 0.0950631 10.9614 0.0572607C11.0525 0.0194582 11.1502 0 11.2488 0C11.3474 0 11.4451 0.0194582 11.5362 0.0572607C11.6273 0.0950631 11.71 0.150467 11.7797 0.220299Z" fill="#9DCCFF"/>
<path fill-rule="evenodd" clip-rule="evenodd" d="M0.220299 0.220299C0.150467 0.289954 0.0950631 0.372701 0.0572607 0.463802C0.0194582 0.554902 0 0.652565 0 0.751198C0 0.84983 0.0194582 0.947493 0.0572607 1.03859C0.0950631 1.12969 0.150467 1.21244 0.220299 1.2821L10.7183 11.7801C10.8591 11.9209 11.0501 12 11.2492 12C11.4483 12 11.6393 11.9209 11.7801 11.7801C11.9209 11.6393 12 11.4483 12 11.2492C12 11.0501 11.9209 10.8591 11.7801 10.7183L1.2821 0.220299C1.21244 0.150467 1.12969 0.0950631 1.03859 0.0572607C0.947493 0.0194582 0.84983 0 0.751198 0C0.652565 0 0.554902 0.0194582 0.463802 0.0572607C0.372701 0.0950631 0.289954 0.150467 0.220299 0.220299Z" fill="#9DCCFF"/>
</svg>
