<svg width="25" height="29" viewBox="0 0 25 29" fill="none" xmlns="http://www.w3.org/2000/svg">
<path d="M4.61835 8.87758L4.30233 8.71959L4.04787 8.96471C3.80345 9.20017 3.47655 9.34375 3.11719 9.34375C2.37563 9.34375 1.77148 8.7396 1.77148 7.99805C1.77148 7.25649 2.37563 6.65234 3.11719 6.65234C3.85875 6.65234 4.46289 7.25649 4.46289 7.99805C4.46289 8.02032 4.46096 8.03419 4.45614 8.06882C4.45323 8.08972 4.44927 8.11818 4.44405 8.16062L4.40091 8.51104L4.71671 8.66893L6.5379 9.57945L6.85392 9.73744L7.10838 9.49232C7.3528 9.25686 7.6797 9.11328 8.03906 9.11328C8.23946 9.11328 8.43203 9.16229 8.61385 9.24932L8.93305 9.40212L9.18329 9.15189L11.6538 6.68133L11.9041 6.4311L11.7513 6.11189C11.6642 5.93008 11.6152 5.73751 11.6152 5.53711C11.6152 4.79555 12.2194 4.19141 12.9609 4.19141C13.2357 4.19141 13.4907 4.27461 13.7049 4.41769L13.9993 4.61434L14.2826 4.40194L16.4292 2.7924L16.7121 2.58027L16.6064 2.24285C16.5617 2.1003 16.5371 1.97135 16.5371 1.8457C16.5371 1.10415 17.1413 0.5 17.8828 0.5C18.6244 0.5 19.2285 1.10415 19.2285 1.8457C19.2285 2.58726 18.6244 3.19141 17.8828 3.19141C17.6081 3.19141 17.353 3.1082 17.1388 2.96513L16.8444 2.76848L16.5612 2.98087L14.4146 4.59041L14.1317 4.80254L14.2374 5.13996C14.2821 5.28252 14.3066 5.41146 14.3066 5.53711C14.3066 6.27867 13.7025 6.88281 12.9609 6.88281C12.7605 6.88281 12.568 6.83381 12.3862 6.74677L12.0669 6.59397L11.8167 6.84421L9.34616 9.31476L9.09592 9.565L9.24872 9.8842C9.33576 10.066 9.38477 10.2586 9.38477 10.459C9.38477 11.2005 8.78062 11.8047 8.03906 11.8047C7.2975 11.8047 6.69336 11.2005 6.69336 10.459C6.69336 10.4367 6.69529 10.4228 6.70011 10.3882C6.70302 10.3673 6.70698 10.3389 6.7122 10.2964L6.75534 9.94599L6.43954 9.7881L4.61835 8.87758Z" fill="#5893D4" stroke="white"/>
<path fill-rule="evenodd" clip-rule="evenodd" d="M18.7285 11.4106V7.15234H17.0371V12.1114C16.6904 12.2963 16.3565 12.502 16.0371 12.7268V6.76758C16.0371 6.4276 16.3124 6.15234 16.6523 6.15234H19.1133C19.4533 6.15234 19.7285 6.4276 19.7285 6.76758V11.1649C19.3884 11.229 19.0548 11.3113 18.7285 11.4106ZM12.0129 21H0.615234C0.275253 21 0 20.7247 0 20.3848C0 20.0448 0.275253 19.7695 0.615234 19.7695H1.27148V18.7695V12.9199C1.27148 12.5799 1.54674 12.3047 1.88672 12.3047H4.34766C4.68764 12.3047 4.96289 12.5799 4.96289 12.9199V18.7695V19.7695H5.19336H5.96289H6.19336V18.7695V15.3809C6.19336 15.0409 6.46861 14.7656 6.80859 14.7656H9.26953C9.60951 14.7656 9.88477 15.0409 9.88477 15.3809V18.7695V19.7695H10.1152H10.8848H11.1152V18.7695V10.459C11.1152 10.119 11.3905 9.84375 11.7305 9.84375H14.1914C14.5314 9.84375 14.8066 10.119 14.8066 10.459V13.7584C14.443 14.1195 14.1084 14.5098 13.8066 14.9255V10.8438H12.1152V19.016C12.0394 19.4995 12 19.9952 12 20.5C12 20.6677 12.0043 20.8344 12.0129 21ZM8.88477 19.7695V20H7.19336V19.7695V15.7656H8.88477V19.7695ZM3.96289 19.7695V20H2.27148V19.7695V13.3047H3.96289V19.7695Z" fill="white"/>
<path d="M19.7069 26.0448L19.5 25.9508L19.2931 26.0448L14.5 28.2235V15.6667C14.5 15.3481 14.6196 15.048 14.8241 14.8312C15.0276 14.6153 15.2971 14.5 15.5714 14.5H23.4286C23.7029 14.5 23.9724 14.6153 24.1759 14.8312C24.3804 15.048 24.5 15.3481 24.5 15.6667V28.2235L19.7069 26.0448Z" fill="#5893D4" stroke="white"/>
</svg>
