<svg width="24" height="24" viewBox="0 0 24 24" fill="none" xmlns="http://www.w3.org/2000/svg">
<path fill-rule="evenodd" clip-rule="evenodd" d="M12 24C18.6274 24 24 18.6274 24 12C24 5.37258 18.6274 0 12 0C5.37258 0 0 5.37258 0 12C0 18.6274 5.37258 24 12 24ZM16.5189 12.9091H12.9084V16.52C12.9084 17.0092 12.5323 17.4291 12.0432 17.4535C11.9203 17.4594 11.7974 17.4403 11.6821 17.3974C11.5668 17.3544 11.4614 17.2885 11.3724 17.2036C11.2833 17.1187 11.2123 17.0166 11.1639 16.9035C11.1154 16.7904 11.0904 16.6686 11.0904 16.5455V12.9091H7.47995C6.99079 12.9091 6.57094 12.533 6.54651 12.0437C6.54059 11.9208 6.55968 11.798 6.60263 11.6827C6.64558 11.5673 6.7115 11.4619 6.79638 11.3729C6.88127 11.2838 6.98336 11.2128 7.09646 11.1644C7.20957 11.1159 7.33133 11.0909 7.45438 11.0909H11.0904V7.48004C11.0904 6.99083 11.4665 6.57094 11.9557 6.54651C12.0786 6.54059 12.2014 6.55968 12.3167 6.60264C12.432 6.64559 12.5374 6.71152 12.6265 6.79641C12.7156 6.8813 12.7865 6.9834 12.835 7.09652C12.8834 7.20964 12.9084 7.33141 12.9084 7.45448V11.0909H16.5445C16.6676 11.0908 16.7895 11.1156 16.9028 11.164C17.016 11.2124 17.1182 11.2833 17.2032 11.3724C17.2882 11.4615 17.3542 11.567 17.3973 11.6824C17.4403 11.7978 17.4594 11.9207 17.4535 12.0437C17.4296 12.533 17.0081 12.9091 16.5189 12.9091Z" fill="#5893D4"/>
</svg>
