<svg width="19" height="18" viewBox="0 0 19 18" fill="none" xmlns="http://www.w3.org/2000/svg">
<path d="M9.51479 0C4.26976 0 0 3.64665 0 8.12947C0 12.6123 4.26976 16.2589 9.51479 16.2589C10.4961 16.2578 11.4726 16.125 12.4168 15.8641L15.7053 17.9081C15.7951 17.9643 15.8987 17.9959 16.0053 17.9996C16.1119 18.0033 16.2176 17.979 16.3112 17.9291C16.4049 17.8792 16.4831 17.8057 16.5376 17.7162C16.5921 17.6266 16.621 17.5244 16.6211 17.4203V13.5123C17.3652 12.8153 17.959 11.98 18.3675 11.0556C18.776 10.1312 18.991 9.13626 18.9998 8.12947C19.0296 3.64665 14.7598 0 9.51479 0ZM15.634 12.8388C15.5742 12.8929 15.5265 12.9585 15.4937 13.0314C15.461 13.1043 15.444 13.183 15.4437 13.2626V16.3635L12.839 14.7434C12.7664 14.6985 12.6846 14.6696 12.5994 14.6586C12.5142 14.6475 12.4276 14.6547 12.3454 14.6795C11.4289 14.9575 10.4745 15.0984 9.51479 15.0976C4.9239 15.0976 1.18935 11.9735 1.18935 8.12947C1.18935 4.28539 4.9239 1.16135 9.51479 1.16135C14.1057 1.16135 17.8402 4.28539 17.8402 8.12947C17.8267 9.02085 17.6236 9.89975 17.2438 10.7104C16.864 11.5211 16.3158 12.2459 15.634 12.8388Z" fill="#9DCCFF"/>
<path d="M13.6779 7.54883H5.35249C5.19477 7.54883 5.04351 7.61001 4.93199 7.7189C4.82047 7.8278 4.75781 7.9755 4.75781 8.1295C4.75781 8.28351 4.82047 8.43121 4.93199 8.54011C5.04351 8.649 5.19477 8.71018 5.35249 8.71018H13.6779C13.8356 8.71018 13.9869 8.649 14.0984 8.54011C14.2099 8.43121 14.2726 8.28351 14.2726 8.1295C14.2726 7.9755 14.2099 7.8278 14.0984 7.7189C13.9869 7.61001 13.8356 7.54883 13.6779 7.54883Z" fill="#9DCCFF"/>
<path d="M11.7461 10.4521H7.28608C7.12836 10.4521 6.97711 10.5133 6.86558 10.6222C6.75406 10.7311 6.69141 10.8788 6.69141 11.0328C6.69141 11.1868 6.75406 11.3345 6.86558 11.4434C6.97711 11.5523 7.12836 11.6135 7.28608 11.6135H11.7461C11.9039 11.6135 12.0551 11.5523 12.1666 11.4434C12.2782 11.3345 12.3408 11.1868 12.3408 11.0328C12.3408 10.8788 12.2782 10.7311 12.1666 10.6222C12.0551 10.5133 11.9039 10.4521 11.7461 10.4521Z" fill="#9DCCFF"/>
<path d="M5.52046 5.80686H13.5129C13.6706 5.80686 13.8219 5.74568 13.9334 5.63678C14.0449 5.52789 14.1076 5.38019 14.1076 5.22618C14.1076 5.07218 14.0449 4.92448 13.9334 4.81558C13.8219 4.70669 13.6706 4.64551 13.5129 4.64551H5.52046C5.36274 4.64551 5.21148 4.70669 5.09996 4.81558C4.98843 4.92448 4.92578 5.07218 4.92578 5.22618C4.92578 5.38019 4.98843 5.52789 5.09996 5.63678C5.21148 5.74568 5.36274 5.80686 5.52046 5.80686Z" fill="#9DCCFF"/>
</svg>
