<svg width="23" height="41" viewBox="0 0 23 41" fill="none" xmlns="http://www.w3.org/2000/svg">
<path d="M0 41L23 41L23 2.01072e-06L3.58433e-06 0L0 41Z"/>
<path d="M13.8371 20.9292L9.29221 25.8243C9.1871 25.9376 9.04677 26 8.89715 26C8.74753 26 8.60721 25.9376 8.50209 25.8243L8.16739 25.4639C7.9496 25.229 7.9496 24.8473 8.16739 24.6128L11.9838 20.5023L8.16316 16.3872C8.05804 16.2738 8 16.1228 8 15.9617C8 15.8005 8.05804 15.6494 8.16316 15.536L8.49786 15.1757C8.60306 15.0624 8.7433 15 8.89292 15C9.04254 15 9.18286 15.0624 9.28798 15.1757L13.8371 20.0753C13.9425 20.1889 14.0003 20.3407 14 20.502C14.0003 20.664 13.9425 20.8156 13.8371 20.9292Z" fill="#5893D4"/>
</svg>