<svg width="36" height="36" viewBox="0 0 36 36" fill="none" xmlns="http://www.w3.org/2000/svg">
<rect width="36" height="36" rx="18" fill="#FF9F2F"/>
<path d="M19.1268 19.8227L15.8725 16.3202L11.5336 20.9899L13.1612 22.7407C13.5927 23.205 14.1778 23.4658 14.7879 23.4658C15.3981 23.4658 15.9832 23.205 16.4147 22.7407L19.1268 19.8227ZM18.0192 23.3491H20.1024C20.3058 23.3491 20.5009 23.436 20.6447 23.5908C20.7886 23.7456 20.8694 23.9556 20.8694 24.1745C20.8694 24.3935 20.7886 24.6034 20.6447 24.7582C20.5009 24.913 20.3058 25 20.1024 25H11.6656C11.4711 24.9998 11.284 24.9202 11.142 24.7771C11.0001 24.6341 10.9139 24.4384 10.9009 24.2296C10.888 24.0207 10.9492 23.8144 11.0722 23.6523C11.1952 23.4903 11.3708 23.3845 11.5636 23.3565L10.4491 22.1571C10.1616 21.8475 10 21.4277 10 20.9899C10 20.5521 10.1616 20.1323 10.4491 19.8227L19.1268 10.4834C19.4144 10.1739 19.8045 10 20.2113 10C20.618 10 21.0081 10.1739 21.2958 10.4834L24.5509 13.9858C24.8384 14.2954 25 14.7153 25 15.153C25 15.5908 24.8384 16.0106 24.5509 16.3202L18.0192 23.3491Z" fill="white"/>
</svg>
