<svg width="46" height="46" viewBox="0 0 46 46" fill="none" xmlns="http://www.w3.org/2000/svg">
<circle cx="23" cy="23" r="23" fill="#5893D4"/>
<path d="M20.6465 20.5812H22.1086V29.3363H20.6465V20.5812Z" fill="white"/>
<path d="M25.0332 20.5812H26.4953V29.3363H25.0332V20.5812Z" fill="white"/>
<path d="M14.7988 16.204V17.6632H16.2609V32.255C16.2609 32.642 16.415 33.0132 16.6892 33.2868C16.9634 33.5605 17.3353 33.7142 17.7231 33.7142H29.4199C29.8077 33.7142 30.1796 33.5605 30.4538 33.2868C30.728 33.0132 30.8821 32.642 30.8821 32.255V17.6632H32.3442V16.204H14.7988ZM17.7231 32.255V17.6632H29.4199V32.255H17.7231Z" fill="white"/>
<path d="M20.6468 13.2856H26.4952V14.7448H20.6468V13.2856Z" fill="white"/>
</svg>
