<svg width="18" height="18" viewBox="0 0 18 18" fill="none" xmlns="http://www.w3.org/2000/svg">
<path d="M3.52707 1.08799L3.54461 1.08799L3.56216 1.10553C4.26386 2.1113 5.03573 3.27495 5.87777 4.59649C5.88946 4.69005 5.85438 4.81285 5.77251 4.96488C5.66726 5.17539 5.37488 5.69582 4.89539 6.52616L4.54454 7.14015L4.94801 7.71905C5.49768 8.50262 6.32218 9.44406 7.42151 10.5434C8.52083 11.6427 9.45643 12.4614 10.2283 12.9993L10.8072 13.4204L11.4387 13.0695C12.2691 12.59 12.7895 12.2976 13 12.1924C13.0819 12.1456 13.1521 12.1134 13.2105 12.0959C13.269 12.0784 13.3158 12.0696 13.3509 12.0696L13.3684 12.0696C14.2923 12.6543 15.4618 13.4321 16.8769 14.4027C16.8886 14.4846 16.8594 14.5723 16.7892 14.6659C16.4383 15.1571 16.0466 15.6219 15.6138 16.0605C15.1811 16.4991 14.8654 16.7593 14.6666 16.8411C13.614 16.7827 12.3714 16.3061 10.9388 15.4114C9.50614 14.5168 7.97117 13.2508 6.33387 11.6135C5.52692 10.7948 4.80475 9.99958 4.16737 9.22771C3.53 8.45584 2.9891 7.71905 2.54469 7.01735C2.10028 6.31565 1.7582 5.64904 1.51846 5.01751C1.27871 4.38598 1.14714 3.81292 1.12375 3.29834C1.19392 3.09953 1.44829 2.78376 1.88685 2.35105C2.32541 1.91833 2.79029 1.52655 3.28148 1.1757C3.36334 1.12892 3.44521 1.09969 3.52707 1.08799ZM3.52707 0.00035652C3.4569 0.000356523 3.39258 0.00620446 3.3341 0.0178984L3.15868 0.0529841L2.98325 0.105612L2.80783 0.184553L2.6324 0.281036C2.56223 0.327816 2.46283 0.400909 2.33418 0.500318C2.20554 0.599726 1.9921 0.77515 1.69388 1.02659C1.39566 1.27803 1.1296 1.52363 0.895698 1.76338C0.661798 2.00312 0.451288 2.26334 0.264169 2.54402C0.0770487 2.8247 -0.0106637 3.07029 0.00103127 3.2808C0.0244213 4.00589 0.205694 4.78361 0.544849 5.61395C0.884003 6.4443 1.33718 7.26587 1.90439 8.07867C2.4716 8.89148 3.04758 9.64288 3.63233 10.3329C4.21708 11.0229 4.85445 11.7129 5.54446 12.4029C6.23446 13.0929 6.92447 13.7332 7.61447 14.3238C8.30448 14.9144 9.05588 15.4933 9.86868 16.0605C10.6815 16.6277 11.506 17.0809 12.3422 17.42C13.1784 17.7592 13.9649 17.9405 14.7016 17.9639L14.7192 17.9639C14.918 17.9639 15.1577 17.8703 15.4384 17.6832C15.7191 17.4961 15.9793 17.2826 16.2191 17.0429C16.4588 16.8031 16.7044 16.54 16.9558 16.2535C17.2073 15.9669 17.3856 15.7535 17.4909 15.6132L17.7014 15.3325C17.9353 14.9583 18.0318 14.6045 17.9909 14.2712C17.9499 13.9379 17.8067 13.6893 17.5611 13.5256C17.526 13.4905 17.4149 13.4116 17.2278 13.2888C17.0406 13.166 16.8243 13.0227 16.5787 12.859C16.3331 12.6953 16.067 12.5169 15.7805 12.324C15.494 12.131 15.2221 11.9526 14.9648 11.7889C14.7075 11.6252 14.4824 11.479 14.2894 11.3503C14.0964 11.2217 13.9707 11.1398 13.9122 11.1048C13.8421 11.058 13.7573 11.02 13.6579 10.9907C13.5585 10.9615 13.4561 10.9469 13.3509 10.9469C13.2807 10.9469 13.2105 10.9527 13.1404 10.9644C13.0702 10.9761 12.9971 10.9937 12.9211 11.017C12.8451 11.0404 12.769 11.0667 12.693 11.096C12.617 11.1252 12.5439 11.1574 12.4737 11.1925C12.2515 11.3094 11.7194 11.6076 10.8774 12.0871C10.164 11.5842 9.27516 10.8007 8.21092 9.73644C7.60278 9.1283 7.10866 8.60202 6.72858 8.15761C6.34849 7.71321 6.06489 7.35651 5.87777 7.08752C6.35726 6.23379 6.65548 5.70167 6.77243 5.49116C7.0765 4.90641 7.10574 4.42106 6.86015 4.03513C6.7432 3.84801 6.33387 3.2311 5.63217 2.1844C4.93047 1.1377 4.53284 0.550022 4.43928 0.421377C4.24047 0.140697 3.9364 0.000356502 3.52707 0.00035652Z" fill="#9DCCFF"/>
</svg>
