<svg width="20" height="27" viewBox="0 0 20 27" fill="none" xmlns="http://www.w3.org/2000/svg">
<path fill-rule="evenodd" clip-rule="evenodd" d="M0.976311 0.988515C1.60143 0.355579 2.44928 0 3.33333 0H10.9767C11.8607 0.000191151 12.7084 0.355896 13.3333 0.988875L19.0233 6.75C19.6485 7.38279 19.9998 8.24109 20 9.13613V23.625C20 24.5201 19.6488 25.3786 19.0237 26.0115C18.3986 26.6444 17.5507 27 16.6667 27H3.33333C2.44928 27 1.60143 26.6444 0.976311 26.0115C0.351189 25.3786 0 24.5201 0 23.625V3.375C0 2.47989 0.351189 1.62145 0.976311 0.988515ZM12.6415 11.0831C13.3863 11.7027 13.8954 12.565 14.082 13.5225C15.5265 13.6238 16.6654 14.8275 16.6654 16.3125C16.6654 17.865 15.4209 19.125 13.8876 19.125H6.66536C4.82648 19.125 3.33203 17.6119 3.33203 15.75C3.33194 14.9184 3.63535 14.1162 4.18397 13.4974C4.73259 12.8786 5.48772 12.4868 6.30425 12.3975C6.9987 11.0475 8.39314 10.125 9.9987 10.125C10.9626 10.1248 11.8968 10.4634 12.6415 11.0831Z" fill="#7E7E7E"/>
</svg>
