<svg width="107" height="22" viewBox="0 0 107 22" fill="none" xmlns="http://www.w3.org/2000/svg">
<path fill-rule="evenodd" clip-rule="evenodd" d="M89.2532 17.1256L89.0093 16.916C88.4183 16.4093 88.3144 15.4827 88.8531 14.8886L95.1805 7.619C95.6853 7.02563 96.6065 6.92046 97.1975 7.46266L97.4414 7.67158C98.0324 8.17896 98.1364 9.1049 97.5969 9.69897L91.2695 16.9686C90.7654 17.562 89.8789 17.6323 89.2532 17.1249V17.1256Z" fill="white"/>
<path opacity="0.4" fill-rule="evenodd" clip-rule="evenodd" d="M94.3334 8.87827L94.2118 8.73828L93.2383 9.85679L93.3422 9.97902C95.0107 11.6568 94.2987 13.3516 93.9163 13.9457L94.0548 13.7886C94.2811 13.5264 94.6289 13.1249 94.9937 12.6872C95.3762 12.0235 95.9156 10.4509 94.3334 8.87827ZM96.4197 11.0627L96.6805 10.7657C96.6975 10.7301 96.7321 10.696 96.7498 10.6605C96.4713 10.9753 96.1758 11.3072 95.8979 11.639C96.1065 11.4116 96.2804 11.2198 96.4197 11.0627Z" fill="white"/>
<path fill-rule="evenodd" clip-rule="evenodd" d="M97.6327 7.84629L91.3053 0.576676C90.7998 -0.0173998 89.8786 -0.122571 89.2876 0.41963L89.0437 0.629262C88.4534 1.13593 88.3495 2.06187 88.8889 2.65594L94.2251 8.73669L94.3467 8.87669C95.9289 10.467 95.3902 12.0396 94.9901 12.7034C95.3033 12.3367 95.6164 11.97 95.912 11.6374C96.1898 11.3056 96.4853 10.9737 96.7639 10.6589C97.0417 10.3448 97.3026 10.0478 97.4765 9.85592C98.0845 9.26113 98.1714 8.43966 97.6327 7.84558V7.84629Z" fill="white"/>
<path fill-rule="evenodd" clip-rule="evenodd" d="M97.2863 17.1256L97.0424 16.916C96.4514 16.4093 96.3474 15.4827 96.8869 14.8886L103.214 7.619C103.718 7.02563 104.64 6.92046 105.231 7.46266L105.474 7.67158C106.066 8.17896 106.169 9.1049 105.631 9.69897L99.3033 16.9686C98.7985 17.562 97.912 17.6323 97.2863 17.1249V17.1256Z" fill="white"/>
<path opacity="0.4" fill-rule="evenodd" clip-rule="evenodd" d="M102.431 8.80796L102.309 8.66797L101.336 9.78648L101.441 9.90871C103.109 11.5858 102.396 13.2813 102.014 13.8754L102.153 13.7183C102.379 13.4554 102.727 13.0539 103.092 12.6169C103.474 11.9532 104.013 10.3806 102.431 8.80796ZM104.43 11.062L104.692 10.765C104.709 10.7295 104.744 10.6954 104.761 10.6598C104.483 10.9746 104.187 11.3065 103.909 11.6383C104.118 11.411 104.309 11.2191 104.43 11.062Z" fill="white"/>
<path fill-rule="evenodd" clip-rule="evenodd" d="M105.647 7.84629L99.3186 0.576676C98.8146 -0.0173998 97.8927 -0.122571 97.3016 0.41963L97.0584 0.629262C96.4674 1.13593 96.3628 2.06187 96.9022 2.65594L102.239 8.73669L102.361 8.87669C103.943 10.467 103.404 12.0396 103.004 12.7034C103.317 12.3367 103.63 11.97 103.925 11.6374C104.204 11.3056 104.499 10.9737 104.777 10.6589C105.056 10.3448 105.316 10.0478 105.49 9.85592C106.099 9.26113 106.185 8.43966 105.647 7.84558V7.84629Z" fill="white"/>
<path fill-rule="evenodd" clip-rule="evenodd" d="M0.382473 17.0566C0.138567 16.8121 0 16.4455 0 15.9907V1.60989C0 1.13804 0.138567 0.771364 0.434082 0.473616C0.729598 0.176578 1.0951 0.0372967 1.56453 0.0372967C2.03397 0.0372967 2.45108 0.176578 2.72892 0.473616C3.02444 0.770654 3.16371 1.13804 3.16371 1.60989V14.8729H9.99591C10.9694 14.8729 11.4735 15.3092 11.4735 16.1662C11.4735 17.0218 10.9694 17.4588 9.99591 17.4588H1.47687C1.00815 17.4588 0.64264 17.3188 0.382473 17.0566ZM13.9422 17.1618C13.6467 16.8647 13.5075 16.4796 13.5075 15.9907V1.59213C13.5075 1.12028 13.6467 0.753599 13.9422 0.456561C14.2378 0.159523 14.6026 0.0195312 15.072 0.0195312C15.5414 0.0195312 15.9585 0.159523 16.2371 0.456561C16.5326 0.753599 16.6719 1.12028 16.6719 1.59213V15.9907C16.6719 16.4625 16.5326 16.8647 16.2371 17.1618C15.9416 17.4588 15.5584 17.5988 15.072 17.5988C14.6195 17.5988 14.2378 17.4588 13.9422 17.1618Z" fill="white"/>
<path d="M34.4743 19.8511C34.6482 20.1481 34.7521 20.4274 34.7521 20.7252C34.7521 21.0918 34.6135 21.4059 34.318 21.6333C34.0225 21.8607 33.6747 22 33.2922 22C32.9967 22 32.7181 21.9304 32.458 21.7904C32.2141 21.6511 31.9878 21.4407 31.8146 21.1792L30.3887 18.8022C30.1624 18.4185 29.8669 18.1385 29.5021 17.9637C29.1373 17.7889 28.6679 17.6844 28.0768 17.6844C26.39 17.6844 24.9471 17.317 23.7134 16.6185C22.479 15.8844 21.5402 14.8533 20.8791 13.5429C20.2188 12.197 19.8887 10.6244 19.8887 8.84221C19.8887 7.04222 20.2365 5.48739 20.8791 4.14148C21.5402 2.81333 22.496 1.79999 23.7134 1.06593C24.9471 0.332569 26.39 0 28.0768 0C29.7283 0 31.1882 0.367389 32.4057 1.06593C33.64 1.79999 34.5782 2.8311 35.2392 4.14148C35.8995 5.47033 36.2297 7.04222 36.2297 8.84221C36.2297 10.7822 35.8479 12.477 35.0653 13.857C34.3003 15.2555 33.1876 16.2689 31.7446 16.9155C32.4926 17.16 33.1006 17.7185 33.6047 18.5407L34.4743 19.8511ZM31.7453 13.5081C32.6312 12.4067 33.0836 10.8341 33.0836 8.80739C33.0836 6.74518 32.6312 5.2074 31.7446 4.10666C30.8581 3.0052 29.6414 2.48148 28.0422 2.48148C26.4423 2.48148 25.2079 3.02297 24.3214 4.10666C23.4349 5.20811 22.9831 6.74518 22.9831 8.80739C22.9831 10.8689 23.4356 12.4067 24.3214 13.5081C25.2079 14.6089 26.46 15.1504 28.0422 15.1504C29.6237 15.1504 30.8581 14.6089 31.7446 13.5081H31.7453ZM40.0544 17.16C39.7589 16.8629 39.6203 16.4778 39.6203 15.9889V1.64295C39.6203 1.1711 39.7589 0.804419 40.0374 0.54149C40.3153 0.297038 40.6808 0.157757 41.1502 0.157757H47.1475C48.9906 0.157757 50.4158 0.611841 51.4416 1.55554C52.4668 2.46442 52.9885 3.7748 52.9885 5.4348C52.9885 7.0948 52.4675 8.40518 51.4416 9.33183C50.4165 10.2748 48.9906 10.7296 47.1475 10.7296H42.784V16.0067C42.784 16.5133 42.6448 16.8978 42.3492 17.177C42.0537 17.4748 41.6713 17.6141 41.1849 17.6141C40.7154 17.597 40.3153 17.457 40.0544 17.1593V17.16ZM46.748 8.31778C48.9036 8.31778 49.9987 7.35702 49.9987 5.46962C49.9987 3.58222 48.9029 2.62147 46.748 2.62147H42.7833V8.30072L46.7473 8.31778H46.748ZM69.6257 16.1985C69.6257 16.5659 69.4695 16.8807 69.1733 17.16C68.8785 17.4044 68.5306 17.5437 68.1305 17.5437C67.8873 17.5437 67.6264 17.4748 67.4009 17.3348C67.1747 17.1948 66.9838 16.9674 66.8615 16.6881L65.3839 13.403H56.8309L55.3533 16.6881C55.2141 16.9852 55.0401 17.1948 54.8139 17.3348C54.5877 17.4748 54.3445 17.5444 54.0666 17.5444C53.7018 17.5444 53.3363 17.4044 53.0415 17.16C52.7283 16.9155 52.5891 16.583 52.5891 16.1985C52.5891 15.9889 52.6414 15.7622 52.7283 15.5519L59.4729 0.996285C59.6121 0.681482 59.8384 0.419975 60.1516 0.245163C60.4471 0.0703511 60.7596 0 61.1074 0C61.4552 0 61.7677 0.0874059 62.0632 0.245163C62.3594 0.419975 62.585 0.664427 62.7419 0.996285L69.5041 15.5526C69.5734 15.78 69.6257 15.9718 69.6257 16.1992V16.1985ZM57.8914 10.9563H64.3411L61.1074 3.68668L57.8907 10.9563H57.8914Z" fill="white"/>
<path fill-rule="evenodd" clip-rule="evenodd" d="M81.7965 0.0333904C82.162 0.0333904 82.4922 0.172671 82.7877 0.469709C83.0832 0.766747 83.2225 1.08155 83.2225 1.50082C83.2225 1.81562 83.1009 2.14748 82.857 2.44451L77.3115 9.24228V16.0393C77.3115 16.546 77.1722 16.9304 76.8767 17.2275C76.5812 17.5245 76.2164 17.6468 75.7646 17.6468C75.2952 17.6468 74.895 17.5075 74.5995 17.2275C74.304 16.9482 74.1647 16.5638 74.1647 16.0393V9.24228L68.6539 2.42746C68.4107 2.12971 68.2891 1.81562 68.2891 1.48376C68.2891 1.09932 68.4276 0.749693 68.7239 0.452655C69.0194 0.155617 69.3672 0.015625 69.7143 0.015625C70.1314 0.015625 70.4623 0.190437 70.7578 0.557115L75.7469 6.77786L80.7191 0.557115C81.0146 0.207492 81.3794 0.0333904 81.7965 0.0333904Z" fill="white"/>
</svg>
