<svg width="14" height="18" viewBox="0 0 14 18" fill="none" xmlns="http://www.w3.org/2000/svg">
<path d="M13 7.66346V15.1538C13 15.6435 12.8104 16.1131 12.4728 16.4593C12.1352 16.8055 11.6774 17 11.2 17H2.8C2.32261 17 1.86477 16.8055 1.52721 16.4593C1.18964 16.1131 1 15.6435 1 15.1538V2.84615C1 2.35652 1.18964 1.88695 1.52721 1.54073C1.86477 1.19451 2.32261 1 2.8 1H6.50313C6.82127 1.00005 7.12638 1.12968 7.35138 1.36038L12.6486 6.79346C12.8736 7.02422 13 7.33715 13 7.66346Z" stroke="white" stroke-linejoin="round"/>
<path d="M7 1.30859V5.92398C7 6.2504 7.12643 6.56345 7.35147 6.79426C7.57652 7.02508 7.88174 7.15475 8.2 7.15475H12.7" stroke="white" stroke-linecap="round" stroke-linejoin="round"/>
<path d="M4 10.2305H10" stroke="white" stroke-linecap="round" stroke-linejoin="round"/>
<path d="M4 13.3086H10" stroke="white" stroke-linecap="round" stroke-linejoin="round"/>
</svg>
