<svg width="11" height="15" viewBox="0 0 11 15" fill="none" xmlns="http://www.w3.org/2000/svg">
<path d="M6.21739 0H0.956522C0.6875 0 0.460824 0.090332 0.276495 0.270996C0.0921649 0.45166 0 0.673828 0 0.9375V14.0625C0 14.3262 0.0921649 14.5483 0.276495 14.729C0.460824 14.9097 0.6875 15 0.956522 15H10.0435C10.3125 15 10.5392 14.9097 10.7235 14.729C10.9078 14.5483 11 14.3262 11 14.0625V4.6875L6.21739 0ZM10.0435 5.08301V5.15625H5.73913V0.9375H5.8288L10.0435 5.08301ZM0.956522 14.0625V0.9375H4.78261V6.09375H10.0435V14.0625H0.956522Z" fill="#317CCE"/>
</svg>
