<svg width="176" height="142" viewBox="0 0 176 142" fill="none" xmlns="http://www.w3.org/2000/svg">
<g filter="url(#filter0_d)">
<path d="M87.9999 93.8555H50.9258V130.998H87.9999V93.8555Z" fill="#61A6F2"/>
<mask id="mask0" mask-type="alpha" maskUnits="userSpaceOnUse" x="11" y="53" width="78" height="78">
<ellipse cx="49.5001" cy="92.4268" rx="38.5001" ry="38.5714" fill="#C4C4C4"/>
</mask>
<g mask="url(#mask0)">
<path d="M50.926 53.8555H11V93.8554H50.926V53.8555Z" fill="#CCE4FF"/>
<path d="M87.9999 53.8555H50.9258V93.8554H87.9999V53.8555Z" fill="#80BCFF"/>
<path d="M50.926 93.8555H11V130.998H50.926V93.8555Z" fill="#99C9FF"/>
</g>
<mask id="mask1" mask-type="alpha" maskUnits="userSpaceOnUse" x="45" y="11" width="83" height="83">
<ellipse cx="86.5765" cy="52.4285" rx="41.3519" ry="41.4285" fill="#C4C4C4"/>
</mask>
<g mask="url(#mask1)">
<path d="M88.1061 11H45.2227V53.9629H88.1061V11Z" fill="#CCEEFF"/>
<path d="M127.926 11H88.1055V53.9629H127.926V11Z" fill="#80D4FF"/>
<path d="M88.1061 53.9648H45.2227V93.8589H88.1061V53.9648Z" fill="#99DDFF"/>
<path d="M127.926 53.9609H88.1055V93.855H127.926V53.9609Z" fill="#61C2F2"/>
</g>
<path d="M127.926 93.8555H88V130.998H127.926V93.8555Z" fill="#99C9FF"/>
<mask id="mask2" mask-type="alpha" maskUnits="userSpaceOnUse" x="88" y="53" width="78" height="78">
<ellipse cx="126.5" cy="92.4268" rx="38.5001" ry="38.5714" fill="#C4C4C4"/>
</mask>
<g mask="url(#mask2)">
<path d="M127.926 53.8555H88V93.8554H127.926V53.8555Z" fill="#CCE4FF"/>
<path d="M164.998 53.8555H127.924V93.8554H164.998V53.8555Z" fill="#80BCFF"/>
<path d="M164.998 93.8555H127.924V130.998H164.998V93.8555Z" fill="#61A6F2"/>
</g>
<path fill-rule="evenodd" clip-rule="evenodd" d="M65.1842 33.8555C65.1842 46.6262 74.9201 56.7126 86.5731 56.7126C98.2261 56.7126 107.962 46.6262 107.962 33.8555H113.666C113.666 49.47 101.679 62.4268 86.5731 62.4268C71.4673 62.4268 59.4805 49.47 59.4805 33.8555H65.1842Z" fill="white"/>
</g>
<defs>
<filter id="filter0_d" x="0.905206" y="0.905206" width="174.188" height="140.188" filterUnits="userSpaceOnUse" color-interpolation-filters="sRGB">
<feFlood flood-opacity="0" result="BackgroundImageFix"/>
<feColorMatrix in="SourceAlpha" type="matrix" values="0 0 0 0 0 0 0 0 0 0 0 0 0 0 0 0 0 0 127 0"/>
<feOffset/>
<feGaussianBlur stdDeviation="5.0474"/>
<feColorMatrix type="matrix" values="0 0 0 0 0 0 0 0 0 0 0 0 0 0 0 0 0 0 0.2 0"/>
<feBlend mode="normal" in2="BackgroundImageFix" result="effect1_dropShadow"/>
<feBlend mode="normal" in="SourceGraphic" in2="effect1_dropShadow" result="shape"/>
</filter>
</defs>
</svg>
