<svg width="20" height="20" viewBox="0 0 20 20" fill="none" xmlns="http://www.w3.org/2000/svg">
<path d="M19.9328 9.85875L16.743 7.34141C16.7163 7.32042 16.6843 7.30736 16.6505 7.30375C16.6167 7.30014 16.5826 7.30611 16.5521 7.32098C16.5216 7.33585 16.4959 7.35902 16.4779 7.38784C16.4599 7.41665 16.4505 7.44994 16.4505 7.4839V9.1013H10.901V3.55164H12.5209C12.6708 3.55164 12.7558 3.37665 12.6633 3.25916L10.1435 0.0693595C10.1269 0.0477744 10.1055 0.0302991 10.081 0.0182755C10.0565 0.00625184 10.0296 0 10.0023 0C9.97503 0 9.94812 0.00625184 9.92364 0.0182755C9.89915 0.0302991 9.87775 0.0477744 9.86107 0.0693595L7.34127 3.25916C7.32028 3.28585 7.30723 3.31791 7.30362 3.35168C7.30001 3.38544 7.30598 3.41954 7.32085 3.45006C7.33572 3.48059 7.35889 3.50631 7.3877 3.52427C7.41652 3.54224 7.44981 3.55173 7.48376 3.55164H9.10113V9.1013H3.55158V7.4814C3.55158 7.33141 3.37659 7.24641 3.2591 7.33891L0.0693582 9.85875C0.0477736 9.87543 0.0302985 9.89683 0.0182751 9.92132C0.00625173 9.9458 0 9.97272 0 9.99999C0 10.0273 0.00625173 10.0542 0.0182751 10.0787C0.0302985 10.1032 0.0477736 10.1246 0.0693582 10.1412L3.2566 12.6611C3.37409 12.7536 3.54908 12.6711 3.54908 12.5186V10.9012H9.09863V16.4508H7.47876C7.32878 16.4508 7.24378 16.6258 7.33627 16.7433L9.85607 19.9306C9.92857 20.0231 10.0686 20.0231 10.1385 19.9306L12.6583 16.7433C12.7508 16.6258 12.6683 16.4508 12.5159 16.4508H10.901V10.9012H16.4505V12.5211C16.4505 12.6711 16.6255 12.7561 16.743 12.6636L19.9303 10.1437C19.9518 10.1268 19.9692 10.1053 19.9813 10.0807C19.9934 10.0562 19.9998 10.0292 20 10.0018C20.0002 9.97448 19.9943 9.94741 19.9827 9.92264C19.971 9.89787 19.954 9.87604 19.9328 9.85875Z" fill="white"/>
</svg>
