<svg width="25" height="25" viewBox="0 0 25 25" fill="none" xmlns="http://www.w3.org/2000/svg">
<circle opacity="0.8" cx="12.5" cy="12.5" r="12.5" fill="#9DCCFF"/>
<path d="M17.8382 12.2973L16.0838 10.9128C16.0691 10.9012 16.0515 10.8941 16.0329 10.8921C16.0144 10.8901 15.9956 10.8934 15.9788 10.9015C15.962 10.9097 15.9479 10.9225 15.938 10.9383C15.9281 10.9542 15.9229 10.9725 15.923 10.9911V11.8807H12.8707V8.8284H13.7616C13.8441 8.8284 13.8908 8.73216 13.84 8.66754L12.4541 6.91315C12.4449 6.90128 12.4331 6.89166 12.4196 6.88505C12.4062 6.87844 12.3914 6.875 12.3764 6.875C12.3614 6.875 12.3466 6.87844 12.3331 6.88505C12.3196 6.89166 12.3079 6.90128 12.2987 6.91315L10.9128 8.66754C10.9012 8.68222 10.8941 8.69985 10.8921 8.71842C10.8901 8.73699 10.8934 8.75575 10.9015 8.77253C10.9097 8.78932 10.9225 8.80347 10.9383 8.81335C10.9542 8.82323 10.9725 8.82845 10.9911 8.8284H11.8807V11.8807H8.8284V10.9898C8.8284 10.9073 8.73216 10.8605 8.66754 10.9114L6.91315 12.2973C6.90128 12.3065 6.89166 12.3183 6.88505 12.3317C6.87844 12.3452 6.875 12.36 6.875 12.375C6.875 12.39 6.87844 12.4048 6.88505 12.4183C6.89166 12.4317 6.90128 12.4435 6.91315 12.4527L8.66616 13.8386C8.73079 13.8895 8.82703 13.8441 8.82703 13.7602V12.8707H11.8793V15.923H10.9884C10.9059 15.923 10.8592 16.0192 10.91 16.0838L12.2959 17.8368C12.3358 17.8877 12.4128 17.8877 12.4513 17.8368L13.8372 16.0838C13.8881 16.0192 13.8427 15.923 13.7588 15.923H12.8707V12.8707H15.923V13.7616C15.923 13.8441 16.0192 13.8908 16.0838 13.84L17.8368 12.4541C17.8487 12.4448 17.8583 12.4329 17.8649 12.4194C17.8716 12.4059 17.8751 12.3911 17.8752 12.376C17.8753 12.361 17.8721 12.3461 17.8657 12.3325C17.8593 12.3188 17.8499 12.3068 17.8382 12.2973Z" fill="white"/>
</svg>
