<svg width="46" height="46" viewBox="0 0 46 46" fill="none" xmlns="http://www.w3.org/2000/svg">
<circle opacity="0.8" cx="23" cy="23" r="23" fill="#9DCCFF"/>
<path d="M33.4109 22.1208L30.1462 19.5495C30.1189 19.5281 30.0861 19.5147 30.0515 19.511C30.017 19.5074 29.9821 19.5135 29.9508 19.5286C29.9196 19.5438 29.8932 19.5675 29.8749 19.5969C29.8565 19.6264 29.8468 19.6604 29.8468 19.6951V21.3471H24.1669V15.6785H25.8248C25.9783 15.6785 26.0653 15.4998 25.9707 15.3798L23.3917 12.1216C23.3746 12.0996 23.3527 12.0817 23.3276 12.0694C23.3026 12.0572 23.275 12.0508 23.2471 12.0508C23.2192 12.0508 23.1916 12.0572 23.1666 12.0694C23.1415 12.0817 23.1196 12.0996 23.1025 12.1216L20.5235 15.3798C20.5021 15.407 20.4887 15.4398 20.485 15.4743C20.4813 15.5088 20.4874 15.5436 20.5026 15.5748C20.5179 15.606 20.5416 15.6322 20.5711 15.6506C20.6005 15.6689 20.6346 15.6786 20.6694 15.6785H22.3247V21.3471H16.6448V19.6925C16.6448 19.5393 16.4657 19.4525 16.3454 19.547L13.0808 22.1208C13.0587 22.1378 13.0408 22.1597 13.0285 22.1847C13.0162 22.2097 13.0098 22.2372 13.0098 22.2651C13.0098 22.2929 13.0162 22.3204 13.0285 22.3454C13.0408 22.3704 13.0587 22.3923 13.0808 22.4093L16.3429 24.9832C16.4631 25.0776 16.6422 24.9934 16.6422 24.8376V23.1856H22.3222V28.8541H20.6643C20.5107 28.8541 20.4238 29.0329 20.5184 29.1529L23.0974 32.4085C23.1716 32.503 23.3149 32.503 23.3865 32.4085L25.9655 29.1529C26.0602 29.0329 25.9758 28.8541 25.8197 28.8541H24.1669V23.1856H29.8468V24.8402C29.8468 24.9934 30.0259 25.0802 30.1462 24.9857L33.4083 22.4119C33.4304 22.3946 33.4482 22.3726 33.4606 22.3475C33.4729 22.3224 33.4795 22.2949 33.4797 22.267C33.4799 22.239 33.4739 22.2113 33.462 22.186C33.4501 22.1607 33.4326 22.1384 33.4109 22.1208Z" fill="white"/>
</svg>
