<svg width="22" height="22" viewBox="0 0 22 22" fill="none" xmlns="http://www.w3.org/2000/svg">
<path d="M3.26562 10.3125C3.78561 10.3125 4.25626 10.1039 4.60403 9.76884L6.51195 10.7227C6.50238 10.8004 6.48828 10.8768 6.48828 10.957C6.48828 12.0232 7.35571 12.8906 8.42188 12.8906C9.48804 12.8906 10.3555 12.0232 10.3555 10.957C10.3555 10.6594 10.2823 10.3808 10.1616 10.1287L12.7498 7.54051C13.0019 7.66119 13.2805 7.73438 13.5781 7.73438C14.6443 7.73438 15.5117 6.86694 15.5117 5.80078C15.5117 5.60004 15.4723 5.4102 15.4152 5.22809L17.664 3.5419C17.9708 3.74684 18.3386 3.86719 18.7344 3.86719C19.8005 3.86719 20.668 2.99976 20.668 1.93359C20.668 0.867432 19.8005 0 18.7344 0C17.6682 0 16.8008 0.867432 16.8008 1.93359C16.8008 2.13434 16.8402 2.32417 16.8973 2.50629L14.6485 4.19247C14.3417 3.98753 13.9739 3.86719 13.5781 3.86719C12.512 3.86719 11.6445 4.73462 11.6445 5.80078C11.6445 6.09837 11.7177 6.377 11.8384 6.6291L9.2502 9.2173C8.99809 9.09662 8.71947 9.02344 8.42188 9.02344C7.90189 9.02344 7.43124 9.23207 7.08347 9.56709L5.17555 8.61322C5.18512 8.53551 5.19922 8.45914 5.19922 8.37891C5.19922 7.31274 4.33179 6.44531 3.26562 6.44531C2.19946 6.44531 1.33203 7.31274 1.33203 8.37891C1.33203 9.44507 2.19946 10.3125 3.26562 10.3125Z" fill="white"/>
<path d="M21.3555 20.7109H20.668V7.08984C20.668 6.73367 20.3796 6.44531 20.0234 6.44531H17.4453C17.0891 6.44531 16.8008 6.73367 16.8008 7.08984V20.7109H15.5117V10.957C15.5117 10.6009 15.2234 10.3125 14.8672 10.3125H12.2891C11.9329 10.3125 11.6445 10.6009 11.6445 10.957V20.7109H10.3555V16.1133C10.3555 15.7571 10.0671 15.4688 9.71094 15.4688H7.13281C6.77664 15.4688 6.48828 15.7571 6.48828 16.1133V20.7109H5.19922V13.5352C5.19922 13.179 4.91086 12.8906 4.55469 12.8906H1.97656C1.62039 12.8906 1.33203 13.179 1.33203 13.5352V20.7109H0.644531C0.288361 20.7109 0 20.9993 0 21.3555C0 21.7116 0.288361 22 0.644531 22H21.3555C21.7116 22 22 21.7116 22 21.3555C22 20.9993 21.7116 20.7109 21.3555 20.7109Z" fill="white"/>
</svg>
