<svg width="23" height="41" viewBox="0 0 23 41" fill="none" xmlns="http://www.w3.org/2000/svg">
<path opacity="0.3" d="M0 0H13C18.5228 0 23 4.47715 23 10V31C23 36.5228 18.5228 41 13 41H0V0Z" fill="#9DCCFF"/>
<path d="M13.8371 20.0708L9.29221 15.1757C9.1871 15.0624 9.04677 15 8.89715 15C8.74753 15 8.60721 15.0624 8.50209 15.1757L8.16739 15.5361C7.9496 15.771 7.9496 16.1527 8.16739 16.3872L11.9838 20.4977L8.16316 24.6128C8.05804 24.7262 8 24.8772 8 25.0383C8 25.1995 8.05804 25.3506 8.16316 25.464L8.49785 25.8243C8.60306 25.9376 8.74329 26 8.89292 26C9.04254 26 9.18286 25.9376 9.28798 25.8243L13.8371 20.9247C13.9425 20.8111 14.0003 20.6593 14 20.498C14.0003 20.336 13.9425 20.1844 13.8371 20.0708Z" fill="#5893D4"/>
</svg>
