<svg width="23" height="41" viewBox="0 0 23 41" fill="none" xmlns="http://www.w3.org/2000/svg">
<path opacity="0.3" d="M23 0H10C4.47715 0 0 4.47715 0 10V31C0 36.5228 4.47715 41 10 41H23V0Z" fill="#9DCCFF"/>
<path d="M9.16291 20.0708L13.7078 15.1757C13.8129 15.0624 13.9532 15 14.1028 15C14.2525 15 14.3928 15.0624 14.4979 15.1757L14.8326 15.5361C15.0504 15.771 15.0504 16.1527 14.8326 16.3872L11.0162 20.4977L14.8368 24.6128C14.942 24.7262 15 24.8772 15 25.0383C15 25.1995 14.942 25.3506 14.8368 25.464L14.5021 25.8243C14.3969 25.9376 14.2567 26 14.1071 26C13.9575 26 13.8171 25.9376 13.712 25.8243L9.16291 20.9247C9.05754 20.8111 8.99967 20.6593 9 20.498C8.99967 20.336 9.05754 20.1844 9.16291 20.0708Z" fill="#5893D4"/>
</svg>
