<svg width="20" height="20" viewBox="0 0 20 20" fill="none" xmlns="http://www.w3.org/2000/svg">
<path d="M10 6.4V3L5.625 7.25L10 11.5V8.1C11.3924 8.1 12.7277 8.63732 13.7123 9.59376C14.6969 10.5502 15.25 11.8474 15.25 13.2C15.25 14.5526 14.6969 15.8498 13.7123 16.8062C12.7277 17.7627 11.3924 18.3 10 18.3C8.60761 18.3 7.27226 17.7627 6.28769 16.8062C5.30312 15.8498 4.75 14.5526 4.75 13.2H3C3 15.0035 3.7375 16.7331 5.05025 18.0083C6.36301 19.2836 8.14348 20 10 20C11.8565 20 13.637 19.2836 14.9497 18.0083C16.2625 16.7331 17 15.0035 17 13.2C17 11.3965 16.2625 9.66692 14.9497 8.39167C13.637 7.11643 11.8565 6.4 10 6.4Z" fill="#9DCCFF"/>
</svg>
