<svg width="15" height="12" viewBox="0 0 15 12" fill="none" xmlns="http://www.w3.org/2000/svg">
<path d="M4.64028 9.72643L1.51247 6.38645C1.43068 6.29805 1.33327 6.22786 1.22588 6.17996C1.1185 6.13205 1.00328 6.10738 0.886905 6.10738C0.770528 6.10738 0.655308 6.13205 0.547925 6.17996C0.440542 6.22786 0.343132 6.29805 0.261342 6.38645C0.178553 6.47379 0.112823 6.57781 0.0679617 6.69248C0.0231003 6.80714 0 6.93018 0 7.05445C0 7.17872 0.0231003 7.30175 0.0679617 7.41642C0.112823 7.53109 0.178553 7.63511 0.261342 7.72245L4.00578 11.7209C4.35431 12.093 4.91732 12.093 5.26585 11.7209L14.7387 1.61506C14.8214 1.52772 14.8872 1.4237 14.932 1.30904C14.9769 1.19437 15 1.07133 15 0.947064C15 0.822793 14.9769 0.699758 14.932 0.585091C14.8872 0.470425 14.8214 0.366407 14.7387 0.279069C14.6569 0.190665 14.5595 0.120476 14.4521 0.0725714C14.3447 0.024667 14.2295 0 14.1131 0C13.9967 0 13.8815 0.024667 13.7741 0.0725714C13.6667 0.120476 13.5693 0.190665 13.4875 0.279069L4.64028 9.72643Z" fill="white"/>
</svg>
