<svg width="25" height="25" viewBox="0 0 25 25" fill="none" xmlns="http://www.w3.org/2000/svg">
<circle opacity="0.8" cx="12.5" cy="12.5" r="12.5" fill="#9DCCFF"/>
<path fill-rule="evenodd" clip-rule="evenodd" d="M12.5 16C9.803 16 7.53 14.622 6.096 12.5C7.53 10.378 9.803 9 12.5 9C15.197 9 17.47 10.378 18.904 12.5C17.47 14.622 15.197 16 12.5 16ZM12.5 8C9.308 8 6.656 9.706 5.076 12.235C5.02633 12.3145 5 12.4063 5 12.5C5 12.5937 5.02633 12.6855 5.076 12.765C6.656 15.294 9.308 17 12.5 17C15.692 17 18.344 15.294 19.924 12.765C19.9737 12.6855 20 12.5937 20 12.5C20 12.4063 19.9737 12.3145 19.924 12.235C18.344 9.706 15.692 8 12.5 8ZM12.5 14.5C13.0304 14.5 13.5391 14.2893 13.9142 13.9142C14.2893 13.5391 14.5 13.0304 14.5 12.5C14.5 11.9696 14.2893 11.4609 13.9142 11.0858C13.5391 10.7107 13.0304 10.5 12.5 10.5C11.9696 10.5 11.4609 10.7107 11.0858 11.0858C10.7107 11.4609 10.5 11.9696 10.5 12.5C10.5 13.0304 10.7107 13.5391 11.0858 13.9142C11.4609 14.2893 11.9696 14.5 12.5 14.5Z" fill="white"/>
</svg>
