<svg width="144" height="34" viewBox="0 0 144 34" fill="none" xmlns="http://www.w3.org/2000/svg">
<path d="M126.839 0.179688C129.439 0.179688 131.913 0.775418 134.133 1.84107C134.482 1.99815 134.832 2.18614 135.179 2.3743L133.657 3.72267L131.375 1.37132L127.443 4.81958L125.127 2.34257L117.896 8.76965L122.526 13.8171L120.718 15.3843L125.286 20.4317L123.478 21.9982L130.012 29.1776L133.878 25.6662L137.241 29.4292C136.575 29.9309 135.846 30.4335 135.054 30.8717C132.643 32.2196 129.852 33.0019 126.871 33.0019C117.705 33.0019 110.254 25.6361 110.254 16.5767C110.222 7.57851 117.674 0.179688 126.839 0.179688ZM123.794 15.5727L127.759 12.0613L131.311 15.98L127.346 19.4911L123.794 15.5727ZM126.618 22.3446L130.55 18.8021L134.133 22.7204L130.169 26.232L126.618 22.3446ZM120.974 8.89548L124.937 5.38406L128.488 9.30272L124.524 12.814L120.974 8.89548ZM128.234 7.01386L131.184 4.38059L133.848 7.29628L130.899 9.96065L128.234 7.01386ZM133.499 19.0837L136.448 16.4502L139.112 19.3963L136.162 22.0314L133.499 19.0837ZM136.099 25.0094L139.049 22.3755L141.711 25.291L138.763 27.9551L136.099 25.0094ZM137.305 11.4656L139.271 9.7098L141.046 11.6542L139.08 13.4094L137.305 11.4656ZM134.768 5.66581L136.734 3.87925L138.51 5.85397L136.543 7.60959L134.768 5.66581ZM139.81 17.2659L141.776 15.5102L143.583 17.454L141.586 19.2092L139.81 17.2659ZM130.962 12.9081L133.912 10.2746L136.575 13.1897L133.627 15.8236L130.962 12.9081Z" fill="white"/>
<mask id="mask0" mask-type="alpha" maskUnits="userSpaceOnUse" x="0" y="7" width="18" height="16">
<path d="M0.414062 7V22.1533H17.7475V7H0.414062Z" fill="white"/>
</mask>
<g mask="url(#mask0)">
<path d="M9.10893 11.4871H8.95936L6.15109 22.1533H3.85574L0.410156 7H2.79171L5.17384 18.3069H5.3226L8.08691 7H9.98033L12.9366 18.3069H13.0855L15.2551 7H17.7436L14.2971 22.1533H12L9.10893 11.4871Z" fill="white"/>
</g>
<path d="M20.7644 15.7021H25.6338C25.5281 13.4586 24.4429 12.5618 23.2949 12.5618C21.9976 12.5618 20.9974 13.566 20.7644 15.7021ZM27.3349 19.7213V21.3459C26.3781 21.9015 25.1027 22.3292 23.5706 22.3292C19.9986 22.3292 18.5312 20.1064 18.5312 16.73C18.5312 13.4799 20.1685 11.1289 23.3587 11.1289C26.0163 11.1289 27.6549 12.8613 27.6549 16.3442V17.1351H20.7218C20.7218 19.699 21.7633 20.832 23.9546 20.832C25.1027 20.8321 26.1661 20.4253 27.3349 19.7213Z" fill="white"/>
<path d="M32.6045 20.6168C33.2852 20.916 34.0301 20.9603 34.5627 20.9603C36.1361 20.9603 37.3258 19.9757 37.3258 16.5142C37.3258 13.7999 36.3476 12.9235 34.9233 12.9235C34.0719 12.9235 33.4555 13.1594 32.6045 13.6287V20.6168H32.6045ZM32.6269 12.0475C33.2633 11.7067 34.3478 11.2563 35.4967 11.2563C38.1341 11.2563 39.5592 13.0943 39.5592 16.5142C39.5592 20.5112 37.6448 22.4561 34.5627 22.4561C33.4346 22.4561 31.6908 22.0926 30.4141 21.4072V6.49059L32.6269 5.95703V12.0475H32.6269Z" fill="white"/>
<path d="M49.1342 18.9396H49.2407L53.791 6.99219H56.4296V22.1466H54.1327V11.1602H53.941L49.6018 22.1466H48.2419L43.9018 11.4171H43.7111V22.1466H41.7969V6.99219H44.371L49.1342 18.9396Z" fill="white"/>
<path d="M65.8113 16.7293C65.8113 13.8442 64.6424 12.6266 63.1963 12.6266C61.7931 12.6266 60.5799 13.8442 60.5799 16.7293C60.5799 19.6577 61.6871 20.832 63.1963 20.832C64.7055 20.832 65.8113 19.6577 65.8113 16.7293ZM58.3477 16.7293C58.3477 12.9877 60.3898 11.1289 63.1963 11.1289C66.0045 11.1289 68.0455 12.9877 68.0455 16.7293C68.0455 20.3833 66.1103 22.3292 63.1963 22.3292C60.2828 22.3292 58.3477 20.3833 58.3477 16.7293Z" fill="white"/>
<path d="M69.7266 12.7117C70.6835 12.1337 72.7047 11.1289 75.1499 11.1289C77.7017 11.1289 78.657 12.1337 78.657 14.3345V22.0725H76.4468V14.8267C76.4468 13.1386 75.6188 12.8394 74.5328 12.8394C73.6832 12.8394 72.5972 13.2247 71.9384 13.6093V22.0725H69.7266V12.7117H69.7266Z" fill="white"/>
<path d="M83.338 15.7021H88.2077C88.1031 13.4586 87.0172 12.5618 85.8687 12.5618C84.5711 12.5618 83.5729 13.566 83.338 15.7021ZM89.9087 19.7213V21.3459C88.9522 21.9015 87.6761 22.3292 86.1446 22.3292C82.5738 22.3292 81.1055 20.1064 81.1055 16.73C81.1055 13.4799 82.7421 11.1289 85.9325 11.1289C88.5919 11.1289 90.2301 12.8613 90.2301 16.3442V17.1351H83.2962C83.2962 19.699 84.3384 20.832 86.5289 20.832C87.6761 20.8321 88.7411 20.4253 89.9087 19.7213Z" fill="white"/>
<path d="M99.0657 11.1289H101.342L97.4922 21.8139C96.4273 24.7636 95.1315 26.3026 92.6863 26.3026V24.5512C94.1333 24.5512 95.0251 23.3965 95.5367 21.8139L91.4531 11.1289H93.7929L96.5149 18.9939H96.6425L99.0657 11.1289Z" fill="white"/>
</svg>
