<svg width="18" height="13" viewBox="0 0 18 13" fill="none" xmlns="http://www.w3.org/2000/svg">
<path d="M6.75 0C7.64511 0 8.50355 0.373538 9.13649 1.03844C9.76942 1.70334 10.125 2.60514 10.125 3.54545V7.09091C10.125 8.03122 9.76942 8.93302 9.13649 9.59792C8.50355 10.2628 7.64511 10.6364 6.75 10.6364C5.85489 10.6364 4.99645 10.2628 4.36351 9.59792C3.73058 8.93302 3.375 8.03122 3.375 7.09091V3.54545C3.375 2.60514 3.73058 1.70334 4.36351 1.03844C4.99645 0.373538 5.85489 0 6.75 0ZM6.75 2.36364C6.45163 2.36364 6.16548 2.48815 5.9545 2.70978C5.74353 2.93142 5.625 3.23202 5.625 3.54545V7.09091C5.625 7.40435 5.74353 7.70495 5.9545 7.92658C6.16548 8.14821 6.45163 8.27273 6.75 8.27273C7.04837 8.27273 7.33452 8.14821 7.5455 7.92658C7.75647 7.70495 7.875 7.40435 7.875 7.09091V3.54545C7.875 3.23202 7.75647 2.93142 7.5455 2.70978C7.33452 2.48815 7.04837 2.36364 6.75 2.36364ZM14.625 0C15.5201 0 16.3786 0.373538 17.0115 1.03844C17.6444 1.70334 18 2.60514 18 3.54545V7.09091C18 8.03122 17.6444 8.93302 17.0115 9.59792C16.3786 10.2628 15.5201 10.6364 14.625 10.6364C13.7299 10.6364 12.8714 10.2628 12.2385 9.59792C11.6056 8.93302 11.25 8.03122 11.25 7.09091V3.54545C11.25 2.60514 11.6056 1.70334 12.2385 1.03844C12.8714 0.373538 13.7299 0 14.625 0ZM14.625 2.36364C14.3266 2.36364 14.0405 2.48815 13.8295 2.70978C13.6185 2.93142 13.5 3.23202 13.5 3.54545V7.09091C13.5 7.40435 13.6185 7.70495 13.8295 7.92658C14.0405 8.14821 14.3266 8.27273 14.625 8.27273C14.9234 8.27273 15.2095 8.14821 15.4205 7.92658C15.6315 7.70495 15.75 7.40435 15.75 7.09091V3.54545C15.75 3.23202 15.6315 2.93142 15.4205 2.70978C15.2095 2.48815 14.9234 2.36364 14.625 2.36364ZM1.125 8.27273C0.826631 8.27273 0.540484 8.39724 0.329505 8.61887C0.118527 8.84051 0 9.14111 0 9.45455L1.125 13H2.25V9.45455C2.25 9.14111 2.13147 8.84051 1.92049 8.61887C1.70952 8.39724 1.42337 8.27273 1.125 8.27273Z" fill="white"/>
</svg>
